<svg width="24" height="24" viewBox="0 0 24 24" fill="none" xmlns="http://www.w3.org/2000/svg">
<path d="M16.9237 9.42442C17.158 9.19012 17.158 8.81022 16.9237 8.5759C16.6894 8.34157 16.3095 8.34156 16.0752 8.57587L10.3931 14.2576L7.9237 11.7883C7.68938 11.554 7.30948 11.554 7.07517 11.7883C6.84086 12.0226 6.84087 12.4025 7.07519 12.6368L9.68601 15.2476C10.0765 15.6381 10.7097 15.6381 11.1002 15.2476L16.9237 9.42442Z" fill="#211A1E"/>
<path fill-rule="evenodd" clip-rule="evenodd" d="M9.77269 2.93676C10.8909 1.462 13.108 1.462 14.2262 2.93676C14.8364 3.74144 15.8332 4.15433 16.8336 4.01678C18.6671 3.76468 20.2348 5.33237 19.9827 7.16589C19.8452 8.16633 20.2581 9.16315 21.0627 9.7733C22.5375 10.8915 22.5375 13.1086 21.0627 14.2268C20.2581 14.837 19.8452 15.8338 19.9827 16.8342C20.2348 18.6677 18.6671 20.2354 16.8336 19.9833C15.8332 19.8458 14.8364 20.2587 14.2262 21.0634C13.108 22.5381 10.8909 22.5381 9.77269 21.0634C9.16254 20.2587 8.16572 19.8458 7.16528 19.9833C5.33176 20.2354 3.76407 18.6677 4.01617 16.8342C4.15372 15.8338 3.74083 14.837 2.93615 14.2268C1.46139 13.1086 1.46139 10.8915 2.93615 9.7733C3.74083 9.16315 4.15372 8.16633 4.01617 7.16589C3.76407 5.33237 5.33176 3.76468 7.16528 4.01678C8.16572 4.15433 9.16254 3.74144 9.77269 2.93676ZM7.00183 5.20559C8.43186 5.40222 9.85673 4.81202 10.7289 3.6618C11.3669 2.82032 12.632 2.82032 13.27 3.6618C14.1422 4.81202 15.567 5.40222 16.9971 5.20559C18.0432 5.06175 18.9377 5.95625 18.7939 7.00244C18.5973 8.43247 19.1875 9.85734 20.3377 10.7295C21.1792 11.3675 21.1792 12.6326 20.3377 13.2706C19.1875 14.1428 18.5973 15.5676 18.7939 16.9977C18.9377 18.0439 18.0432 18.9384 16.9971 18.7945C15.567 18.5979 14.1422 19.1881 13.27 20.3383C12.632 21.1798 11.3669 21.1798 10.7289 20.3383C9.85673 19.1881 8.43186 18.5979 7.00183 18.7945C5.95564 18.9384 5.06114 18.0439 5.20498 16.9977C5.40161 15.5676 4.81141 14.1428 3.66119 13.2706C2.81971 12.6326 2.81971 11.3675 3.66119 10.7295C4.81141 9.85734 5.40161 8.43247 5.20498 7.00244C5.06114 5.95625 5.95564 5.06175 7.00183 5.20559Z" fill="#211A1E"/>
</svg>
