<svg width="24" height="24" viewBox="0 0 24 24" fill="none" xmlns="http://www.w3.org/2000/svg">
<path d="M16.1768 2.01404C16.508 2.01404 16.7771 2.28246 16.7773 2.61365V4.00037H18C19.1045 4.0005 20 4.89588 20 6.00037V18.0004C19.9998 19.1047 19.1043 20.0002 18 20.0004H6C4.89554 20.0004 4.00018 19.1048 4 18.0004V6.00037C4 4.8958 4.89543 4.00037 6 4.00037H7.31055V2.61365C7.31076 2.28254 7.57903 2.01417 7.91016 2.01404C8.2414 2.01404 8.51053 2.28246 8.51074 2.61365V4.00037H15.5771V2.61365C15.5774 2.28254 15.8456 2.01417 16.1768 2.01404ZM5.2002 18.0004C5.20038 18.442 5.55829 18.8002 6 18.8002H18C18.4416 18.8 18.7996 18.442 18.7998 18.0004V9.90759H5.2002V18.0004ZM8 15.5004C8.4141 15.5005 8.75 15.8362 8.75 16.2504C8.74982 16.6643 8.41399 17.0002 8 17.0004C7.5859 17.0004 7.25018 16.6644 7.25 16.2504C7.25 15.8362 7.58579 15.5004 8 15.5004ZM12 15.5004C12.4141 15.5005 12.75 15.8362 12.75 16.2504C12.7498 16.6643 12.414 17.0002 12 17.0004C11.5859 17.0004 11.2502 16.6644 11.25 16.2504C11.25 15.8362 11.5858 15.5004 12 15.5004ZM16 15.5004C16.4141 15.5005 16.75 15.8362 16.75 16.2504C16.7498 16.6643 16.414 17.0002 16 17.0004C15.5859 17.0004 15.2502 16.6644 15.25 16.2504C15.25 15.8362 15.5858 15.5004 16 15.5004ZM8 11.5697C8.41397 11.5698 8.74979 11.9057 8.75 12.3197C8.75 12.7338 8.4141 13.0696 8 13.0697C7.58579 13.0697 7.25 12.7339 7.25 12.3197C7.25021 11.9057 7.58592 11.5697 8 11.5697ZM12 11.5697C12.414 11.5698 12.7498 11.9057 12.75 12.3197C12.75 12.7338 12.4141 13.0696 12 13.0697C11.5858 13.0697 11.25 12.7339 11.25 12.3197C11.2502 11.9057 11.5859 11.5697 12 11.5697ZM16 11.5697C16.414 11.5698 16.7498 11.9057 16.75 12.3197C16.75 12.7338 16.4141 13.0696 16 13.0697C15.5858 13.0697 15.25 12.7339 15.25 12.3197C15.2502 11.9057 15.5859 11.5697 16 11.5697ZM6 5.19958C5.55817 5.19958 5.2002 5.55854 5.2002 6.00037V8.7074H18.7998V6.00037C18.7998 5.55862 18.4417 5.19972 18 5.19958H6Z" fill="#211A1E"/>
</svg>
