<svg width="24" height="24" viewBox="0 0 24 24" fill="none" xmlns="http://www.w3.org/2000/svg">
<path d="M6.6483 3.78777C7.66366 2.7724 9.31067 2.7724 10.326 3.78777L10.9784 4.44011C11.9904 5.45216 11.9945 7.09235 10.9872 8.10906L10.2792 8.82292C10.1243 8.97919 10.1249 9.23164 10.2801 9.38738L14.4735 13.5798C14.6302 13.7365 14.8839 13.7362 15.0399 13.5788L15.7284 12.8844C16.7423 11.8611 18.3952 11.857 19.4139 12.8757L20.1581 13.6198C21.1731 14.6351 21.1731 16.2813 20.1581 17.2966L18.7489 18.7048C17.0628 20.3907 13.8998 20.3616 11.493 17.9548L5.88658 12.3483C3.60749 10.0692 3.5677 6.86849 5.24009 5.19597L6.6483 3.78777ZM9.4774 4.6364C8.93067 4.08967 8.04367 4.08967 7.49693 4.6364L6.08873 6.0446C4.98382 7.14964 4.81886 9.58398 6.73424 11.4997L12.3417 17.1071C14.3992 19.1643 16.795 18.9624 17.9012 17.8561L19.3094 16.4479C19.8559 15.9013 19.8558 15.0151 19.3094 14.4684L18.5653 13.7243C18.0168 13.1758 17.1269 13.1781 16.5809 13.7292L15.8924 14.4235C15.2685 15.0533 14.2517 15.0553 13.6249 14.4284L9.43248 10.236C8.80978 9.61332 8.80702 8.60487 9.42662 7.97917L10.1346 7.26433C10.677 6.71687 10.6747 5.83369 10.1297 5.28874L9.4774 4.6364Z" fill="#211A1E"/>
</svg>
