<svg width="24" height="24" viewBox="0 0 24 24" fill="none" xmlns="http://www.w3.org/2000/svg">
<path d="M12 10.2C11.5085 10.2 11.0257 10.3294 10.6 10.5751C10.5243 10.6188 10.4431 10.6442 10.3614 10.6525L11.3643 11.2315C11.6513 11.3972 11.7496 11.7642 11.5839 12.0511C11.4182 12.3381 11.0513 12.4364 10.7643 12.2708L9.07355 11.2946C8.59526 11.0185 8.43138 10.4069 8.70752 9.92858L9.68368 8.23783C9.84936 7.95086 10.2163 7.85253 10.5033 8.01822C10.7903 8.1839 10.8886 8.55086 10.7229 8.83783L10.4485 9.31316C10.9381 9.10712 11.4655 9 12 9C12.7021 9 13.3919 9.18482 14 9.5359C14.6081 9.88697 15.113 10.3919 15.4641 11C15.8152 11.6081 16 12.2979 16 13C16 13.3314 15.7314 13.6 15.4 13.6C15.0686 13.6 14.8 13.3314 14.8 13C14.8 12.5085 14.6706 12.0257 14.4249 11.6C14.1791 11.1743 13.8257 10.8209 13.4 10.5751C12.9743 10.3294 12.4915 10.2 12 10.2Z" fill="#211A1E"/>
<path d="M12 15.3034C12.4915 15.3034 12.9743 15.174 13.4 14.9283C13.4757 14.8846 13.5569 14.8593 13.6386 14.8509L12.6357 14.2719C12.3487 14.1062 12.2504 13.7393 12.4161 13.4523C12.5818 13.1653 12.9487 13.067 13.2357 13.2327L14.9264 14.2088C15.4047 14.485 15.5686 15.0965 15.2925 15.5748L14.3163 17.2656C14.1506 17.5526 13.7837 17.6509 13.4967 17.4852C13.2097 17.3195 13.1114 16.9526 13.2771 16.6656L13.5515 16.1903C13.0619 16.3963 12.5345 16.5034 12 16.5034C11.2979 16.5034 10.6081 16.3186 10 15.9675C9.39192 15.6164 8.88697 15.1115 8.5359 14.5034C8.18482 13.8953 8 13.2056 8 12.5034C8 12.172 8.26863 11.9034 8.6 11.9034C8.93137 11.9034 9.2 12.172 9.2 12.5034C9.2 12.9949 9.32938 13.4778 9.57513 13.9034C9.82088 14.3291 10.1743 14.6825 10.6 14.9283C11.0257 15.174 11.5085 15.3034 12 15.3034Z" fill="#211A1E"/>
<path fill-rule="evenodd" clip-rule="evenodd" d="M14.5 4C15.3284 4 16 4.67157 16 5.5C16 6.32843 16.6716 7 17.5 7H19C20.1046 7 21 7.89543 21 9V18C21 19.1046 20.1046 20 19 20H5C3.89543 20 3 19.1046 3 18V9C3 7.89543 3.89543 7 5 7H6.5C7.32843 7 8 6.32843 8 5.5C8 4.67157 8.67157 4 9.5 4H14.5ZM14.8 5.5C14.8 5.33431 14.6657 5.2 14.5 5.2H9.5C9.33431 5.2 9.2 5.33431 9.2 5.5C9.2 6.99117 7.99117 8.2 6.5 8.2H5C4.55817 8.2 4.2 8.55817 4.2 9V18C4.2 18.4418 4.55817 18.8 5 18.8H19C19.4418 18.8 19.8 18.4418 19.8 18V9C19.8 8.55817 19.4418 8.2 19 8.2H17.5C16.0088 8.2 14.8 6.99117 14.8 5.5Z" fill="#211A1E"/>
</svg>
