<svg width="24" height="24" viewBox="0 0 24 24" fill="none" xmlns="http://www.w3.org/2000/svg">
<path d="M12 1.40002C15.4804 1.40002 17.55 3.91437 18.5088 5.86389C19.0012 6.86522 19.1006 7.96559 19.1006 8.97327V10.4996C19.1006 11.3833 18.3837 12.1002 17.5 12.1002H16.5947C16.5708 12.351 16.4619 12.586 16.334 12.778C16.1815 13.0066 15.9681 13.2278 15.7061 13.4205C15.2551 13.7521 14.642 14.0108 13.8945 14.0797C13.6078 14.6547 13.0162 15.0513 12.3301 15.0514C11.3637 15.0514 10.5803 14.2677 10.5801 13.3014C10.5801 12.3349 11.3636 11.5514 12.3301 11.5514C13.1417 11.5515 13.8218 12.1046 14.0195 12.8541C14.436 12.7804 14.7624 12.6249 14.9951 12.4537C15.1577 12.3341 15.2697 12.2122 15.3359 12.1129C15.3881 12.0347 15.3985 11.991 15.4004 11.986V7.60315C15.2443 7.18532 14.9032 6.57371 14.3623 6.06018C13.7927 5.5194 13.0175 5.10022 12 5.10022C10.9828 5.10033 10.2082 5.51951 9.63867 6.06018C9.09775 6.57372 8.75663 7.18532 8.60059 7.60315V11.9996C8.60059 12.266 8.72147 12.6688 8.92285 13.1158C9.11608 13.5448 9.34939 13.9417 9.5 14.1676L9.60059 14.318V15.7819C10.4406 16.7376 11.4286 17.0018 12.3096 16.9039C13.1973 16.8052 13.9756 16.3398 14.4004 15.8053V15.4996C14.4006 15.1686 14.6689 14.9002 15 14.9C15.3312 14.9 15.6004 15.1684 15.6006 15.4996V16.0494C16.8956 16.4226 19.1099 17.0711 20.1904 17.4313C20.6823 17.5954 21.0229 17.9791 21.2559 18.3678C21.4925 18.7629 21.6602 19.2318 21.7803 19.6832C22.0202 20.5853 22.1005 21.5375 22.1006 21.9996C22.1006 22.331 21.8314 22.6002 21.5 22.6002C21.1688 22.6 20.9004 22.3309 20.9004 21.9996C20.9003 21.6281 20.83 20.7809 20.6201 19.9918C20.5152 19.5975 20.3836 19.2471 20.2266 18.985C20.0658 18.7166 19.9184 18.6049 19.8105 18.569C18.6252 18.1739 16.0054 17.4109 14.8359 17.0768C14.8337 17.0761 14.8314 17.0745 14.8291 17.0739C14.1958 17.6106 13.3491 17.9955 12.4414 18.0963C11.3641 18.216 10.1995 17.9377 9.19238 17.0651C9.1831 17.0682 9.17456 17.0741 9.16504 17.0768C7.99574 17.4109 5.37593 18.1738 4.19043 18.569C4.08262 18.6049 3.93517 18.7166 3.77441 18.985C3.61738 19.2472 3.48478 19.5975 3.37988 19.9918C3.17001 20.7809 3.10063 21.6281 3.10059 21.9996C3.10059 22.331 2.83137 22.6002 2.5 22.6002C2.16881 22.6 1.90039 22.3309 1.90039 21.9996C1.90044 21.5375 1.98075 20.5853 2.2207 19.6832C2.34079 19.2318 2.50844 18.7629 2.74512 18.3678C2.97807 17.979 3.31864 17.5953 3.81055 17.4313C4.89114 17.0711 7.10538 16.4225 8.40039 16.0494V14.6764C8.22827 14.4016 8.0132 14.0199 7.82812 13.609C7.62626 13.1609 7.42933 12.6074 7.40527 12.1002H6.5C5.61652 12.1 4.90039 11.3832 4.90039 10.4996V8.97327C4.90039 7.96557 4.99978 6.86524 5.49219 5.86389C6.45092 3.91444 8.51985 1.40021 12 1.40002ZM12.3301 12.7506C12.0263 12.7506 11.7793 12.9976 11.7793 13.3014C11.7795 13.605 12.0264 13.8512 12.3301 13.8512C12.6336 13.851 12.8797 13.6049 12.8799 13.3014C12.8799 12.9977 12.6337 12.7508 12.3301 12.7506ZM6.10645 8.60022C6.10259 8.72323 6.10059 8.84771 6.10059 8.97327V10.4996C6.10059 10.7204 6.27927 10.8998 6.5 10.9H7.40039V8.60022H6.10645ZM16.6006 8.60022V10.9H17.5C17.7209 10.9 17.9004 10.7205 17.9004 10.4996V8.97327C17.9004 8.84771 17.8984 8.72323 17.8945 8.60022H16.6006ZM12 2.60022C9.18881 2.60041 7.44045 4.62199 6.56934 6.39319C6.41448 6.70808 6.30876 7.0454 6.23633 7.40002H7.40137L7.43164 7.31018C7.6262 6.72664 8.07575 5.88951 8.8125 5.19006C9.55948 4.48092 10.6177 3.90013 12 3.90002C13.3825 3.90002 14.4414 4.48084 15.1885 5.19006C15.9252 5.88952 16.3748 6.72666 16.5693 7.31018L16.5996 7.40002H17.7646C17.6922 7.04538 17.5865 6.70809 17.4316 6.39319C16.5605 4.62189 14.8115 2.60022 12 2.60022Z" fill="#211A1E"/>
</svg>
