<svg width="24" height="24" viewBox="0 0 24 24" fill="none" xmlns="http://www.w3.org/2000/svg">
<path d="M11.9998 13C12.552 13 12.9998 12.5523 12.9998 12C12.9998 11.4477 12.552 11 11.9998 11C11.4475 11 10.9998 11.4477 10.9998 12C10.9998 12.5523 11.4475 13 11.9998 13Z" fill="#211A1E"/>
<path d="M16.9998 12C16.9998 12.5523 16.552 13 15.9998 13C15.4475 13 14.9998 12.5523 14.9998 12C14.9998 11.4477 15.4475 11 15.9998 11C16.552 11 16.9998 11.4477 16.9998 12Z" fill="#211A1E"/>
<path d="M7.99976 13C8.55204 13 8.99976 12.5523 8.99976 12C8.99976 11.4477 8.55204 11 7.99976 11C7.44747 11 6.99976 11.4477 6.99976 12C6.99976 12.5523 7.44747 13 7.99976 13Z" fill="#211A1E"/>
<path fill-rule="evenodd" clip-rule="evenodd" d="M2.96016 19.8117L3.99964 16C3.99964 16 2.9998 13.8401 2.9998 12C2.9998 7.02944 7.02924 3 11.9998 3C16.9704 3 20.9998 7.02944 20.9998 12C20.9998 16.9706 16.9704 21 11.9998 21C10.1497 21 7.99964 20 7.99964 20L4.18806 21.0395C3.44156 21.2431 2.75659 20.5582 2.96016 19.8117ZM4.20997 19.7897L5.27257 15.8933L5.08877 15.4962L5.08267 15.4827C5.07715 15.4705 5.06828 15.4506 5.05653 15.4237C5.03301 15.3698 4.99808 15.288 4.95553 15.183C4.87014 14.9723 4.75553 14.6721 4.64109 14.3195C4.40521 13.5929 4.1998 12.7334 4.1998 12C4.1998 7.69218 7.69198 4.2 11.9998 4.2C16.3076 4.2 19.7998 7.69218 19.7998 12C19.7998 16.3078 16.3076 19.8 11.9998 19.8C11.2611 19.8 10.4014 19.5944 9.67702 19.3588C9.32538 19.2445 9.02628 19.13 8.81664 19.0447C8.71216 19.0022 8.6308 18.9673 8.57725 18.9439C8.5505 18.9321 8.53076 18.9233 8.51863 18.9178L8.50539 18.9118L8.10755 18.7267L4.20997 19.7897Z" fill="#211A1E"/>
</svg>
