<svg width="24" height="24" viewBox="0 0 24 24" fill="none" xmlns="http://www.w3.org/2000/svg">
<path d="M3.68262 6.76231C5.28912 6.46087 8.26302 5.90348 12.1504 6.90586C15.9992 7.89826 18.8547 7.48048 20.3027 7.07774C20.9261 6.90465 21.6006 7.35519 21.6006 8.05235V16.1705C21.6005 16.6331 21.2827 17.0383 20.8281 17.1441C19.2388 17.5143 16.1869 18.1423 11.8564 17.0699C7.93987 16.1 5.16059 16.6088 3.62402 16.9586C2.99958 17.1007 2.40039 16.6283 2.40039 15.983V7.84043C2.40039 7.33721 2.76842 6.92633 3.24316 6.84336C3.37574 6.8202 3.52239 6.79237 3.68262 6.76231ZM11.8506 8.06797C8.22932 7.1342 5.48771 7.64575 3.89746 7.94297C3.79352 7.9624 3.69461 7.98151 3.60059 7.99864V15.734C5.28344 15.3671 8.17841 14.9227 12.1445 15.9049C16.0792 16.8793 18.8647 16.3623 20.4004 16.0113V8.29356C18.7217 8.72235 15.7443 9.07198 11.8506 8.06797ZM12 9.18711C13.5532 9.18711 14.8123 10.4465 14.8125 11.9996C14.8125 13.5529 13.5533 14.8121 12 14.8121C10.4469 14.8119 9.1875 13.5528 9.1875 11.9996C9.18772 10.4466 10.447 9.18732 12 9.18711ZM17.2051 11.9996C17.702 11.9997 18.1045 12.403 18.1045 12.9C18.1045 13.397 17.702 13.8003 17.2051 13.8004C16.708 13.8004 16.3047 13.3971 16.3047 12.9C16.3047 12.403 16.708 11.9996 17.2051 11.9996ZM12 10.3873C11.1098 10.3875 10.3879 11.1094 10.3877 11.9996C10.3877 12.89 11.1096 13.6127 12 13.6129C12.8906 13.6129 13.6133 12.8902 13.6133 11.9996C13.6131 11.1092 12.8904 10.3873 12 10.3873ZM6.7959 10.1998C7.29295 10.1998 7.69629 10.6031 7.69629 11.1002C7.69613 11.5971 7.29286 11.9996 6.7959 11.9996C6.29907 11.9995 5.89664 11.597 5.89648 11.1002C5.89648 10.6032 6.29897 10.2 6.7959 10.1998Z" fill="#211A1E"/>
</svg>
