<svg width="24" height="24" viewBox="0 0 24 24" fill="none" xmlns="http://www.w3.org/2000/svg">
<path d="M19.999 7.99963C21.1035 7.99963 21.9988 8.89524 21.999 9.99963V19.9996C21.999 21.1042 21.1036 21.9996 19.999 21.9996H9.99902C8.89461 21.9994 7.99902 21.1041 7.99902 19.9996V9.99963C7.99923 8.89536 8.89474 7.99982 9.99902 7.99963H19.999ZM9.99902 9.19983C9.55748 9.20001 9.19943 9.5581 9.19922 9.99963V19.9996C9.19922 20.4413 9.55735 20.8002 9.99902 20.8004H19.999C20.4409 20.8004 20.7998 20.4415 20.7998 19.9996V9.99963C20.7996 9.55799 20.4407 9.19983 19.999 9.19983H9.99902ZM14.6055 2.02014C16.0413 2.02014 17.2058 3.18399 17.2061 4.61975V6.38635C17.2061 6.71772 16.9368 6.98694 16.6055 6.98694C16.2743 6.98673 16.0059 6.71759 16.0059 6.38635V4.61975C16.0056 3.84673 15.3785 3.22034 14.6055 3.22034H4.60547C3.83258 3.22055 3.20627 3.84686 3.20605 4.61975V14.6198C3.20605 15.3928 3.83245 16.0199 4.60547 16.0201H6.38379C6.71503 16.0201 6.98416 16.2886 6.98438 16.6198C6.98438 16.9511 6.71516 17.2203 6.38379 17.2203H4.60547C3.16971 17.2201 2.00586 16.0556 2.00586 14.6198V4.61975C2.00607 3.18412 3.16984 2.02035 4.60547 2.02014H14.6055Z" fill="#211A1E"/>
</svg>
