<svg width="24" height="24" viewBox="0 0 24 24" fill="none" xmlns="http://www.w3.org/2000/svg">
<path d="M14.1484 2.66766C14.5689 2.52725 14.9884 2.62102 15.3262 2.81317C15.6623 3.00444 15.9492 3.30709 16.1621 3.66473C16.3746 4.02168 16.5404 4.49696 16.6709 4.97626C16.8041 5.4655 16.9116 6.00117 16.9941 6.5036C17.0768 7.00679 17.1356 7.48556 17.1699 7.86395C17.1853 8.03364 17.1956 8.18687 17.2012 8.31512C17.8816 8.38696 18.5289 8.61856 19.0986 8.96161C20.385 9.7362 21.3395 11.1192 21.3984 12.6276C21.4476 13.8903 20.8363 14.7102 20.0625 15.1784C19.5028 15.5169 18.8664 15.6705 18.3398 15.7194C18.1371 16.3683 17.8045 17.4526 17.458 18.6306C17.9166 19.0035 18.1621 19.4613 18.083 19.9831C17.9978 20.5438 17.5615 20.9156 17.2803 21.0856L17.1367 21.1725H12.1699C11.8533 21.3034 11.5032 21.4124 11.126 21.485C9.70897 21.7578 7.95117 21.5003 6.19043 20.0026C5.58139 19.4846 5.13954 18.8614 4.84863 18.1843C4.49001 18.1732 4.01767 18.0908 3.59277 17.8493C3.04484 17.5379 2.59783 16.9698 2.59766 16.0895C2.5975 15.2642 3.00853 14.7065 3.50195 14.3874C3.90517 14.1267 4.37313 14.0164 4.73535 14.0231C5.1297 12.8209 5.87635 11.7067 6.92578 10.902C8.20789 9.919 9.6429 9.77958 10.874 9.96747C11.7072 10.0946 12.4646 10.3732 13.0576 10.6579C13.1041 10.5247 13.1622 10.3856 13.2314 10.2448C12.3665 9.69768 11.0452 8.39699 10.3896 6.21063C10.162 5.45137 10.0705 4.82928 10.126 4.34149C10.1834 3.8369 10.4195 3.3791 10.9131 3.18817C11.3471 3.0204 11.8089 3.13372 12.1641 3.28973C12.4891 3.43255 12.8122 3.65166 13.1094 3.90692C13.1431 3.79189 13.1832 3.68378 13.2275 3.5827C13.4182 3.14848 13.7249 2.80914 14.1484 2.66766ZM18.4795 9.98895C17.4965 9.39723 16.2648 9.2687 15.1211 9.96161L15.0957 9.97626L15.0693 9.98993C14.3343 10.3405 14.1186 11.1657 14.0488 11.6423L13.917 12.5446L13.1406 12.0661C12.6164 11.743 11.7103 11.3093 10.6934 11.154C9.68614 11.0003 8.60913 11.1236 7.65625 11.8542C6.50117 12.7398 5.78536 14.1055 5.63965 15.4841C5.49448 16.8577 5.91662 18.1944 6.96777 19.0886C8.44729 20.347 9.83476 20.5123 10.8994 20.3073C11.2262 20.2444 11.527 20.145 11.7939 20.028C11.8013 20.0246 11.8089 20.0214 11.8164 20.0182C11.9841 19.9436 12.1386 19.8614 12.2773 19.777C12.6519 19.5491 12.8787 19.3238 12.9619 19.2038C13.1653 18.9103 13.3931 18.2874 13.3906 17.6052C13.3882 16.9425 13.1715 16.2999 12.5898 15.8483C12.3283 15.6451 12.2812 15.2682 12.4844 15.0065C12.6876 14.7449 13.0644 14.697 13.3262 14.9001C14.2752 15.6369 14.5874 16.6766 14.5908 17.6003C14.5942 18.5043 14.3047 19.3729 13.9482 19.8874C13.9288 19.9154 13.9079 19.9439 13.8857 19.9724H16.7754C16.7971 19.9527 16.817 19.9313 16.835 19.9099C16.8835 19.852 16.8947 19.8149 16.8965 19.8034C16.8971 19.7994 16.8967 19.7962 16.8955 19.7907C16.8941 19.7846 16.8896 19.7656 16.8691 19.7341C16.8252 19.6664 16.7138 19.5453 16.457 19.3952L16.0527 19.1589L16.1846 18.7097C16.6635 17.0652 17.1419 15.5234 17.3223 14.9557L17.458 14.528L17.9063 14.5378C18.3302 14.5462 18.955 14.4462 19.4414 14.152C19.889 13.8813 20.2293 13.4482 20.1992 12.6745C20.1587 11.6365 19.4808 10.5919 18.4795 9.98895ZM4.45898 15.2614C4.3624 15.288 4.25425 15.329 4.15332 15.3942C3.95802 15.5205 3.79778 15.7208 3.79785 16.0895C3.798 16.4902 3.96927 16.6834 4.18555 16.8063C4.27824 16.859 4.38154 16.8971 4.48535 16.9255C4.40235 16.4092 4.39108 15.8806 4.44629 15.3581C4.4497 15.3258 4.45507 15.2937 4.45898 15.2614ZM17.1738 10.7653C17.505 10.7656 17.7734 11.0347 17.7734 11.3659C17.7732 11.6969 17.5049 11.9653 17.1738 11.9655C16.8426 11.9655 16.5735 11.6971 16.5732 11.3659C16.5732 11.0345 16.8425 10.7653 17.1738 10.7653ZM11.3594 4.30633C11.3471 4.3298 11.3294 4.37994 11.3184 4.47723C11.2898 4.72892 11.3301 5.16888 11.5391 5.86591C12.1448 7.88604 13.3866 8.95545 13.9639 9.28583C14.1258 9.1485 14.3115 9.02403 14.5244 8.91962C14.562 8.89715 14.6009 8.87731 14.6387 8.85614C14.6041 8.75104 14.5575 8.61752 14.4971 8.46258C14.3642 8.12176 14.1772 7.6895 13.9551 7.23602C13.4988 6.30438 12.9377 5.37395 12.4326 4.90692C12.1713 4.66532 11.9058 4.48686 11.6816 4.38837C11.494 4.30591 11.3937 4.30379 11.3594 4.30633ZM14.5283 3.80633C14.5108 3.81225 14.421 3.84898 14.3262 4.06512C14.234 4.27512 14.1563 4.61841 14.1494 5.14032C14.4814 5.64478 14.7845 6.20084 15.0332 6.70868C15.2697 7.19162 15.4699 7.65427 15.6152 8.02704C15.6698 8.16694 15.7165 8.29685 15.7559 8.4118C15.8377 8.39188 15.9193 8.37388 16.001 8.35907C15.9964 8.25659 15.9895 8.12579 15.9756 7.97235C15.9439 7.62341 15.8887 7.17317 15.8105 6.69794C15.7323 6.22194 15.6319 5.72925 15.5127 5.29169C15.3908 4.84414 15.2592 4.49358 15.1309 4.27801C15.0031 4.06353 14.8558 3.92587 14.7334 3.85614C14.6125 3.78738 14.5481 3.79972 14.5283 3.80633Z" fill="#211A1E"/>
</svg>
