<svg width="24" height="24" viewBox="0 0 24 24" fill="none" xmlns="http://www.w3.org/2000/svg">
<path d="M6.73145 7.94299C7.06146 7.9131 7.35389 8.15692 7.38379 8.48694L8.25684 18.1266C8.3223 18.8478 8.9272 19.4 9.65137 19.4H14.3496C15.0738 19.4 15.6787 18.8478 15.7441 18.1266L16.6162 8.4967C16.6463 8.16685 16.9386 7.92383 17.2686 7.95374C17.5984 7.98376 17.8413 8.27528 17.8115 8.6051L16.9395 18.235C16.8179 19.5744 15.6945 20.6002 14.3496 20.6002H9.65137C8.30645 20.6002 7.18305 19.5744 7.06152 18.235L6.18848 8.59534C6.15859 8.26543 6.4016 7.97306 6.73145 7.94299ZM13.7373 3.40002C14.2896 3.40002 14.7373 3.84774 14.7373 4.40002V5.42737C14.7374 5.64823 14.9168 5.82678 15.1377 5.82678H19.3086C19.64 5.82678 19.9092 6.096 19.9092 6.42737C19.9091 6.75864 19.6399 7.02698 19.3086 7.02698H4.69141C4.36029 7.02677 4.09192 6.75851 4.0918 6.42737C4.0918 6.09613 4.36021 5.82699 4.69141 5.82678H8.88281C9.10369 5.82678 9.28314 5.64823 9.2832 5.42737V4.40002C9.2832 3.84774 9.73092 3.40002 10.2832 3.40002H13.7373ZM10.4834 5.42737C10.4834 5.56546 10.4636 5.69896 10.4307 5.82678H13.5898C13.5569 5.69895 13.5371 5.56547 13.5371 5.42737V4.60022H10.4834V5.42737Z" fill="#211A1E"/>
</svg>
