<svg width="24" height="24" viewBox="0 0 24 24" fill="none" xmlns="http://www.w3.org/2000/svg">
<path d="M8.9082 16.8989C9.23939 16.8991 9.50781 17.1673 9.50781 17.4985C9.50781 18.029 9.29695 18.5375 8.92188 18.9126C8.5468 19.2877 8.03825 19.4985 7.50781 19.4985C6.97738 19.4985 6.46882 19.2877 6.09375 18.9126C5.71868 18.5375 5.50781 18.029 5.50781 17.4985C5.50781 17.1673 5.77623 16.8991 6.10742 16.8989C6.43879 16.8989 6.70801 17.1672 6.70801 17.4985C6.70801 17.7107 6.79235 17.9139 6.94238 18.064C7.09241 18.214 7.29564 18.2983 7.50781 18.2983C7.71999 18.2983 7.92321 18.214 8.07324 18.064C8.22327 17.9139 8.30762 17.7107 8.30762 17.4985C8.30762 17.1672 8.57683 16.8989 8.9082 16.8989ZM16.9082 16.8989C17.2394 16.8991 17.5078 17.1673 17.5078 17.4985C17.5078 18.029 17.2969 18.5375 16.9219 18.9126C16.5468 19.2877 16.0382 19.4985 15.5078 19.4985C14.9774 19.4985 14.4688 19.2877 14.0938 18.9126C13.7187 18.5375 13.5078 18.029 13.5078 17.4985C13.5078 17.1673 13.7762 16.8991 14.1074 16.8989C14.4388 16.8989 14.708 17.1672 14.708 17.4985C14.708 17.7107 14.7924 17.9139 14.9424 18.064C15.0924 18.214 15.2956 18.2983 15.5078 18.2983C15.72 18.2983 15.9232 18.214 16.0732 18.064C16.2233 17.9139 16.3076 17.7107 16.3076 17.4985C16.3076 17.1672 16.5768 16.8989 16.9082 16.8989ZM12.5078 4.50146C13.6124 4.50146 14.5078 5.3969 14.5078 6.50146V6.55322H16.9424C17.5917 6.55322 18.2004 6.86872 18.5752 7.39893L21.4922 11.5249V16.2954C21.4922 16.4059 21.4024 16.4956 21.292 16.4956H4.50781C3.40332 16.4956 2.50794 15.6001 2.50781 14.4956V6.50146C2.50781 5.3969 3.40324 4.50146 4.50781 4.50146H12.5078ZM4.50781 5.70166C4.06599 5.70166 3.70801 6.05964 3.70801 6.50146V14.4956C3.70814 14.9373 4.06607 15.2954 4.50781 15.2954H13.3076V6.50146C13.3076 6.05964 12.9496 5.70166 12.5078 5.70166H4.50781ZM14.5078 15.2954H20.292V12.1245H14.5078V15.2954ZM14.5078 10.9243H19.5986L17.5957 8.09131C17.4458 7.87927 17.2021 7.75342 16.9424 7.75342H14.5078V10.9243Z" fill="#211A1E"/>
</svg>
