<svg width="24" height="24" viewBox="0 0 24 24" fill="none" xmlns="http://www.w3.org/2000/svg">
<path d="M12.5999 15.3799L14.404 13.5758C14.6383 13.3415 15.0182 13.3415 15.2526 13.5758C15.4869 13.8101 15.4869 14.19 15.2526 14.4243L12.8484 16.8285C12.3798 17.2971 11.62 17.2971 11.1513 16.8285L8.74717 14.4243C8.51286 14.19 8.51286 13.8101 8.74717 13.5758C8.98149 13.3415 9.36139 13.3415 9.5957 13.5758L11.3999 15.38V3.00002C11.3999 2.66865 11.6685 2.40002 11.9999 2.40002C12.3313 2.40002 12.5999 2.66865 12.5999 3.00002V15.3799Z" fill="#211A1E"/>
<path d="M8.05046 8.10007L6.11483 8.10009C4.25396 8.10011 2.73883 9.59608 2.71513 11.4568L2.65146 16.4568C2.62733 18.3513 4.15648 19.9001 6.05118 19.9001H17.9999C19.8777 19.9001 21.3999 18.3778 21.3999 16.5001V11.5001C21.3999 9.62236 19.8777 8.10013 17.9999 8.10013H16.1002C15.7688 8.10013 15.5002 7.8315 15.5002 7.50013C15.5002 7.16876 15.7688 6.90013 16.1002 6.90013H17.9999C20.5404 6.90013 22.5999 8.95962 22.5999 11.5001V16.5001C22.5999 19.0406 20.5404 21.1001 17.9999 21.1001H6.05118C3.48776 21.1001 1.41891 19.0047 1.45155 16.4415L1.51523 11.4415C1.54729 8.92407 3.59717 6.90012 6.11481 6.90009L8.05044 6.90007C8.38181 6.90007 8.65045 7.1687 8.65045 7.50007C8.65045 7.83144 8.38183 8.10007 8.05046 8.10007Z" fill="#211A1E"/>
</svg>
