<svg width="24" height="24" viewBox="0 0 24 24" fill="none" xmlns="http://www.w3.org/2000/svg">
<path d="M2.62305 15.7975C2.95429 15.7975 3.22342 16.0659 3.22363 16.3971V19.3971C3.22363 20.1702 3.85003 20.7973 4.62305 20.7975H7.62305C7.95429 20.7975 8.22342 21.0659 8.22363 21.3971C8.22363 21.7285 7.95442 21.9977 7.62305 21.9977H4.62305C3.18729 21.9975 2.02344 20.8329 2.02344 19.3971V16.3971C2.02365 16.066 2.29199 15.7977 2.62305 15.7975ZM21.3867 15.7975C21.7178 15.7977 21.9861 16.066 21.9863 16.3971V19.3971C21.9863 20.8329 20.8225 21.9975 19.3867 21.9977H16.3867C16.0553 21.9977 15.7861 21.7285 15.7861 21.3971C15.7863 21.0659 16.0555 20.7975 16.3867 20.7975H19.3867C20.1598 20.7973 20.7861 20.1702 20.7861 19.3971V16.3971C20.7863 16.0659 21.0555 15.7975 21.3867 15.7975ZM7.35254 14.1832C7.59011 13.9522 7.97016 13.9574 8.20117 14.1949C8.69161 14.6993 9.27755 15.1011 9.9248 15.3766C10.5721 15.6521 11.2682 15.7965 11.9717 15.8004C12.6751 15.8042 13.3723 15.6674 14.0225 15.399C14.6726 15.1307 15.2629 14.7357 15.7588 14.2369C15.9923 14.002 16.3724 14.0006 16.6074 14.234C16.8424 14.4676 16.8438 14.8476 16.6104 15.0826C16.0021 15.6945 15.2779 16.1793 14.4805 16.5084C13.683 16.8375 12.8276 17.0044 11.9648 16.9996C11.1022 16.9949 10.2488 16.8189 9.45508 16.4811C8.66132 16.1432 7.94228 15.6503 7.34082 15.0319C7.10982 14.7943 7.115 14.4142 7.35254 14.1832ZM8.00098 7.94592C8.55308 7.94614 9.00098 8.39377 9.00098 8.94592C9.00092 9.49803 8.55304 9.94571 8.00098 9.94592C7.44872 9.94592 7.00103 9.49816 7.00098 8.94592C7.00098 8.39364 7.44869 7.94592 8.00098 7.94592ZM16.002 7.94592C16.5542 7.94598 17.002 8.39367 17.002 8.94592C17.0019 9.49813 16.5542 9.94587 16.002 9.94592C15.4497 9.94592 15.002 9.49816 15.002 8.94592C15.002 8.39364 15.4497 7.94592 16.002 7.94592ZM7.62305 2.0094C7.95429 2.0094 8.22342 2.27782 8.22363 2.60901C8.22363 2.94038 7.95442 3.20959 7.62305 3.20959H4.62305C3.85016 3.20981 3.22384 3.83612 3.22363 4.60901V7.60901C3.22363 7.94038 2.95442 8.20959 2.62305 8.20959C2.29186 8.20938 2.02344 7.94025 2.02344 7.60901V4.60901C2.02365 3.17338 3.18742 2.00961 4.62305 2.0094H7.62305ZM19.3867 2.0094C20.8224 2.00958 21.9861 3.17336 21.9863 4.60901V7.60901C21.9863 7.94027 21.7179 8.20941 21.3867 8.20959C21.0553 8.20959 20.7861 7.94038 20.7861 7.60901V4.60901C20.7859 3.8361 20.1596 3.20978 19.3867 3.20959H16.3867C16.0553 3.20959 15.7861 2.94038 15.7861 2.60901C15.7863 2.27782 16.0555 2.0094 16.3867 2.0094H19.3867Z" fill="#211A1E"/>
</svg>
