<svg width="24" height="24" viewBox="0 0 24 24" fill="none" xmlns="http://www.w3.org/2000/svg">
<path d="M12.5319 6.4768C12.0032 6.37247 11.4552 6.42606 10.9575 6.63059C10.4597 6.83509 10.0351 7.18109 9.73673 7.62409C9.43838 8.06702 9.27944 8.58726 9.27944 9.11904C9.27944 9.45041 9.01081 9.71904 8.67944 9.71904C8.34807 9.71904 8.07944 9.45041 8.07944 9.11904C8.07944 8.34776 8.31002 7.59421 8.74146 6.95369C9.17285 6.31323 9.78551 5.81478 10.5014 5.52063C11.2172 5.2265 12.0046 5.14962 12.7642 5.2995C13.5239 5.44939 14.2223 5.81949 14.771 6.36373C15.3196 6.90803 15.6939 7.60209 15.8455 8.35841C15.9972 9.11477 15.9193 9.8987 15.6219 10.6109C15.3246 11.323 14.8214 11.9309 14.1767 12.3582C13.6999 12.6742 13.1616 12.881 12.6002 12.9674V15.3183C12.6002 15.6497 12.3316 15.9183 12.0002 15.9183C11.6689 15.9183 11.4002 15.6497 11.4002 15.3183V11.8132H12.0002C12.5394 11.8132 13.0661 11.6546 13.5137 11.3579C13.9612 11.0613 14.3092 10.6402 14.5146 10.1485C14.7199 9.65678 14.7735 9.11601 14.6689 8.59434C14.5643 8.07265 14.306 7.59277 13.9258 7.21567C13.5456 6.83851 13.0606 6.58113 12.5319 6.4768Z" fill="#211A1E"/>
<path d="M12.8001 17.3753C12.8001 17.8171 12.4419 18.1753 12.0001 18.1753C11.5583 18.1753 11.2001 17.8171 11.2001 17.3753C11.2001 16.9335 11.5583 16.5753 12.0001 16.5753C12.4419 16.5753 12.8001 16.9335 12.8001 17.3753Z" fill="#211A1E"/>
<path fill-rule="evenodd" clip-rule="evenodd" d="M22.0002 11.9999C22.0002 17.5228 17.523 22 12.0001 22C6.47721 22 2 17.5228 2 11.9999C2 6.47696 6.47721 1.99976 12.0001 1.99976C17.523 1.99976 22.0002 6.47696 22.0002 11.9999ZM20.8002 11.9999C20.8002 16.8601 16.8603 20.8 12.0001 20.8C7.13995 20.8 3.2 16.8601 3.2 11.9999C3.2 7.1397 7.13995 3.19976 12.0001 3.19976C16.8603 3.19976 20.8002 7.1397 20.8002 11.9999Z" fill="#211A1E"/>
</svg>
