<svg width="24" height="24" viewBox="0 0 24 24" fill="none" xmlns="http://www.w3.org/2000/svg">
<path d="M7.88672 7.3999C8.21798 7.3999 8.48616 7.66828 8.48633 7.99951C8.48633 8.33088 8.21809 8.60009 7.88672 8.60009H4.5C3.72709 8.6003 3.10076 9.22658 3.10059 9.99951V18.9888C3.10061 19.7618 3.727 20.3889 4.5 20.3892H19.5C20.2732 20.3892 20.9004 19.7619 20.9004 18.9888V11.9038C20.9004 11.5726 21.1688 11.3034 21.5 11.3032C21.8314 11.3032 22.1006 11.5724 22.1006 11.9038V18.9888C22.1006 20.4247 20.9359 21.5884 19.5 21.5884H4.5C3.06426 21.5882 1.90042 20.4246 1.90039 18.9888V9.99951C1.90056 8.56384 3.06434 7.40011 4.5 7.3999H7.88672ZM18.4355 17.5024C18.7669 17.5025 19.0352 17.7717 19.0352 18.103C19.0351 18.4343 18.7668 18.7026 18.4355 18.7026H5.56543C5.23416 18.7026 4.96591 18.4343 4.96582 18.103C4.96588 17.7717 5.23407 17.5024 5.56543 17.5024H18.4355ZM9.52148 14.4741C9.85275 14.4741 10.1209 14.7425 10.1211 15.0737C10.1211 15.4051 9.85286 15.6743 9.52148 15.6743H5.56543C5.23406 15.6742 4.96576 15.4051 4.96582 15.0737C4.96599 14.7425 5.23413 14.4741 5.56543 14.4741H9.52148ZM16.9639 2.92919C17.3934 2.49965 18.0899 2.4997 18.5195 2.92919L21.0713 5.48095C21.5005 5.91045 21.5005 6.60614 21.0713 7.03564L14.4248 13.6821C14.1094 13.9975 13.6762 14.1673 13.2305 14.1499L10.7168 14.0513C10.2996 14.0349 9.96466 13.7009 9.94824 13.2837L9.85059 10.769C9.83328 10.3236 10.0022 9.89098 10.3174 9.57568L14.9863 4.90576C15.0047 4.88052 15.0241 4.85527 15.0469 4.83251C15.0684 4.81105 15.0925 4.79341 15.1162 4.77587L16.9639 2.92919ZM11.166 10.4243C11.0874 10.5031 11.0456 10.611 11.0498 10.7222L11.1328 12.8667L13.2773 12.9507C13.3887 12.955 13.4973 12.9132 13.5762 12.8345L17.8877 8.52197L15.4775 6.11181L11.166 10.4243ZM16.3262 5.26318L18.7363 7.67334L20.1523 6.2583L17.7422 3.84814L16.3262 5.26318Z" fill="#211A1E"/>
</svg>
