<svg width="24" height="24" viewBox="0 0 24 24" fill="none" xmlns="http://www.w3.org/2000/svg">
<path d="M16.749 12.75C18.5439 12.75 19.999 14.2051 19.999 16C19.999 17.7949 18.5439 19.25 16.749 19.25C14.9541 19.25 13.499 17.7949 13.499 16C13.499 14.2051 14.9541 12.75 16.749 12.75ZM16.749 13.9502C15.6169 13.9502 14.6992 14.8678 14.6992 16C14.6992 17.1322 15.6169 18.0498 16.749 18.0498C17.8812 18.0498 18.7988 17.1322 18.7988 16C18.7988 14.8678 17.8812 13.9502 16.749 13.9502ZM10.5957 15.4004C10.9271 15.4004 11.1963 15.6686 11.1963 16C11.1963 16.3314 10.9271 16.5996 10.5957 16.5996H4.5957C4.26451 16.5994 3.99609 16.3312 3.99609 16C3.99609 15.6688 4.26451 15.4006 4.5957 15.4004H10.5957ZM7.24707 4.75C9.042 4.75 10.4971 6.20507 10.4971 8C10.4971 9.79493 9.042 11.25 7.24707 11.25C5.45218 11.25 3.99707 9.7949 3.99707 8C3.99707 6.2051 5.45218 4.75004 7.24707 4.75ZM7.24707 5.9502C6.11492 5.95023 5.19727 6.86784 5.19727 8C5.19727 9.13216 6.11492 10.0498 7.24707 10.0498C8.37925 10.0498 9.29688 9.13218 9.29688 8C9.29688 6.86782 8.37925 5.9502 7.24707 5.9502ZM19.3994 7.40039C19.7307 7.40054 19.999 7.66872 19.999 8C19.999 8.33128 19.7307 8.59946 19.3994 8.59961H13.3994C13.068 8.59961 12.7988 8.33137 12.7988 8C12.7988 7.66863 13.068 7.40039 13.3994 7.40039H19.3994Z" fill="#211A1E"/>
</svg>
