<svg width="24" height="24" viewBox="0 0 24 24" fill="none" xmlns="http://www.w3.org/2000/svg">
<path d="M9 7.40002C9.2878 7.40002 9.7237 7.54942 9.86523 8.01331C10.0272 8.54405 10.2563 9.20216 10.5508 9.83167C10.8487 10.4685 11.1961 11.0374 11.5791 11.4205C11.9622 11.8036 12.5319 12.1508 13.1689 12.4489C13.7985 12.7433 14.4565 12.9725 14.9873 13.1344C15.451 13.2759 15.6005 13.7118 15.6006 13.9996C15.6006 14.2874 15.4512 14.7233 14.9873 14.8649C14.4566 15.0268 13.7985 15.256 13.1689 15.5504C12.5319 15.8484 11.9622 16.1956 11.5791 16.5787C11.196 16.9618 10.8488 17.5315 10.5508 18.1686C10.2563 18.7981 10.0272 19.4562 9.86523 19.9869C9.7237 20.4508 9.2878 20.6002 9 20.6002C8.71219 20.6001 8.27623 20.4506 8.13477 19.9869C7.97282 19.4562 7.7437 18.7981 7.44922 18.1686C7.15121 17.5315 6.80401 16.9618 6.4209 16.5787C6.03779 16.1958 5.46888 15.8483 4.83203 15.5504C4.20252 15.256 3.54441 15.0268 3.01367 14.8649C2.54978 14.7233 2.40039 14.2874 2.40039 13.9996C2.40053 13.7118 2.54999 13.2759 3.01367 13.1344C3.54444 12.9724 4.20254 12.7433 4.83203 12.4489C5.46907 12.1509 6.0378 11.8036 6.4209 11.4205C6.804 11.0374 7.15122 10.4687 7.44922 9.83167C7.74369 9.20217 7.97281 8.54408 8.13477 8.01331C8.27623 7.54963 8.71219 7.40016 9 7.40002ZM9 9.21155C8.86837 9.57458 8.7139 9.96043 8.53613 10.3405C8.21305 11.0311 7.79533 11.7434 7.26953 12.2692C6.74374 12.795 6.03143 13.2127 5.34082 13.5358C4.9608 13.7135 4.57494 13.868 4.21191 13.9996C4.57494 14.1313 4.9608 14.2857 5.34082 14.4635C6.03153 14.7866 6.74366 15.2052 7.26953 15.7311C7.79532 16.2569 8.21306 16.9692 8.53613 17.6598C8.71382 18.0396 8.86842 18.4248 9 18.7877C9.13159 18.4248 9.28616 18.0397 9.46387 17.6598C9.78698 16.9691 10.2056 16.257 10.7314 15.7311C11.2573 15.2052 11.9694 14.7866 12.6602 14.4635C13.04 14.2858 13.4252 14.1312 13.7881 13.9996C13.4252 13.868 13.04 13.7134 12.6602 13.5358C11.9695 13.2127 11.2573 12.795 10.7314 12.2692C10.2056 11.7433 9.78697 11.0312 9.46387 10.3405C9.2861 9.96043 9.13163 9.57458 9 9.21155ZM17 3.40002C17.2245 3.40002 17.5972 3.51767 17.7197 3.91858C17.7982 4.17593 17.9086 4.49097 18.0479 4.7887C18.1906 5.09379 18.3461 5.3428 18.502 5.49866C18.6578 5.65449 18.9069 5.81006 19.2119 5.95276C19.5095 6.09194 19.8238 6.20239 20.0811 6.28088C20.482 6.40322 20.6004 6.77505 20.6006 6.99963C20.6006 7.22417 20.4823 7.59695 20.0811 7.71936C19.8238 7.79786 19.5095 7.9083 19.2119 8.04749C18.9068 8.19021 18.6578 8.34572 18.502 8.50159C18.3461 8.65745 18.1906 8.90643 18.0479 9.21155C17.9087 9.50912 17.7982 9.82343 17.7197 10.0807C17.5973 10.4819 17.2245 10.6002 17 10.6002C16.7754 10.6001 16.4036 10.4817 16.2812 10.0807C16.2028 9.82344 16.0923 9.50912 15.9531 9.21155C15.8104 8.90649 15.6549 8.65746 15.499 8.50159C15.3432 8.34573 15.0942 8.19021 14.7891 8.04749C14.4913 7.90821 14.1763 7.79788 13.9189 7.71936C13.518 7.59683 13.4004 7.2241 13.4004 6.99963C13.4005 6.77513 13.5183 6.40336 13.9189 6.28088C14.1763 6.20237 14.4913 6.09203 14.7891 5.95276C15.0942 5.81003 15.3432 5.65452 15.499 5.49866C15.6549 5.34279 15.8104 5.09382 15.9531 4.7887C16.0924 4.49097 16.2027 4.17592 16.2812 3.91858C16.4037 3.51794 16.7755 3.40016 17 3.40002ZM17 5.38049C16.8367 5.71569 16.6233 6.07166 16.3477 6.34729C16.072 6.62292 15.7161 6.83631 15.3809 6.99963C15.7161 7.16296 16.072 7.37729 16.3477 7.65295C16.6233 7.9286 16.8367 8.28456 17 8.61975C17.1633 8.28452 17.3777 7.92862 17.6533 7.65295C17.929 7.37729 18.2849 7.16296 18.6201 6.99963C18.2849 6.83633 17.929 6.6229 17.6533 6.34729C17.3777 6.07163 17.1633 5.71572 17 5.38049Z" fill="#211A1E"/>
</svg>
