<svg width="24" height="24" viewBox="0 0 24 24" fill="none" xmlns="http://www.w3.org/2000/svg">
<path fill-rule="evenodd" clip-rule="evenodd" d="M19.586 10.9292L21.2933 9.22181C21.6839 8.83128 21.6839 8.19812 21.2933 7.80759L16.1929 2.7072C15.8024 2.31668 15.1692 2.31668 14.7787 2.7072L13.0714 4.41454L3.87386 15.1405C3.53366 15.5372 3.55633 16.129 3.92588 16.4986L4.0852 16.6579L2.51164 18.2315C2.12112 18.622 2.12112 19.2551 2.51164 19.6457L4.35473 21.4888C4.74526 21.8793 5.37842 21.8793 5.76895 21.4888L7.3425 19.9152L7.50196 20.0747C7.8715 20.4442 8.46328 20.4669 8.86001 20.1267L19.586 10.9292ZM15.4858 3.69715L14.3156 4.86741L19.1331 9.68496L20.3034 8.5147L15.4858 3.69715ZM4.90539 15.781L13.5043 5.75317L18.2474 10.4963L8.2195 19.0951L4.90539 15.781ZM3.50159 18.9386L4.9305 17.5097L6.49075 19.0699L5.06184 20.4988L3.50159 18.9386Z" fill="#211A1E"/>
</svg>
