<svg width="24" height="24" viewBox="0 0 24 24" fill="none" xmlns="http://www.w3.org/2000/svg">
<path d="M11.7856 2.61715C12.5666 1.83621 13.833 1.83614 14.614 2.61715L21.3826 9.38577C22.1636 10.1668 22.1635 11.4331 21.3826 12.2142L12.2144 21.3824C11.4333 22.1635 10.167 22.1635 9.38595 21.3824L2.61734 14.6138C1.83629 13.8328 1.83629 12.5664 2.61734 11.7854L11.7856 2.61715ZM10.2346 20.5337C10.547 20.8462 11.0533 20.8462 11.3657 20.5337L14.025 17.8745L10.5088 14.3583L10.2968 17.5368C10.2747 17.8675 9.98865 18.1175 9.65802 18.0955C9.32759 18.0732 9.07735 17.7872 9.09938 17.4567L9.30723 14.3417L6.67492 16.974L10.2346 20.5337ZM14.4565 12.0996C14.7871 12.0775 15.0732 12.3277 15.0953 12.6582C15.1173 12.9888 14.8673 13.2749 14.5366 13.297L11.356 13.5083L14.8736 17.0258L20.5339 11.3655C20.8462 11.0531 20.8463 10.5468 20.5339 10.2344L16.9742 6.67473L11.3415 12.3074L14.4565 12.0996ZM3.466 12.634C3.15358 12.9465 3.15359 13.4527 3.466 13.7651L5.82625 16.1254L6.84064 15.111C6.35194 15.0745 5.87334 14.8715 5.49963 14.4978C4.67144 13.6696 4.67144 12.3263 5.49963 11.4981C5.92132 11.0766 6.47659 10.8709 7.02916 10.8787L6.12525 9.97479L3.466 12.634ZM7.87852 10.0307C7.87032 9.47748 8.07647 8.92126 8.49862 8.49912C9.32682 7.67107 10.6695 7.67167 11.4976 8.49981C11.8712 8.87342 12.075 9.35158 12.1115 9.84014L16.1256 5.82606L13.7653 3.46582C13.4529 3.15344 12.9467 3.15351 12.6342 3.46582L6.97392 9.12613L7.87852 10.0307ZM6.34829 12.3468C5.98873 12.7063 5.98873 13.2896 6.34829 13.6491C6.70785 14.0087 7.29109 14.0087 7.65064 13.6491L8.30112 12.9986L7.64995 12.3475C7.29049 11.988 6.70788 11.9875 6.34829 12.3468ZM9.34728 9.34779C8.98772 9.70735 8.98772 10.2906 9.34728 10.6501L9.99846 11.3013L10.6496 10.6501C11.009 10.2906 11.0091 9.7073 10.6496 9.34779C10.2901 8.98827 9.70685 8.98837 9.34728 9.34779Z" fill="#211A1E"/>
</svg>
