<svg width="24" height="24" viewBox="0 0 24 24" fill="none" xmlns="http://www.w3.org/2000/svg">
<path d="M10.4522 8.16286C10.2039 8.49268 10.1286 8.92358 10.1286 9.25928C10.1286 9.59065 9.85996 9.85928 9.52859 9.85928C9.19722 9.85928 8.92859 9.59065 8.92859 9.25928C8.92859 8.78858 9.02702 8.06072 9.49357 7.44107C9.98538 6.78787 10.8098 6.35497 12.0492 6.37256C12.8351 6.38371 13.4878 6.60347 13.9889 6.9831C14.4883 7.36148 14.8038 7.87361 14.9576 8.41429C15.2563 9.46509 14.9603 10.7099 14.1009 11.4105C13.6098 11.8108 13.1502 12.1032 12.819 12.3139C12.696 12.3921 12.5906 12.4592 12.508 12.5163C12.3378 12.6338 12.2646 12.7048 12.2293 12.7541C12.2085 12.7832 12.1927 12.8132 12.1927 12.8914V14.2558C12.1927 14.5872 11.924 14.8558 11.5927 14.8558C11.2613 14.8558 10.9927 14.5872 10.9927 14.2558V12.8914C10.9927 12.5756 11.0796 12.2986 11.2537 12.0555C11.4133 11.8325 11.6273 11.6662 11.826 11.5289C11.9624 11.4347 12.1005 11.347 12.2457 11.2549C12.5608 11.0549 12.9087 10.8341 13.3427 10.4804C13.7754 10.1276 13.9917 9.40519 13.8033 8.74245C13.7134 8.42636 13.5355 8.14516 13.2642 7.93959C12.9945 7.73527 12.5991 7.58048 12.0321 7.57244C11.1069 7.55931 10.6753 7.86659 10.4522 8.16286Z" fill="#211A1E"/>
<path d="M12.1923 16.4313C12.1923 16.7608 11.9251 17.028 11.5956 17.028C11.266 17.028 10.9989 16.7608 10.9989 16.4313C10.9989 16.1017 11.266 15.8346 11.5956 15.8346C11.9251 15.8346 12.1923 16.1017 12.1923 16.4313Z" fill="#211A1E"/>
<path fill-rule="evenodd" clip-rule="evenodd" d="M2.96016 19.8117L3.99964 16C3.99964 16 2.9998 13.8401 2.9998 12C2.9998 7.02944 7.02924 3 11.9998 3C16.9704 3 20.9998 7.02944 20.9998 12C20.9998 16.9706 16.9704 21 11.9998 21C10.1497 21 7.99964 20 7.99964 20L4.18806 21.0395C3.44156 21.2431 2.75659 20.5582 2.96016 19.8117ZM4.20997 19.7897L5.27257 15.8933L5.08877 15.4962L5.08267 15.4827C5.07715 15.4705 5.06828 15.4506 5.05653 15.4237C5.03301 15.3698 4.99808 15.288 4.95553 15.183C4.87014 14.9723 4.75553 14.6721 4.64109 14.3195C4.40521 13.5929 4.1998 12.7334 4.1998 12C4.1998 7.69218 7.69198 4.2 11.9998 4.2C16.3076 4.2 19.7998 7.69218 19.7998 12C19.7998 16.3078 16.3076 19.8 11.9998 19.8C11.2611 19.8 10.4014 19.5944 9.67702 19.3588C9.32538 19.2445 9.02628 19.13 8.81664 19.0447C8.71216 19.0022 8.6308 18.9673 8.57725 18.9439C8.5505 18.9321 8.53076 18.9233 8.51863 18.9178L8.50539 18.9118L8.50445 18.9113L8.10755 18.7267L4.20997 19.7897Z" fill="#211A1E"/>
</svg>
