<svg width="24" height="24" viewBox="0 0 24 24" fill="none" xmlns="http://www.w3.org/2000/svg">
<path d="M16.0169 3.40039C16.8725 3.40059 17.6085 4.08591 17.595 4.97852C17.5669 6.81796 17.258 8.24384 16.5003 9.43262C15.8559 10.4436 14.9176 11.2284 13.679 11.957C14.8704 12.565 15.8138 13.27 16.4739 14.2715C17.2556 15.4575 17.5877 16.9739 17.6009 19.0312C17.6066 19.9186 16.8745 20.5994 16.0208 20.5996H7.99933C7.12348 20.5995 6.383 19.8838 6.42023 18.9756C6.49899 17.0546 6.83137 15.5857 7.58038 14.4014C8.21597 13.3965 9.11993 12.6501 10.2991 11.999C9.13956 11.3598 8.23729 10.6297 7.59796 9.63379C6.84172 8.45544 6.49786 6.98097 6.41925 5.02246C6.38294 4.11486 7.12326 3.40039 7.99835 3.40039H16.0169ZM7.99835 4.59961C7.77131 4.59961 7.6107 4.781 7.61847 4.97461C7.69297 6.83069 8.01453 8.0622 8.60773 8.98633C9.1983 9.90624 10.1048 10.5946 11.5003 11.2725C12.1056 11.5668 12.1037 12.4335 11.4993 12.7266C10.0871 13.4108 9.18106 14.1165 8.59503 15.043C8.00575 15.9747 7.69415 17.203 7.61945 19.0244C7.6115 19.2183 7.77223 19.4003 7.99933 19.4004H16.0208C16.2425 19.4002 16.4018 19.2273 16.4007 19.0391C16.3882 17.0913 16.072 15.8421 15.472 14.9316C14.8729 14.0228 13.9361 13.3675 12.4984 12.7197C11.8901 12.4457 11.8591 11.586 12.4515 11.2715L12.9866 10.9756C14.1765 10.2866 14.9671 9.60435 15.4876 8.78809C16.08 7.85866 16.3685 6.68221 16.3948 4.96094C16.3977 4.77479 16.2401 4.5998 16.0169 4.59961H7.99835ZM15.5013 17.9004C15.8324 17.9006 16.1009 18.1688 16.1009 18.5C16.1009 18.8312 15.8324 19.0994 15.5013 19.0996H8.50128C8.16991 19.0996 7.90167 18.8314 7.90167 18.5C7.90167 18.1686 8.16991 17.9004 8.50128 17.9004H15.5013Z" fill="#211A1E"/>
</svg>
