<svg width="24" height="24" viewBox="0 0 24 24" fill="none" xmlns="http://www.w3.org/2000/svg">
<path d="M13.501 19.9902C13.8322 19.9904 14.1006 20.2595 14.1006 20.5908C14.1004 20.922 13.8321 21.1903 13.501 21.1904H10.501C10.1697 21.1904 9.90054 20.9221 9.90039 20.5908C9.90039 20.2594 10.1696 19.9902 10.501 19.9902H13.501ZM14.501 18.2051C14.8322 18.2052 15.1006 18.4744 15.1006 18.8057C15.1004 19.1368 14.8321 19.4051 14.501 19.4053H9.50098C9.1697 19.4053 8.90054 19.1369 8.90039 18.8057C8.90039 18.4743 9.16961 18.2051 9.50098 18.2051H14.501ZM12.001 5.5C15.5907 5.50016 18.501 8.41025 18.501 12C18.501 14.8216 17.1931 16.1485 15.7715 17.2861C15.5972 17.4256 15.3795 17.5 15.1562 17.5H8.8457C8.62248 17.5 8.40373 17.4263 8.23242 17.2832C6.80984 16.0946 5.50099 14.3527 5.50098 12C5.50098 8.41015 8.41113 5.5 12.001 5.5ZM12.001 6.7002C9.07387 6.7002 6.70117 9.07289 6.70117 12C6.70118 13.8251 7.68766 15.2413 8.92773 16.2998H11.4004V13.9531L10.1123 12.8574C9.85986 12.6428 9.82932 12.2642 10.0439 12.0117C10.2586 11.7593 10.6372 11.7287 10.8896 11.9434L12.001 12.8877L13.1123 11.9434C13.3648 11.7287 13.7434 11.7593 13.958 12.0117C14.1724 12.2642 14.142 12.6429 13.8896 12.8574L12.6006 13.9531V16.2998H15.083C15.7359 15.773 16.2633 15.2738 16.6445 14.6494C17.0245 14.0271 17.3008 13.2099 17.3008 12C17.3008 9.07299 14.928 6.70035 12.001 6.7002ZM4.29004 11.4004C4.62132 11.4005 4.88965 11.6687 4.88965 12C4.88964 12.3313 4.62131 12.5995 4.29004 12.5996H2.68945C2.35827 12.5994 2.08986 12.3312 2.08984 12C2.08984 11.6688 2.35826 11.4006 2.68945 11.4004H4.29004ZM21.4014 11.4004C21.7327 11.4004 22.002 11.6686 22.002 12C22.0019 12.3314 21.7327 12.5996 21.4014 12.5996H19.8018C19.4704 12.5996 19.2012 12.3314 19.2012 12C19.2012 11.6686 19.4704 11.4004 19.8018 11.4004H21.4014ZM5.04004 4.97461C5.27425 4.7404 5.65433 4.74061 5.88867 4.97461L7.02051 6.10645C7.25468 6.34077 7.25477 6.72081 7.02051 6.95508C6.78623 7.18925 6.40617 7.18921 6.17188 6.95508L5.04004 5.82324C4.80608 5.58893 4.80593 5.20883 5.04004 4.97461ZM18.1484 4.93457C18.3828 4.70028 18.7628 4.70026 18.9971 4.93457C19.2312 5.16889 19.2313 5.54895 18.9971 5.7832L17.8652 6.91406C17.6309 7.14838 17.2509 7.14838 17.0166 6.91406C16.7826 6.67972 16.7824 6.29965 17.0166 6.06543L18.1484 4.93457ZM12.001 2.09082C12.3321 2.09098 12.6004 2.35934 12.6006 2.69043V4.29102C12.6005 4.6222 12.3321 4.89047 12.001 4.89062C11.6697 4.89062 11.4005 4.6223 11.4004 4.29102V2.69043C11.4006 2.35924 11.6697 2.09082 12.001 2.09082Z" fill="#211A1E"/>
</svg>
