<svg width="24" height="24" viewBox="0 0 24 24" fill="none" xmlns="http://www.w3.org/2000/svg">
<path d="M11.4414 3.57825C13.1091 3.57828 14.4608 4.93013 14.4609 6.59778V9.38489H17.6445C19.2489 9.38489 20.4703 10.8233 20.21 12.4064L19.25 18.2443C19.0433 19.5003 17.9575 20.422 16.6846 20.422H6C4.56436 20.4218 3.40058 19.258 3.40039 17.8224V13.464C3.40039 12.0282 4.56424 10.8636 6 10.8634H7.77344L10.7588 4.02551C10.8773 3.75398 11.1451 3.57825 11.4414 3.57825ZM6 12.0636C5.22698 12.0638 4.60059 12.6909 4.60059 13.464V17.8224C4.60078 18.5953 5.2271 19.2216 6 19.2218H7.56543V12.0636H6ZM8.76562 11.589V19.2218H16.6846C17.37 19.2218 17.9552 18.7253 18.0664 18.049L19.0264 12.212C19.1666 11.3596 18.5084 10.5841 17.6445 10.5841H14.0615C13.6197 10.5841 13.2607 10.2261 13.2607 9.7843V6.59778C13.2606 5.6909 12.5975 4.93899 11.7295 4.8009L8.76562 11.589Z" fill="#211A1E"/>
</svg>
