<svg width="24" height="24" viewBox="0 0 24 24" fill="none" xmlns="http://www.w3.org/2000/svg">
<path d="M6 16C6.55228 16 7 16.4477 7 17V19C7 19.5523 6.55228 20 6 20H4C3.44772 20 3 19.5523 3 19V17C3 16.4477 3.44772 16 4 16H6ZM4.2002 18.7998H5.7998V17.2002H4.2002V18.7998ZM21 17.4004C21.3314 17.4004 21.5996 17.6686 21.5996 18C21.5996 18.3314 21.3314 18.5996 21 18.5996H9.50293C9.17178 18.5993 8.90332 18.3312 8.90332 18C8.90332 17.6688 9.17178 17.4007 9.50293 17.4004H21ZM6 10C6.55228 10 7 10.4477 7 11V13C7 13.5523 6.55228 14 6 14H4C3.44772 14 3 13.5523 3 13V11C3 10.4477 3.44772 10 4 10H6ZM4.2002 12.7998H5.7998V11.2002H4.2002V12.7998ZM21 11.4004C21.3314 11.4004 21.5996 11.6686 21.5996 12C21.5996 12.3314 21.3314 12.5996 21 12.5996H9.50293C9.17178 12.5993 8.90332 12.3312 8.90332 12C8.90332 11.6688 9.17178 11.4007 9.50293 11.4004H21ZM6 4C6.55228 4 7 4.44772 7 5V7C7 7.55228 6.55228 8 6 8H4C3.44772 8 3 7.55228 3 7V5C3 4.44772 3.44772 4 4 4H6ZM4.2002 6.7998H5.7998V5.2002H4.2002V6.7998ZM21 5.40039C21.3314 5.40039 21.5996 5.66863 21.5996 6C21.5996 6.33137 21.3314 6.59961 21 6.59961H9.50293C9.17178 6.59935 8.90332 6.33121 8.90332 6C8.90332 5.66879 9.17178 5.40065 9.50293 5.40039H21Z" fill="#211A1E"/>
</svg>
