<svg width="24" height="24" viewBox="0 0 24 24" fill="none" xmlns="http://www.w3.org/2000/svg">
<path d="M5.49409 7.17219C7.96244 1.74372 16.2501 1.55554 18.5517 7.05695C19.0199 8.17623 19.3056 9.42907 19.3056 10.8118C19.3857 12.6774 18.1932 17.0751 12.9589 20.4398C12.3913 20.8046 11.6666 20.8218 11.0957 20.4622C8.54859 18.8583 4.76189 15.3903 4.69234 10.8529C4.67215 9.53395 4.98162 8.29946 5.49409 7.17219ZM12.1025 4.21516C9.82181 4.24766 7.59788 5.44319 6.58589 7.66926C6.13526 8.66055 5.87547 9.7191 5.89253 10.8343C5.92207 12.7641 6.74211 14.5197 7.91109 16.0198C9.08118 17.5214 10.5514 18.7011 11.7353 19.4466C11.8952 19.5473 12.1178 19.5539 12.3105 19.43C17.2091 16.2809 18.168 12.2756 18.1074 10.8636L18.1064 10.8382V10.8118C18.1064 9.59887 17.8555 8.50284 17.4443 7.51985C16.517 5.30341 14.376 4.1829 12.1025 4.21516ZM12.0009 8.00031C13.6576 8.00053 15.0009 9.34359 15.0009 11.0003C15.0007 12.6568 13.6575 14.0001 12.0009 14.0003C10.3442 14.0003 9.00117 12.657 9.00093 11.0003C9.00093 9.34346 10.3441 8.00031 12.0009 8.00031ZM12.0009 9.19953C11.0068 9.19953 10.2001 10.0062 10.2001 11.0003C10.2004 11.9942 11.007 12.8001 12.0009 12.8001C12.9947 12.7999 13.8005 11.9941 13.8007 11.0003C13.8007 10.0063 12.9949 9.19975 12.0009 9.19953Z" fill="#211A1E"/>
</svg>
