<svg width="24" height="24" viewBox="0 0 24 24" fill="none" xmlns="http://www.w3.org/2000/svg">
<path d="M12.001 2.97656C12.3323 2.97665 12.6006 3.24485 12.6006 3.57617V6.08984C15.4407 6.37161 17.697 8.63441 17.9717 11.4766H20.7559C21.0872 11.4766 21.3555 11.7448 21.3555 12.0762C21.3555 12.4075 21.0872 12.6758 20.7559 12.6758H17.9697C17.6818 15.5035 15.4304 17.7505 12.6006 18.0312V21.0762C12.6006 21.4075 12.3323 21.6757 12.001 21.6758C11.6697 21.6757 11.4004 21.4075 11.4004 21.0762V18.0303C8.57106 17.749 6.32009 15.5032 6.03223 12.6758H3.25586C2.92454 12.6757 2.65625 12.4075 2.65625 12.0762C2.65625 11.7448 2.92454 11.4766 3.25586 11.4766H6.03027C6.30493 8.63477 8.56082 6.37305 11.4004 6.09082V3.57617C11.4004 3.24483 11.6697 2.97662 12.001 2.97656ZM12.001 7.26074C9.35009 7.26075 7.2013 9.40969 7.20117 12.0605C7.20117 14.7115 9.35001 16.8603 12.001 16.8604C14.6519 16.8604 16.8008 14.7115 16.8008 12.0605C16.8006 9.40969 14.6519 7.26074 12.001 7.26074ZM12.001 10.4912C12.8294 10.4912 13.501 11.1628 13.501 11.9912C13.5007 12.8194 12.8292 13.4912 12.001 13.4912C11.1727 13.4912 10.5012 12.8194 10.501 11.9912C10.501 11.1628 11.1725 10.4912 12.001 10.4912Z" fill="#211A1E"/>
</svg>
