<svg width="24" height="24" viewBox="0 0 24 24" fill="none" xmlns="http://www.w3.org/2000/svg">
<path d="M19 5C20.1046 5 21 5.89543 21 7V17C21 18.1046 20.1046 19 19 19H5C3.89543 19 3 18.1046 3 17V7C3 5.89543 3.89543 5 5 5H19ZM13.4854 13.3633C12.6653 14.1834 11.3348 14.1834 10.5146 13.3633L9.99902 12.8477L5.04785 17.7998H18.9521L14 12.8477L13.4854 13.3633ZM4.2002 16.9521L9.15137 12L4.2002 7.04785V16.9521ZM14.8477 12L19.7998 16.9521V7.04785L14.8477 12ZM11.3633 12.5146C11.7148 12.8661 12.2852 12.8661 12.6367 12.5146L18.9521 6.2002H5.04785L11.3633 12.5146Z" fill="#211A1E"/>
</svg>
