<svg width="24" height="24" viewBox="0 0 24 24" fill="none" xmlns="http://www.w3.org/2000/svg">
<path d="M8.94531 4.35013C9.58209 4.17431 10.2118 4.65336 10.2119 5.314V12.1265C10.7386 12.155 11.1572 12.5907 11.1572 13.1245V19.0005C11.157 19.5526 10.7093 20.0004 10.1572 20.0005H5.8418C5.28963 20.0005 4.84199 19.5526 4.8418 19.0005V13.1245C4.8418 12.5906 5.26027 12.1549 5.78711 12.1265V5.98392C5.7873 5.53448 6.08731 5.13987 6.52051 5.02005L8.94531 4.35013ZM17.499 9.41068C18.0512 9.41068 18.4989 9.8585 18.499 10.4107V17.5005C18.4988 18.8811 17.3796 20.0005 15.999 20.0005C14.6186 20.0003 13.4992 18.8809 13.499 17.5005V10.4107C13.4991 9.85862 13.947 9.41088 14.499 9.41068H17.499ZM6.04199 18.8003H9.95703V15.4322H6.04199V18.8003ZM14.6992 17.5005C14.6994 18.2182 15.2813 18.8001 15.999 18.8003C16.7169 18.8003 17.2996 18.2183 17.2998 17.5005V10.6109H14.6992V17.5005ZM6.04199 14.232H9.95703V13.3247H6.04199V14.232ZM6.9873 12.1031H9.01172V10.8492H6.9873V12.1031ZM6.9873 6.13627V9.64896H9.01172V5.5767L6.9873 6.13627ZM16.0088 2.34525C17.2822 2.36496 18.3041 2.54216 19.0166 3.01224C19.7906 3.52303 20.0996 4.30636 20.0996 5.24564C20.0995 6.04144 19.814 6.72303 19.498 7.27103C19.3398 7.54542 19.1688 7.79466 19.0156 8.01127C18.9738 8.07046 18.934 8.12666 18.8965 8.17923C18.7909 8.32728 18.7015 8.45222 18.626 8.56986C18.4468 8.84836 18.0756 8.92955 17.7969 8.75052C17.5183 8.5714 17.4382 8.20015 17.6172 7.92142C17.7101 7.77681 17.8236 7.61702 17.9346 7.46146C17.9689 7.41339 18.003 7.36572 18.0361 7.31888C18.1833 7.11078 18.3289 6.89711 18.459 6.67142C18.7197 6.21915 18.8993 5.74968 18.8994 5.24564C18.8994 4.59425 18.7069 4.24609 18.3555 4.0142C17.9425 3.74174 17.2146 3.5644 15.9902 3.54545C14.9311 3.52907 14.1967 3.71699 13.7441 4.01322C13.3265 4.2866 13.1042 4.67888 13.0996 5.25052C13.0964 5.66751 13.2846 6.18453 13.5879 6.68802C13.8883 7.18667 14.2495 7.5872 14.4873 7.77201C14.7489 7.97536 14.7961 8.35218 14.5928 8.6138C14.3894 8.87517 14.0125 8.92253 13.751 8.71927C13.3701 8.42328 12.9167 7.90001 12.5596 7.30716C12.2054 6.71925 11.8936 5.97636 11.8994 5.24076C11.907 4.28812 12.3167 3.51253 13.0869 3.00834C13.8222 2.52715 14.8319 2.32705 16.0088 2.34525ZM16.3652 5.95365C16.501 5.65148 16.856 5.51628 17.1582 5.65189C17.4603 5.78765 17.5955 6.14269 17.46 6.44486L16.7441 8.03763C16.4637 8.66169 15.5802 8.6689 15.29 8.04935L14.543 6.45365C14.4025 6.15358 14.532 5.79633 14.832 5.6558C15.132 5.51554 15.4894 5.6449 15.6299 5.94486L16.0068 6.75052L16.3652 5.95365Z" fill="#211A1E"/>
</svg>
