<svg width="24" height="24" viewBox="0 0 24 24" fill="none" xmlns="http://www.w3.org/2000/svg">
<path d="M9.00031 9C9.00031 9.55228 8.5526 10 8.00031 10C7.44803 10 7.00031 9.55228 7.00031 9C7.00031 8.44772 7.44803 8 8.00031 8C8.5526 8 9.00031 8.44772 9.00031 9Z" fill="#211A1E"/>
<path fill-rule="evenodd" clip-rule="evenodd" d="M12.6003 2.61111C12.6003 2.27974 12.3316 2.01111 12.0003 2.01111C11.6689 2.01111 11.4003 2.27974 11.4003 2.61111V3.40002L9.5388 3.40002C6.26191 3.40002 3.60547 6.05647 3.60547 9.33336V12.2052C3.60547 16.6398 7.04398 20.2713 11.4003 20.5789V21.4021C11.4003 21.7335 11.6689 22.0021 12.0003 22.0021C12.3316 22.0021 12.6003 21.7335 12.6003 21.4021V20.2892C12.9326 20.2649 13.2595 20.2204 13.5797 20.1571C13.7422 20.1249 13.8479 19.9671 13.8158 19.8046C13.7836 19.642 13.6258 19.5363 13.4633 19.5685C13.1811 19.6243 12.8931 19.6643 12.6003 19.6875L12.6003 2.61111ZM11.4003 19.3754V16.9752C10.2952 16.8417 9.25984 16.342 8.46469 15.5468C8.23037 15.3125 8.23037 14.9326 8.46469 14.6983C8.699 14.464 9.0789 14.464 9.31321 14.6983C9.88287 15.268 10.6148 15.6381 11.4003 15.7637L11.4003 4.60002H9.5388C6.92466 4.60002 4.80547 6.71921 4.80547 9.33336L4.80547 12.2052C4.80547 15.9767 7.70743 19.0705 11.4003 19.3754Z" fill="#211A1E"/>
<path d="M13.6356 4.31118C13.4699 4.31118 13.3356 4.17687 13.3356 4.01118C13.3356 3.8455 13.4699 3.71118 13.6356 3.71118L14.4617 3.71118C14.8376 3.71118 15.2051 3.74803 15.5608 3.8184C15.7234 3.85055 15.8291 4.00838 15.7969 4.17092C15.7647 4.33345 15.6069 4.43915 15.4444 4.40699C15.1268 4.34417 14.7983 4.31118 14.4617 4.31118L13.6356 4.31118Z" fill="#211A1E"/>
<path d="M16.4981 18.9475C16.3604 19.0397 16.1741 19.0028 16.0819 18.8651C15.9897 18.7275 16.0266 18.5411 16.1643 18.449C16.9817 17.9017 17.6856 17.1978 18.2329 16.3804C18.325 16.2427 18.5114 16.2058 18.649 16.298C18.7867 16.3901 18.8236 16.5765 18.7314 16.7142C18.1405 17.5968 17.3807 18.3566 16.4981 18.9475Z" fill="#211A1E"/>
<path d="M17.2581 5.15878C17.1204 5.06661 17.0836 4.88028 17.1757 4.7426C17.2679 4.60492 17.4542 4.56803 17.5919 4.6602C18.2061 5.07139 18.7349 5.60013 19.146 6.21433C19.2382 6.35201 19.2013 6.53834 19.0637 6.63051C18.926 6.72269 18.7396 6.6858 18.6475 6.54812C18.2799 5.9991 17.8071 5.52634 17.2581 5.15878Z" fill="#211A1E"/>
<path d="M19.941 13.7958C19.9088 13.9583 19.751 14.064 19.5885 14.0319C19.4259 13.9997 19.3203 13.8419 19.3524 13.6794C19.446 13.2064 19.4951 12.7173 19.4951 12.2163V11.4984C19.4951 11.3327 19.6294 11.1984 19.7951 11.1984C19.9608 11.1984 20.0951 11.3327 20.0951 11.4984V12.2163C20.0951 12.7566 20.0421 13.2847 19.941 13.7958Z" fill="#211A1E"/>
<path d="M21.8286 7.33982C22.0576 7.11084 22.0576 6.73958 21.8286 6.5106C21.5996 6.28162 21.2284 6.28162 20.9994 6.5106L17.0701 10.4399L16.0238 9.3935C15.7948 9.16452 15.4236 9.16452 15.1946 9.3935C14.9656 9.62248 14.9656 9.99373 15.1946 10.2227L16.3238 11.352C16.736 11.7642 17.4043 11.7642 17.8164 11.352L21.8286 7.33982Z" fill="#211A1E"/>
</svg>
