<svg width="24" height="24" viewBox="0 0 24 24" fill="none" xmlns="http://www.w3.org/2000/svg">
<path d="M9.14453 2.5654C10.5322 1.99401 12.0591 1.8514 13.5283 2.15719C13.8527 2.22472 14.0607 2.54274 13.9932 2.86715C13.9256 3.19134 13.6084 3.39928 13.2842 3.332C12.0501 3.07514 10.7671 3.19487 9.60156 3.67477C8.43599 4.15476 7.44049 4.97301 6.74512 6.02438C6.04973 7.07587 5.68564 8.31266 5.7002 9.57321C5.71485 10.8336 6.10775 12.0607 6.82715 13.0957C7.54661 14.1307 8.55999 14.9259 9.73633 15.3789C10.9127 15.8318 12.1979 15.922 13.4258 15.6367C14.6537 15.3514 15.7678 14.7036 16.624 13.7783C17.4801 12.853 18.0392 11.6925 18.2285 10.4463C18.2783 10.1187 18.5845 9.89355 18.9121 9.94333C19.2396 9.99323 19.4648 10.2994 19.415 10.6269C19.1896 12.1105 18.524 13.4923 17.5049 14.5937C17.076 15.0572 16.5921 15.461 16.0674 15.7998H20.7998C20.9103 15.7998 21 15.8895 21 16V17C21 19.2091 19.2091 21 17 21H7C4.79086 21 3 19.2091 3 17V16C3 15.8895 3.08974 15.7998 3.2002 15.7998H7.93262C7.11481 15.2718 6.40299 14.5876 5.8418 13.7802C4.98533 12.548 4.51837 11.0874 4.50098 9.58688C4.48364 8.08637 4.91645 6.61494 5.74414 5.36325C6.57198 4.11148 7.75684 3.13685 9.14453 2.5654ZM4.2002 17C4.2002 18.5464 5.4536 19.7998 7 19.7998H17C18.5464 19.7998 19.7998 18.5464 19.7998 17H4.2002ZM9.73047 4.4902C10.6983 4.05176 11.7727 3.90254 12.8232 4.06149C13.1507 4.11123 13.3757 4.41756 13.3262 4.74508C13.2765 5.07254 12.9711 5.29746 12.6436 5.24801C11.8223 5.12374 10.9822 5.24022 10.2256 5.58297C9.4689 5.92581 8.82804 6.48116 8.37988 7.18063C7.93182 7.87999 7.69548 8.69381 7.7002 9.52438C7.70498 10.3551 7.95007 11.167 8.40625 11.8613C8.86238 12.5555 9.51003 13.1024 10.2705 13.4365C11.0311 13.7706 11.8725 13.8778 12.6924 13.7441C13.5122 13.6104 14.2757 13.2419 14.8906 12.6836C15.5056 12.1251 15.9463 11.3999 16.1582 10.5966C16.2429 10.2766 16.5705 10.0856 16.8906 10.1699C17.211 10.2544 17.4029 10.5829 17.3184 10.9033C17.0473 11.9306 16.4838 12.857 15.6973 13.5713C14.9107 14.2855 13.9343 14.7576 12.8857 14.9287C11.837 15.0997 10.7609 14.9625 9.78809 14.5351C8.81533 14.1078 7.98678 13.4084 7.40332 12.5205C6.81983 11.6325 6.50612 10.5938 6.5 9.53122C6.49396 8.46888 6.79606 7.42769 7.36914 6.53317C7.94237 5.63849 8.76261 4.92871 9.73047 4.4902ZM19.8418 3.30954C20.0761 3.07557 20.4562 3.07534 20.6904 3.30954C20.9246 3.54374 20.9244 3.92383 20.6904 4.15817L18.6396 6.20895L20.6904 8.25973C20.9245 8.49403 20.9246 8.87412 20.6904 9.10836C20.4562 9.3426 20.0761 9.34243 19.8418 9.10836L17.791 7.05758L15.7402 9.10836C15.5059 9.34258 15.1259 9.34265 14.8916 9.10836C14.6573 8.87408 14.6574 8.49406 14.8916 8.25973L16.9424 6.20895L14.8916 4.15817C14.6575 3.92384 14.6574 3.54378 14.8916 3.30954C15.1259 3.07539 15.5059 3.07546 15.7402 3.30954L17.791 5.36032L19.8418 3.30954Z" fill="#211A1E"/>
</svg>
