<svg width="24" height="24" viewBox="0 0 24 24" fill="none" xmlns="http://www.w3.org/2000/svg">
<path d="M12 8.00032C12.5251 8.00032 13.0451 8.10316 13.5303 8.30403C13.7834 8.40889 14.0246 8.54026 14.25 8.69368C14.446 8.56026 14.6538 8.44327 14.8721 8.34602C15.1747 8.21121 15.5302 8.3471 15.665 8.64973C15.7999 8.95244 15.6631 9.3069 15.3604 9.44173C14.9164 9.63951 14.532 9.95049 14.2441 10.3421C13.9563 10.7337 13.775 11.1934 13.7188 11.6761C13.6625 12.1588 13.7328 12.6478 13.9229 13.095C14.113 13.5424 14.417 13.9333 14.8037 14.2279C15.1903 14.5222 15.6473 14.7103 16.1289 14.7747C16.6105 14.8391 17.1004 14.7774 17.5508 14.595C18.0013 14.4126 18.3971 14.1162 18.6982 13.7347C18.9993 13.3531 19.1959 12.8989 19.2686 12.4183C19.3183 12.091 19.6238 11.866 19.9512 11.9154C20.2787 11.9649 20.5045 12.2704 20.4551 12.598C20.3512 13.2845 20.0707 13.9327 19.6406 14.4779C19.2105 15.023 18.6455 15.4466 18.002 15.7074C17.3584 15.968 16.6579 16.0562 15.9697 15.9642C15.2814 15.8721 14.6286 15.6027 14.0762 15.182C13.5238 14.7612 13.09 14.2038 12.8184 13.5648C12.5468 12.9258 12.4471 12.2271 12.5273 11.5374C12.6077 10.8477 12.8661 10.1907 13.2773 9.63118C13.2989 9.60182 13.3224 9.57395 13.3447 9.54524C13.2561 9.49669 13.165 9.45223 13.0713 9.41341C12.7316 9.27272 12.3677 9.19954 12 9.19954C11.6323 9.19954 11.2684 9.27272 10.9287 9.41341C10.8354 9.45206 10.7445 9.49596 10.6562 9.54427C11.1845 10.2222 11.5 11.0743 11.5 12.0003C11.4998 14.2093 9.70902 16.0003 7.5 16.0003C5.29098 16.0003 3.5002 14.2093 3.5 12.0003C3.5 9.79118 5.29086 8.00032 7.5 8.00032C8.33438 8.00032 9.10891 8.25571 9.75 8.6927C9.97532 8.53942 10.2167 8.40882 10.4697 8.30403C10.9549 8.10316 11.4749 8.00032 12 8.00032ZM7.5 9.19954C5.9536 9.19954 4.7002 10.4539 4.7002 12.0003C4.70039 13.5466 5.95372 14.8001 7.5 14.8001C9.04628 14.8001 10.2996 13.5466 10.2998 12.0003C10.2998 10.4539 9.0464 9.19954 7.5 9.19954ZM20.9785 5.14778C21.2128 4.91347 21.5928 4.91347 21.8271 5.14778C22.0614 5.3821 22.0615 5.76211 21.8271 5.99641L19.7998 8.02278L21.8271 10.0501C22.0614 10.2844 22.0613 10.6644 21.8271 10.8988C21.5928 11.1331 21.2128 11.1331 20.9785 10.8988L18.9512 8.87141L16.9238 10.8988C16.6895 11.133 16.3105 11.133 16.0762 10.8988C15.8419 10.6645 15.8419 10.2854 16.0762 10.0511L18.1025 8.02278L16.0762 5.99641C15.8419 5.7621 15.8419 5.3821 16.0762 5.14778C16.3104 4.91373 16.6896 4.91373 16.9238 5.14778L18.9512 7.17415L20.9785 5.14778Z" fill="#211A1E"/>
</svg>
