<svg width="24" height="24" viewBox="0 0 24 24" fill="none" xmlns="http://www.w3.org/2000/svg">
<path d="M20.1709 17.4293C20.5023 17.4293 20.7715 17.6976 20.7715 18.0289C20.7715 18.3603 20.5023 18.6285 20.1709 18.6285H14C14.0278 18.7635 14.042 18.9017 14.042 19.0406C14.042 19.3992 13.9478 19.7516 13.7686 20.0621C13.5893 20.3726 13.331 20.6299 13.0205 20.8092C12.71 20.9885 12.3576 21.0836 11.999 21.0836C11.6406 21.0836 11.288 20.9884 10.9775 20.8092C10.6673 20.63 10.4097 20.3724 10.2305 20.0621C10.0512 19.7516 9.95707 19.3992 9.95703 19.0406C9.95703 18.9017 9.97122 18.7635 9.99902 18.6285H3.82812C3.49693 18.6283 3.22852 18.3602 3.22852 18.0289C3.22853 17.6977 3.49694 17.4295 3.82812 17.4293H20.1709ZM11.042 18.6285C10.9862 18.7583 10.957 18.8985 10.957 19.0406C10.9571 19.2236 11.0052 19.4037 11.0967 19.5621C11.1882 19.7204 11.3192 19.8525 11.4775 19.944C11.636 20.0354 11.8161 20.0836 11.999 20.0836C12.1819 20.0836 12.3621 20.0353 12.5205 19.944C12.6789 19.8525 12.8108 19.7205 12.9023 19.5621C12.9938 19.4037 13.042 19.2236 13.042 19.0406C13.042 18.8985 13.0128 18.7583 12.957 18.6285H11.042ZM11.999 2.40002C12.3303 2.40002 12.5994 2.66844 12.5996 2.99963V4.72522C14.1573 4.86522 15.6244 5.54601 16.7393 6.66077C17.9964 7.91787 18.7021 9.62319 18.7021 11.401V16.151C18.7021 16.4824 18.4339 16.7516 18.1025 16.7516C17.7712 16.7515 17.5029 16.4823 17.5029 16.151V11.401C17.5029 9.94145 16.9227 8.54146 15.8906 7.5094C14.8586 6.47742 13.4585 5.89807 11.999 5.89807C10.5397 5.89817 9.14035 6.47758 8.1084 7.5094C7.07634 8.54146 6.49609 9.94145 6.49609 11.401V16.151C6.49609 16.4823 6.2277 16.7514 5.89648 16.7516C5.56511 16.7516 5.2959 16.4824 5.2959 16.151V11.401C5.2959 9.62319 6.00266 7.91787 7.25977 6.66077C8.37462 5.54603 9.84171 4.86516 11.3994 4.72522V2.99963C11.3996 2.66857 11.668 2.40024 11.999 2.40002Z" fill="#211A1E"/>
</svg>
