<svg width="24" height="24" viewBox="0 0 24 24" fill="none" xmlns="http://www.w3.org/2000/svg">
<path d="M3 15.6686C3.33133 15.6686 3.60052 15.9369 3.60059 16.2682V18.9996C3.60059 19.7727 4.22698 20.3998 5 20.4H7.73242C8.06351 20.4002 8.33182 20.6686 8.33203 20.9996C8.33203 21.3309 8.06364 21.6 7.73242 21.6002H5C3.56424 21.6 2.40039 20.4354 2.40039 18.9996V16.2682C2.40046 15.937 2.66885 15.6688 3 15.6686ZM21 15.6686C21.3313 15.6686 21.6005 15.9369 21.6006 16.2682V18.9996C21.6006 20.4356 20.4359 21.6002 19 21.6002H16.2686C15.9372 21.6002 15.6689 21.331 15.6689 20.9996C15.6692 20.6685 15.9374 20.4001 16.2686 20.4H19C19.7732 20.4 20.4004 19.7728 20.4004 18.9996V16.2682C20.4005 15.937 20.6689 15.6688 21 15.6686ZM10.8008 12.6002C11.1319 12.6004 11.4003 12.8687 11.4004 13.1998V17.9996C11.4004 18.3309 11.132 18.6 10.8008 18.6002H6C5.66881 18.6 5.40039 18.3309 5.40039 17.9996V13.1998C5.4005 12.8687 5.66887 12.6004 6 12.6002H10.8008ZM14.4004 16.1998C14.7318 16.1998 15 16.469 15 16.8004V17.9996C15 18.331 14.7318 18.6002 14.4004 18.6002H13.2002C12.8689 18.6001 12.6006 18.3309 12.6006 17.9996V16.8004C12.6006 16.4691 12.8689 16.1999 13.2002 16.1998H14.4004ZM18 16.1998C18.3314 16.1998 18.6006 16.469 18.6006 16.8004V17.9996C18.6006 18.331 18.3314 18.6002 18 18.6002H16.8008C16.4694 18.6002 16.2002 18.331 16.2002 17.9996V16.8004C16.2002 16.469 16.4694 16.1998 16.8008 16.1998H18ZM6.60059 17.4H10.2002V13.8004H6.60059V17.4ZM14.4004 12.6002C14.7317 12.6002 14.9999 12.8685 15 13.1998V14.4C15 14.7314 14.7318 14.9996 14.4004 14.9996H13.2002C12.8689 14.9995 12.6006 14.7313 12.6006 14.4V13.1998C12.6007 12.8686 12.869 12.6003 13.2002 12.6002H14.4004ZM18 12.6002C18.3313 12.6002 18.6005 12.8685 18.6006 13.1998V14.4C18.6006 14.7314 18.3314 14.9996 18 14.9996H16.8008C16.4694 14.9996 16.2002 14.7314 16.2002 14.4V13.1998C16.2003 12.8685 16.4695 12.6002 16.8008 12.6002H18ZM10.8008 5.40002C11.1318 5.40024 11.4002 5.66857 11.4004 5.99963V10.8004C11.4002 11.1315 11.1318 11.3998 10.8008 11.4H6C5.66894 11.3998 5.4006 11.1315 5.40039 10.8004V5.99963C5.4006 5.66857 5.66894 5.40024 6 5.40002H10.8008ZM18 5.40002C18.3312 5.40002 18.6004 5.66844 18.6006 5.99963V10.8004C18.6004 11.1316 18.3312 11.4 18 11.4H13.2002C12.869 11.3999 12.6008 11.1315 12.6006 10.8004V5.99963C12.6008 5.66851 12.869 5.40013 13.2002 5.40002H18ZM6.60059 10.1998H10.2002V6.60022H6.60059V10.1998ZM13.8008 10.1998H17.4004V6.60022H13.8008V10.1998ZM7.73242 2.40002C8.06351 2.4002 8.33182 2.66855 8.33203 2.99963C8.33203 3.3309 8.06364 3.60004 7.73242 3.60022H5C4.22711 3.60043 3.6008 4.22674 3.60059 4.99963V7.73206C3.60041 8.06328 3.33126 8.33167 3 8.33167C2.66892 8.33145 2.40057 8.06315 2.40039 7.73206V4.99963C2.4006 3.564 3.56437 2.40024 5 2.40002H7.73242ZM19 2.40002C20.4358 2.40002 21.6004 3.56387 21.6006 4.99963V7.73206C21.6004 8.06328 21.3313 8.33167 21 8.33167C20.6689 8.33145 20.4006 8.06315 20.4004 7.73206V4.99963C20.4002 4.22661 19.7731 3.60022 19 3.60022H16.2686C15.9372 3.60015 15.6689 3.33096 15.6689 2.99963C15.6692 2.66849 15.9374 2.40009 16.2686 2.40002H19Z" fill="#211A1E"/>
</svg>
