<svg width="24" height="24" viewBox="0 0 24 24" fill="none" xmlns="http://www.w3.org/2000/svg">
<rect width="24" height="24" fill="white"/>
<path fill-rule="evenodd" clip-rule="evenodd" d="M10 13.5C13.866 13.5 17 13.9437 17 17C17 20.0563 13.866 20.5 10 20.5C6.13401 20.5 3 20.0563 3 17C3 13.9437 6.13401 13.5 10 13.5ZM10 14.7002C8.05973 14.7002 6.5186 14.8206 5.48535 15.2227C4.99346 15.4141 4.69218 15.642 4.50977 15.8848C4.33629 16.1156 4.2002 16.4519 4.2002 17C4.2002 17.5481 4.33629 17.8844 4.50977 18.1152C4.69218 18.358 4.99346 18.5859 5.48535 18.7773C6.5186 19.1794 8.05973 19.2998 10 19.2998C11.9403 19.2998 13.4814 19.1794 14.5146 18.7773C15.0065 18.5859 15.3078 18.358 15.4902 18.1152C15.6637 17.8844 15.7998 17.5481 15.7998 17C15.7998 16.4519 15.6637 16.1156 15.4902 15.8848C15.3078 15.642 15.0065 15.4141 14.5146 15.2227C13.4814 14.8206 11.9403 14.7002 10 14.7002Z" fill="#211A1E"/>
<path d="M18.8193 12.2793C18.5347 12.2789 18.3037 12.0484 18.3037 11.7637V10.0361H16.4502C16.2017 10.0361 16 9.83447 16 9.58594C16 9.33744 16.2017 9.13574 16.4502 9.13574H18.3037V7.51562C18.3039 7.23082 18.5355 7 18.8203 7C19.105 7.00017 19.3357 7.23092 19.3359 7.51562V9.13574H21.1904C21.4387 9.13597 21.6396 9.33758 21.6396 9.58594C21.6396 9.83432 21.4388 10.0359 21.1904 10.0361H19.3359V11.7637C19.3359 12.0487 19.1043 12.2793 18.8193 12.2793Z" fill="#211A1E"/>
<path fill-rule="evenodd" clip-rule="evenodd" d="M10 3C12.4853 3 14.5 5.01472 14.5 7.5C14.5 9.98528 12.4853 12 10 12C7.51472 12 5.5 9.98528 5.5 7.5C5.5 5.01472 7.51472 3 10 3ZM10 4.2002C8.17746 4.2002 6.7002 5.67746 6.7002 7.5C6.7002 9.32254 8.17746 10.7998 10 10.7998C11.8225 10.7998 13.2998 9.32254 13.2998 7.5C13.2998 5.67746 11.8225 4.2002 10 4.2002Z" fill="#211A1E"/>
</svg>
