<svg width="24" height="24" viewBox="0 0 24 24" fill="none" xmlns="http://www.w3.org/2000/svg">
<path fill-rule="evenodd" clip-rule="evenodd" d="M11.6577 8.87364C11.8134 8.61663 12.1863 8.61663 12.3419 8.87364L13.1321 10.178C13.1878 10.27 13.2782 10.3357 13.3828 10.3602L14.8676 10.7086C15.1601 10.7772 15.2753 11.1319 15.079 11.3594L14.0826 12.5139C14.0124 12.5953 13.9778 12.7016 13.9868 12.8087L14.1143 14.3284C14.1394 14.6278 13.8378 14.847 13.5607 14.7306L12.1548 14.1398C12.0557 14.0981 11.944 14.0981 11.8448 14.1398L10.4389 14.7306C10.1619 14.847 9.86021 14.6278 9.88533 14.3284L10.0128 12.8087C10.0218 12.7016 9.98726 12.5953 9.91702 12.5139L8.92063 11.3594C8.72431 11.1319 8.83953 10.7772 9.13207 10.7086L10.6168 10.3602C10.7215 10.3357 10.8118 10.27 10.8675 10.178L11.6577 8.87364ZM11.7229 10.6961L11.9998 10.2389L12.2768 10.6961C12.4717 11.018 12.788 11.2478 13.1544 11.3338L13.6748 11.4559L13.3256 11.8606C13.0797 12.1454 12.9589 12.5173 12.9903 12.8923L13.035 13.4249L12.5422 13.2179C12.1953 13.0721 11.8043 13.0721 11.4574 13.2179L10.9646 13.4249L11.0093 12.8923C11.0408 12.5173 10.9199 12.1454 10.6741 11.8606L10.3248 11.4559L10.8452 11.3338C11.2116 11.2478 11.5279 11.018 11.7229 10.6961Z" fill="#211A1E"/>
<path fill-rule="evenodd" clip-rule="evenodd" d="M2 7C2 5.89543 2.89543 5 4 5H20C21.1046 5 22 5.89543 22 7V10.0757C22 10.3244 21.7488 10.5 21.5 10.5C20.6716 10.5 20 11.1716 20 12C20 12.8284 20.6716 13.5 21.5 13.5C21.7488 13.5 22 13.6756 22 13.9243V17C22 18.1046 21.1046 19 20 19H4C2.89543 19 2 18.1046 2 17V13.9243C2 13.6756 2.25125 13.5 2.5 13.5C3.32843 13.5 4 12.8284 4 12C4 11.1716 3.32843 10.5 2.5 10.5C2.25125 10.5 2 10.3244 2 10.0757V7ZM3.2 7C3.2 6.55817 3.55817 6.2 4 6.2H20C20.4418 6.2 20.8 6.55817 20.8 7V9.39163C19.6482 9.69996 18.8 10.7509 18.8 12C18.8 13.2491 19.6482 14.3 20.8 14.6084V17C20.8 17.4418 20.4418 17.8 20 17.8H4C3.55817 17.8 3.2 17.4418 3.2 17V14.6084C4.35182 14.3 5.2 13.2491 5.2 12C5.2 10.7509 4.35182 9.69996 3.2 9.39163V7Z" fill="#211A1E"/>
</svg>
