<svg width="24" height="24" viewBox="0 0 24 24" fill="none" xmlns="http://www.w3.org/2000/svg">
<path d="M14.434 3.41406L14.5697 3.45605L14.6947 3.52539C14.7142 3.53899 14.7333 3.55366 14.7514 3.56934L14.8041 3.62012L14.852 3.67676C14.8814 3.71613 14.9065 3.75927 14.9272 3.80469L14.9545 3.875L14.974 3.94824C14.9895 4.02252 14.9927 4.0998 14.9828 4.17578C14.9813 4.18754 14.9792 4.19929 14.977 4.21094L13.9262 9.68555H18.0004C18.2341 9.68567 18.4472 9.82205 18.5453 10.0342C18.6431 10.2462 18.6085 10.4958 18.4574 10.6738L10.2348 20.3545L10.2328 20.3535C10.1691 20.4293 10.0918 20.4907 10.0053 20.5322C9.91159 20.5771 9.80871 20.5985 9.70646 20.5986C9.61073 20.5987 9.515 20.5802 9.42619 20.541C9.33702 20.5016 9.25562 20.4426 9.18888 20.3672C9.12207 20.2915 9.07165 20.2006 9.04338 20.1006C9.01512 20.0004 9.00974 19.8947 9.02873 19.792L9.0297 19.7881L10.0756 14.3145H6.00041C5.76661 14.3145 5.55369 14.178 5.45548 13.9658C5.35758 13.7537 5.39215 13.5043 5.54338 13.3262L13.766 3.64746V3.64844C13.8291 3.57306 13.906 3.51257 13.9916 3.4707C14.0864 3.42446 14.1906 3.40078 14.2944 3.40039L14.434 3.41406ZM7.29728 13.1143H10.8002C10.9789 13.1144 11.1492 13.1943 11.2631 13.332C11.3768 13.4698 11.4236 13.6517 11.3901 13.8271L10.5736 18.1006L16.7035 10.8857H13.2006C13.0217 10.8857 12.8517 10.8058 12.7377 10.668C12.6238 10.5301 12.5771 10.3485 12.6108 10.1729L13.432 5.89258L7.29728 13.1143Z" fill="#211A1E"/>
</svg>
