<svg width="24" height="24" viewBox="0 0 24 24" fill="none" xmlns="http://www.w3.org/2000/svg">
<circle cx="12" cy="12" r="2.9" stroke="#211A1E" stroke-width="1.2"/>
<path d="M11 2.59961H13C13.7732 2.59961 14.4004 3.2268 14.4004 4V5.19531C14.4004 6.45188 15.782 7.21842 16.8477 6.55273L17.5908 6.08789C18.2548 5.673 19.1302 5.8835 19.5332 6.55469L20.4746 8.125C20.8672 8.77949 20.6638 9.62771 20.0166 10.0322L19.0391 10.6436C18.0364 11.2702 18.0364 12.7298 19.0391 13.3564L20.0166 13.9678C20.6638 14.3723 20.8672 15.2205 20.4746 15.875L19.5332 17.4453C19.1302 18.1165 18.2548 18.327 17.5908 17.9121L16.8477 17.4473C15.782 16.7816 14.4004 17.5481 14.4004 18.8047V20C14.4004 20.7732 13.7732 21.4004 13 21.4004H11C10.2268 21.4004 9.59961 20.7732 9.59961 20V18.6904C9.59957 17.4738 8.29578 16.7022 7.22949 17.2881L6.18848 17.8604C5.51804 18.2284 4.67612 17.99 4.29785 17.3252L3.4707 15.8711C3.09948 15.2186 3.30872 14.3891 3.94531 13.9912L5.08105 13.2822C6.03411 12.6866 6.09247 11.3189 5.19336 10.6445L3.87402 9.65527C3.27963 9.20947 3.13673 8.37702 3.54883 7.75879L4.42188 6.44824C4.84194 5.81845 5.68711 5.63684 6.3291 6.03809L7.15234 6.55273C8.21798 7.21842 9.59961 6.45188 9.59961 5.19531V4C9.59961 3.2268 10.2268 2.59961 11 2.59961Z" stroke="#211A1E" stroke-width="1.2"/>
</svg>
