<svg width="24" height="24" viewBox="0 0 24 24" fill="none" xmlns="http://www.w3.org/2000/svg">
<path d="M7.29195 4.4472C7.68247 4.05668 8.31646 4.05668 8.70699 4.4472L13.1884 8.92865C13.4227 9.16297 13.4227 9.54297 13.1884 9.77728C12.9541 10.0116 12.5741 10.0116 12.3398 9.77728L8.59956 6.03705V19.412C8.59941 19.7433 8.33026 20.0117 7.99898 20.0117C7.66791 20.0114 7.39952 19.7431 7.39937 19.412V6.03607L3.65913 9.77728C3.42484 10.0116 3.04482 10.0115 2.8105 9.77728C2.57619 9.54297 2.57619 9.16296 2.8105 8.92865L7.29195 4.4472ZM15.999 3.98822C16.3302 3.98822 16.5994 4.25664 16.5996 4.58783V17.9628L20.3398 14.2226C20.5741 13.9884 20.9541 13.9884 21.1884 14.2226C21.4227 14.4569 21.4227 14.8369 21.1884 15.0712L16.707 19.5536C16.3165 19.9441 15.6825 19.9441 15.2919 19.5536L10.8105 15.0712C10.5762 14.8369 10.5762 14.4569 10.8105 14.2226C11.0448 13.9884 11.4249 13.9883 11.6591 14.2226L15.3994 17.9628V4.58783C15.3996 4.25679 15.6679 3.98846 15.999 3.98822Z" fill="#211A1E"/>
</svg>
