<svg width="24" height="24" viewBox="0 0 24 24" fill="none" xmlns="http://www.w3.org/2000/svg">
<path d="M7.96484 7.13184H16.499V8.92188H7.96484V16.2832C7.96486 18.9223 9.431 20.1846 11.6885 20.1846C13.9173 20.1845 15.4111 18.9543 15.4111 16.2832V15.9619H17.3164V16.2832C17.3164 20.0956 15.0298 22 11.6846 22C8.31804 21.9964 6 20.0916 6 16.2793V2H7.96484V7.13184ZM13.249 11.8086C13.5967 11.8259 13.9241 11.9798 14.1582 12.2373C14.3922 12.4948 14.5148 12.835 14.499 13.1826C14.4989 14.0327 13.6267 14.9974 12.9131 15.6445C12.3897 16.1189 11.6101 16.1183 11.0869 15.6436C10.3733 14.996 9.50114 14.0312 9.50098 13.1826C9.48519 12.835 9.6078 12.4948 9.8418 12.2373C10.0759 11.9798 10.4033 11.8259 10.751 11.8086C11.0985 11.826 11.4251 11.9798 11.6592 12.2373C11.8933 12.4948 12.0158 12.8349 12 13.1826C11.9842 12.8349 12.1067 12.4948 12.3408 12.2373C12.5749 11.9798 12.9015 11.826 13.249 11.8086Z" fill="#211A1E"/>
</svg>
