<svg width="24" height="24" viewBox="0 0 24 24" fill="none" xmlns="http://www.w3.org/2000/svg">
<path fill-rule="evenodd" clip-rule="evenodd" d="M11.1929 10.104C11.5924 9.55769 12.4079 9.55768 12.8073 10.104L13.6324 11.2325C13.7559 11.4013 13.9291 11.5272 14.1278 11.5924L15.456 12.0284C16.099 12.2395 16.351 13.0151 15.9549 13.5638L15.1366 14.6972C15.0142 14.8668 14.948 15.0704 14.9474 15.2796L14.9432 16.6775C14.9411 17.3543 14.2814 17.8336 13.637 17.6264L12.3062 17.1985C12.1072 17.1345 11.893 17.1345 11.694 17.1985L10.3632 17.6264C9.71884 17.8336 9.05909 17.3543 9.05704 16.6775L9.05281 15.2796C9.05217 15.0704 8.986 14.8668 8.86361 14.6972L8.04536 13.5638C7.64919 13.0151 7.90119 12.2395 8.54426 12.0284L9.87244 11.5924C10.0711 11.5272 10.2444 11.4013 10.3678 11.2325L11.1929 10.104ZM11.3365 11.9408L12.0001 11.0331L12.6638 11.9408C12.9353 12.3121 13.3164 12.589 13.7535 12.7325L14.8218 13.0832L14.1637 13.9948C13.8944 14.3678 13.7488 14.8159 13.7474 15.2759L13.744 16.4003L12.6736 16.0561C12.2357 15.9153 11.7646 15.9153 11.3266 16.0561L10.2562 16.4003L10.2528 15.2759C10.2514 14.8159 10.1058 14.3678 9.83656 13.9948L9.17842 13.0832L10.2467 12.7325C10.6838 12.589 11.0649 12.3121 11.3365 11.9408Z" fill="#211A1E"/>
<path fill-rule="evenodd" clip-rule="evenodd" d="M6.82588 2.32576C7.47809 1.67355 8.40766 1.40002 9.50015 1.40002H14.5001C15.5926 1.40002 16.5222 1.67355 17.1744 2.32576C17.8266 2.97797 18.1001 3.90754 18.1001 5.00002V7.39337L18.3201 7.52031C18.3322 7.5273 18.3441 7.53471 18.3556 7.54252L18.3753 7.55576C18.7886 7.83451 19.1271 8.06276 19.387 8.26867C19.6552 8.48103 19.8829 8.70203 20.0448 8.98253C20.2101 9.2689 20.2788 9.56818 20.3104 9.8911C20.3402 10.1946 20.3402 10.5609 20.3402 10.9921V16.0178C20.3402 16.4491 20.3402 16.8153 20.3104 17.1188C20.2788 17.4417 20.2101 17.741 20.0448 18.0274C19.8829 18.3079 19.6552 18.5289 19.387 18.7413C19.127 18.9472 18.7886 19.1754 18.3752 19.4542L18.3556 19.4674C18.3441 19.4752 18.3322 19.4826 18.3201 19.4896L13.5902 22.2196C13.122 22.4899 12.5443 22.6075 12.0002 22.6075C11.4561 22.6075 10.8784 22.49 10.4102 22.2196L5.68023 19.4896C5.66812 19.4826 5.65626 19.4752 5.64467 19.4674L5.62506 19.4542C5.21173 19.1754 4.87327 18.9472 4.61327 18.7413C4.34513 18.5289 4.1174 18.3079 3.9555 18.0274C3.79022 17.741 3.72156 17.4417 3.6899 17.1188C3.66013 16.8153 3.66014 16.4491 3.66016 16.0179V10.9921C3.66014 10.5609 3.66013 10.1946 3.6899 9.8911C3.72156 9.56818 3.79022 9.2689 3.9555 8.98253C4.1174 8.70203 4.34513 8.48103 4.61327 8.26867C4.87326 8.06276 5.21172 7.83451 5.62503 7.55577L5.64467 7.54252C5.65626 7.53471 5.66812 7.5273 5.68023 7.52031L5.90015 7.39338V5.00002C5.90015 3.90754 6.17368 2.97797 6.82588 2.32576ZM16.9001 5.00002V6.70077L13.5902 4.79038C13.122 4.52 12.5443 4.40247 12.0002 4.40247C11.4561 4.40247 10.8783 4.52005 10.4101 4.79038L7.10015 6.70078V5.00002C7.10015 4.09251 7.32662 3.52208 7.67441 3.17429C8.0222 2.8265 8.59263 2.60002 9.50015 2.60002H14.5001C15.4077 2.60002 15.9781 2.8265 16.3259 3.17429C16.6737 3.52208 16.9001 4.09251 16.9001 5.00002ZM12.0002 5.60247C11.6093 5.60247 11.252 5.68993 11.0102 5.82956L6.29825 8.54914C5.86993 8.83803 5.57503 9.03773 5.3583 9.20938C5.14268 9.38015 5.04791 9.4904 4.99481 9.5824C4.9451 9.66853 4.90625 9.783 4.88417 10.0082C4.86082 10.2463 4.86016 10.5533 4.86016 11.02V15.99C4.86016 16.4566 4.86082 16.7636 4.88417 17.0017C4.90625 17.2269 4.9451 17.3414 4.99481 17.4275C5.04791 17.5195 5.14268 17.6298 5.3583 17.8005C5.57503 17.9722 5.86993 18.1719 6.29826 18.4608L11.0101 21.1803C11.2519 21.3199 11.6093 21.4075 12.0002 21.4075C12.391 21.4075 12.7483 21.32 12.9901 21.1804L17.7021 18.4608C18.1304 18.1719 18.4253 17.9722 18.642 17.8005C18.8576 17.6298 18.9524 17.5195 19.0055 17.4275C19.0552 17.3414 19.0941 17.2269 19.1161 17.0017C19.1395 16.7636 19.1402 16.4566 19.1402 15.99V11.02C19.1402 10.5533 19.1395 10.2463 19.1161 10.0082C19.0941 9.783 19.0552 9.66853 19.0055 9.5824C18.9524 9.4904 18.8576 9.38015 18.642 9.20938C18.4253 9.03773 18.1304 8.83802 17.7021 8.54913L12.9902 5.82962C12.7484 5.69 12.391 5.60247 12.0002 5.60247Z" fill="#211A1E"/>
</svg>
