<svg width="24" height="24" viewBox="0 0 24 24" fill="none" xmlns="http://www.w3.org/2000/svg">
<path d="M15.9488 17.1C15.6177 17.0998 15.3494 16.8315 15.3492 16.5004C15.3492 16.1691 15.6176 15.9 15.9488 15.8998L17.8844 15.8998C19.7453 15.8998 21.2611 14.4041 21.2848 12.5433L21.3483 7.54334C21.3724 5.64895 19.8433 4.1002 17.9488 4.09998L5.99962 4.09998C4.12189 4.10002 2.59923 5.62262 2.59923 7.50037L2.59923 12.5004C2.59941 14.378 4.122 15.8997 5.99962 15.8998L7.89903 15.8998C8.2304 15.8998 8.49962 16.169 8.49962 16.5004C8.49944 16.8316 8.23029 17.1 7.89903 17.1L5.99962 17.1C3.45926 17.0999 1.40019 15.0407 1.40001 12.5004L1.40001 7.50037C1.40001 4.95988 3.45915 2.89982 5.99962 2.89978L17.9488 2.89978C20.5121 2.90001 22.5811 4.99589 22.5484 7.55896L22.484 12.559C22.4518 15.0763 20.4019 17.1 17.8844 17.1L15.9488 17.1ZM11.9996 21.6C11.6684 21.5999 11.4002 21.3316 11.4 21.0004L11.4 8.61951L9.59532 10.4242C9.361 10.6585 8.98099 10.6585 8.74669 10.4242C8.51266 10.1899 8.51252 9.80979 8.74669 9.57556L11.151 7.17127C11.6196 6.70278 12.3796 6.70287 12.8483 7.17127L15.2525 9.57556C15.4868 9.80983 15.4867 10.1899 15.2525 10.4242C15.0182 10.6585 14.6382 10.6585 14.4039 10.4242L12.5992 8.61951L12.5992 21.0004C12.5991 21.3316 12.3309 21.6 11.9996 21.6Z" fill="#211A1E"/>
</svg>
