<svg width="24" height="24" viewBox="0 0 24 24" fill="none" xmlns="http://www.w3.org/2000/svg">
<path d="M21 13.8395C21.3314 13.8395 21.6006 14.1077 21.6006 14.4391V15.9996C21.6006 18.5401 19.5405 20.6002 17 20.6002H7C4.45967 20.6 2.40039 18.54 2.40039 15.9996V14.4391C2.40041 14.1079 2.66882 13.8397 3 13.8395C3.33136 13.8395 3.60057 14.1077 3.60059 14.4391V15.9996C3.60059 17.8773 5.12241 19.3998 7 19.4H17C18.8778 19.4 20.4004 17.8774 20.4004 15.9996V14.4391C20.4004 14.1078 20.6688 13.8397 21 13.8395ZM13.6475 3.40002C14.1997 3.40013 14.6475 3.84781 14.6475 4.40002V5.32483C14.6475 5.5456 14.8261 5.72501 15.0469 5.72522H16C16.0101 5.72522 16.0203 5.72766 16.0303 5.72815H17.5918C19.8007 5.7284 21.5918 7.51916 21.5918 9.72815V10.9117C21.5918 11.1813 21.4844 11.4413 21.2842 11.6217C19.5188 13.2127 16.3946 15.0199 12.6523 15.2272V17.4342C12.6523 17.7655 12.384 18.0346 12.0527 18.0348C11.7214 18.0348 11.4521 17.7656 11.4521 17.4342V15.2379C8.73526 15.1327 5.7509 14.1416 2.75684 11.6315C2.53643 11.4466 2.40918 11.1682 2.40918 10.8805V9.72815C2.40918 7.5191 4.20017 5.7283 6.40918 5.72815H7.96973C7.9798 5.72764 7.9898 5.72523 8 5.72522H8.97266C9.19351 5.72516 9.37206 5.5457 9.37207 5.32483V4.40002C9.37207 3.8479 9.82001 3.40028 10.3721 3.40002H13.6475ZM6.40918 6.92737C4.86291 6.92752 3.60938 8.18185 3.60938 9.72815V10.7799C7.16728 13.7282 10.6302 14.3385 13.5479 13.9371C16.4763 13.5341 18.9275 12.0985 20.3916 10.8092V9.72815C20.3916 8.1819 19.138 6.92762 17.5918 6.92737H6.40918ZM10.5723 5.32483C10.5723 5.4643 10.5531 5.59917 10.5195 5.72815H13.501C13.4674 5.59912 13.4473 5.46436 13.4473 5.32483V4.60022H10.5723V5.32483Z" fill="#211A1E"/>
</svg>
