<svg width="20" height="20" viewBox="0 0 20 20" fill="none" xmlns="http://www.w3.org/2000/svg">
<path d="M7.08317 15.8333C6.83594 15.8333 6.59427 15.9067 6.38871 16.044C6.18315 16.1814 6.02293 16.3766 5.92832 16.605C5.83371 16.8334 5.80896 17.0847 5.85719 17.3272C5.90542 17.5697 6.02447 17.7924 6.19929 17.9672C6.3741 18.142 6.59683 18.2611 6.83931 18.3093C7.08178 18.3576 7.33312 18.3328 7.56152 18.2382C7.78993 18.1436 7.98516 17.9834 8.12251 17.7778C8.25986 17.5722 8.33317 17.3306 8.33317 17.0833C8.33317 16.7518 8.20147 16.4339 7.96705 16.1995C7.73263 15.965 7.41469 15.8333 7.08317 15.8333ZM14.5832 15.8333C14.3359 15.8333 14.0943 15.9067 13.8887 16.044C13.6831 16.1814 13.5229 16.3766 13.4283 16.605C13.3337 16.8334 13.309 17.0847 13.3572 17.3272C13.4054 17.5697 13.5245 17.7924 13.6993 17.9672C13.8741 18.142 14.0968 18.2611 14.3393 18.3093C14.5818 18.3576 14.8331 18.3328 15.0615 18.2382C15.2899 18.1436 15.4852 17.9834 15.6225 17.7778C15.7599 17.5722 15.8332 17.3306 15.8332 17.0833C15.8332 16.7518 15.7015 16.4339 15.4671 16.1995C15.2326 15.965 14.9147 15.8333 14.5832 15.8333ZM18.0165 5.69168C17.8622 5.47782 17.6594 5.30361 17.4248 5.18337C17.1901 5.06313 16.9302 5.00029 16.6665 5.00002H5.48317L5.1415 3.73335C5.04588 3.3782 4.83547 3.06466 4.54305 2.84157C4.25063 2.61849 3.89263 2.4984 3.52484 2.50002H2.49984C2.27882 2.50002 2.06686 2.58781 1.91058 2.74409C1.7543 2.90037 1.6665 3.11234 1.6665 3.33335C1.6665 3.55436 1.7543 3.76632 1.91058 3.9226C2.06686 4.07889 2.27882 4.16668 2.49984 4.16668H3.52484L5.88317 12.9C5.9725 13.2614 6.18022 13.5824 6.47322 13.812C6.76621 14.0415 7.12762 14.1664 7.49984 14.1667H14.7248C15.0738 14.1653 15.4136 14.0543 15.6962 13.8495C15.9788 13.6446 16.1899 13.3563 16.2998 13.025L18.2498 7.19168C18.3325 6.94104 18.3544 6.67436 18.3139 6.41357C18.2733 6.15279 18.1714 5.90538 18.0165 5.69168V5.69168Z" fill="#141414"/>
</svg>
