<svg width="32" height="32" viewBox="0 0 32 32" fill="none" xmlns="http://www.w3.org/2000/svg">
<g clip-path="url(#clip0_16_309)">
<rect width="32" height="32" rx="16" fill="#3900AD"/>
<path d="M11.3039 9.64981H10.7705C9.75837 9.64981 9.20548 10.2205 9.20548 11.3621V16.8679C9.20548 18.2854 8.72667 18.7828 7.60341 18.7828C6.71985 18.7828 6.00193 18.3959 5.43096 17.6963C5.37556 17.6228 4.21615 18.1748 4.21615 19.5378C4.21615 21.0107 5.5963 21.9132 8.15689 21.9132C11.268 21.9132 12.9077 20.3479 12.9077 16.9233V11.3621C12.9059 10.222 12.3536 9.64981 11.3039 9.64981ZM23.7039 12.3381C20.6837 12.3381 18.6769 14.2531 18.6769 17.1085C18.6769 20.0365 20.6096 21.915 23.6482 21.915C26.6674 21.915 28.6556 20.0365 28.6556 17.1274C28.6573 14.2531 26.6867 12.3381 23.7039 12.3381ZM23.6668 19.206C22.4879 19.206 21.6781 18.3408 21.6781 17.107C21.6781 15.8922 22.5077 15.0264 23.6668 15.0264C24.8259 15.0264 25.6553 15.8922 25.6553 17.1257C25.6556 18.3221 24.8087 19.206 23.6671 19.206H23.6668ZM16.1252 12.43H15.7563C14.8547 12.43 14.1735 12.8531 14.1735 14.1425V20.0347C14.1735 21.3423 14.8366 21.7476 15.7936 21.7476H16.1622C17.0644 21.7476 17.7086 21.3052 17.7086 20.0347V14.1425C17.7086 12.8169 17.0831 12.43 16.1252 12.43ZM15.9228 8.15884C14.7809 8.15884 14.063 8.80358 14.063 9.81633C14.063 10.8468 14.7999 11.4913 15.9779 11.4913C17.1196 11.4913 17.8378 10.8468 17.8378 9.81633C17.8378 8.78581 17.1012 8.15884 15.9228 8.15884Z" fill="white"/>
</g>
<defs>
<clipPath id="clip0_16_309">
<path d="M0 16C0 7.16344 7.16344 0 16 0C24.8366 0 32 7.16344 32 16C32 24.8366 24.8366 32 16 32C7.16344 32 0 24.8366 0 16Z" fill="white"/>
</clipPath>
</defs>
</svg>
