<svg width="32" height="32" viewBox="0 0 32 32" fill="none" xmlns="http://www.w3.org/2000/svg">
  <rect width="32" height="32" rx="8" fill="#008344"/>
  <path d="M9 11.5C9 10.1193 10.1193 9 11.5 9H20.5C21.8807 9 23 10.1193 23 11.5V13H9V11.5Z" fill="white"/>
  <path d="M8 13.5C8 12.9477 8.44772 12.5 9 12.5H23C23.5523 12.5 24 12.9477 24 13.5V14.5C24 18.0899 21.0899 21 17.5 21H14.5C10.9101 21 8 18.0899 8 14.5V13.5Z" fill="white"/>
  <path d="M13 17.25C13 16.8358 13.3358 16.5 13.75 16.5H18.25C18.6642 16.5 19 16.8358 19 17.25C19 17.6642 18.6642 18 18.25 18H13.75C13.3358 18 13 17.6642 13 17.25Z" fill="#008344"/>
</svg>
