<svg width="95" height="95" viewBox="0 0 95 95" fill="none" xmlns="http://www.w3.org/2000/svg">
<g clip-path="url(#clip0_1_122)">
<path d="M69.4741 43.1424C84.9759 45.6871 94.19 33.4513 82.735 16.9698C78.4905 11.221 72.1764 6.55349 65.4273 4.1406C57.9795 1.47719 50.8614 1.92548 46.3664 5.31408C33.5668 14.9656 48.6732 39.7274 69.4741 43.1424ZM56.6482 14.7547C57.5841 7.70059 68.8809 7.54237 75.9332 16.4951C76.0255 16.4819 76.1177 16.4687 76.1968 16.4687C76.1045 16.4819 76.0123 16.4951 75.92 16.4951C76.9482 17.8796 78.1873 20.0419 78.3323 22.5076C78.4509 24.6172 77.66 26.4895 76.1441 27.6234C69.54 32.6074 55.5145 23.3514 56.6482 14.7547Z" fill="black"/>
<path d="M93.8209 38.3957C93.2541 35.5081 93.0959 35.0335 91.9227 31.2889L91.2373 29.4693C92.0018 31.5526 93.4386 35.4422 93.3859 40.057C93.1355 62.8542 60.1677 64.2518 39.1032 42.3644C20.9914 23.5492 23.4564 -1.46313 50.6768 -0.316016L48.1986 -0.447867C45.18 -0.487423 44.8373 -0.447868 40.6191 -0.0259417C36.8491 0.567392 36.2032 0.751984 31.985 1.99139C30.6009 2.47924 28.7818 3.21761 27.4241 3.77139C12.5023 10.6277 11.1182 29.7066 24.2868 47.2034C45.2327 75.0373 89.1545 82.8825 94.2823 52.8071C94.4536 50.9612 94.5723 48.4824 94.625 46.6232C94.5195 43.1028 94.4273 42.4699 93.8209 38.3957Z" fill="black"/>
<path d="M87.3091 72.4662L86.7291 73.3232C86.9268 73.0464 87.1114 72.7563 87.3091 72.4662Z" fill="black"/>
<path d="M68.9073 83.1199C35.0564 87.4182 -9.76182 43.617 10.8414 16.271L8.73227 18.9344C5.76636 23.2987 5.19955 24.4326 3.275 28.5332C2.57637 30.3396 1.74591 32.792 1.16591 34.6379C-6.42682 66.7175 43.7695 103.531 72.7564 87.1545C75.92 85.0449 76.3682 84.6493 79.9009 81.5244C82.1155 79.3753 82.3 79.1511 85.3714 75.2879L86.7159 73.3101C81.8518 80.14 74.4041 82.421 68.9073 83.1199Z" fill="black"/>
<path d="M0.427729 56.5517C0.902274 58.8459 0.955002 59.0041 2.19409 62.9333C3.03773 65.2671 3.16955 65.5572 4.81728 68.9985C6.45182 72.0179 6.86046 72.5981 8.82455 75.4197C9.95818 76.9492 10.0505 77.0547 12.3441 79.6521C13.5173 80.9179 13.57 80.9575 16.0218 83.1858C17.2609 84.2538 17.2609 84.2538 19.9105 86.192C21.255 87.1281 21.255 87.1281 24.0759 88.7763C25.5655 89.5938 25.5655 89.5938 28.6105 90.9782C30.2977 91.6902 30.2977 91.6902 33.6459 92.7714C35.6364 93.3515 35.7023 93.3647 39.3405 94.0767C41.7527 94.4591 41.9109 94.4723 45.8918 94.6964C47.6977 94.7492 50.1232 94.5778 51.9291 94.4591C29.7968 95.8567 5.72682 78.149 0.427729 56.5517Z" fill="black"/>
</g>
<defs>
<clipPath id="clip0_1_122">
<rect width="95" height="95" fill="white"/>
</clipPath>
</defs>
</svg>
