<svg width="86" height="86" viewBox="0 0 86 86" fill="none" xmlns="http://www.w3.org/2000/svg">
<g clip-path="url(#clip0_1_71)">
<path d="M17.81 78.35L16.97 77.73C17.26 77.95 17.54 78.16 17.81 78.35Z" fill="black"/>
<path d="M4 62.04C3.86 61.74 3.7 61.43 3.57 61.13C3.71 61.43 3.85 61.74 4 62.04Z" fill="black"/>
<path d="M3.57 61.13C3.51 61 3.45 60.88 3.4 60.75C3.45 60.87 3.5 61 3.57 61.13Z" fill="black"/>
<path d="M12.41 73.69C8.84 70.06 5.95 65.96 4 62.04C4.09 62.23 4.18 62.41 4.26 62.58C6.14 66.3 8.9 70.18 12.27 73.61C13.59 74.95 14.92 76.14 16.23 77.17L16.67 77.51L16.97 77.73C15.47 76.59 13.93 75.24 12.41 73.69Z" fill="black"/>
<path d="M1.32 55.14L1.48 55.68L1.76 56.57C5.25 66.33 12.65 75.37 21.55 80.75L22.46 81.24C14.92 77.05 5.22 67.22 1.32 55.14Z" fill="black"/>
<path d="M0.220001 50.36L0.250001 50.56L0.460001 51.68C1.85 58.4 6.67 66.89 13.57 73.91C17.83 78.25 22.21 81.33 26.09 82.99L27.28 83.47C15.08 78.27 2.93 63.42 0.220001 50.36Z" fill="black"/>
<path d="M14.74 73.74C6.18 65.03 0.479996 54.28 -0.270004 46.49L-0.200004 47.3C0.599996 54.91 6.15 65.34 14.47 73.81C19.97 79.4 25.64 83.09 30.38 84.55L31.47 84.86C26.53 83.47 20.54 79.64 14.74 73.74Z" fill="black"/>
<path d="M15.83 73.42C5.81 63.22 -0.569998 50.44 -0.409998 41.97L-0.419998 43.03C-0.389998 51.34 5.83 63.67 15.52 73.53C22.15 80.27 29.01 84.45 34.46 85.57L35.61 85.79C29.98 84.79 22.78 80.49 15.83 73.42Z" fill="black"/>
<path d="M17.07 72.94C5.82 61.5 -1.11 47 -0.139999 38.03L-0.249999 39.11C-0.979999 47.96 5.8 61.98 16.72 73.09C24.41 80.92 32.41 85.51 38.43 86.18L39.48 86.28C33.31 85.73 25.03 81.04 17.07 72.94Z" fill="black"/>
<path d="M18.45 72.29C6.01 59.63 -1.43 43.43 0.489995 34.12L0.339996 34.85L0.289996 35.13C-1.39 44.36 5.92 60.13 18.06 72.48C26.76 81.33 35.81 86.27 42.3 86.42L43.37 86.43C36.78 86.44 27.42 81.42 18.45 72.29Z" fill="black"/>
<path d="M19.97 71.47C6.49 57.76 -1.39 40.07 1.4 30.51L1.12 31.49C-1.42 41 6.34 58.28 19.54 71.71C29.23 81.57 39.35 86.8 46.21 86.32L47.21 86.24C40.26 86.88 29.89 81.57 19.97 71.47Z" fill="black"/>
<path d="M21.63 70.5C7.13 55.76 -1.13 36.6 2.65 26.93L2.27 27.9C-1.22 37.56 6.94 56.32 21.16 70.78C31.71 81.51 42.74 86.98 49.89 85.89L50.89 85.72C43.68 86.99 32.4 81.46 21.63 70.5Z" fill="black"/>
<path d="M4.22 23.42L4.21 23.44C4.22 23.43 4.22 23.43 4.22 23.42Z" fill="black"/>
<path d="M23.41 69.36C7.97 53.66 -0.620004 33.09 4.21 23.44L4.17 23.51L3.75 24.36C-0.810004 34.03 7.7 54.23 22.9 69.69C34.28 81.27 46.21 86.93 53.55 85.15L54.55 84.89C47.18 86.87 35.01 81.17 23.41 69.36Z" fill="black"/>
<path d="M25.32 68.07C9.47 51.95 0.65 30.84 5.62 20.93C5.75 20.66 5.89 20.41 6.04 20.17L5.51 21.04C5.4 21.22 5.3 21.41 5.21 21.6C0.28 31.44 9.04 52.41 24.78 68.43C36.96 80.82 49.75 86.62 57.2 84.06L57.67 83.89L58.16 83.71C50.7 86.49 37.7 80.66 25.32 68.07Z" fill="black"/>
<path d="M27.35 66.62C11.18 50.17 2.18 28.64 7.25 18.54C7.52 18.01 7.82 17.52 8.15 17.07L7.55 17.9C7.27 18.3 7.01 18.72 6.78 19.18C1.74 29.24 10.69 50.66 26.78 67.03C39.65 80.12 53.18 86.01 60.66 82.7L61.58 82.28C54.1 85.79 40.39 79.88 27.35 66.62Z" fill="black"/>
<path d="M29.49 65.01C13.1 48.33 3.98 26.51 9.11 16.26C9.51 15.46 9.99 14.75 10.54 14.13L9.87 14.9C9.38 15.48 8.95 16.13 8.58 16.86C3.46 27.08 12.55 48.84 28.89 65.46C42.37 79.18 56.57 85.11 64 81.03L64.89 80.52C57.5 84.82 43.13 78.88 29.49 65.01Z" fill="black"/>
<path d="M31.75 63.25C15.23 46.44 6.03 24.44 11.21 14.11C11.74 13.05 12.41 12.15 13.19 11.41L12.44 12.13C11.72 12.84 11.11 13.69 10.61 14.68C5.44 24.99 14.62 46.96 31.12 63.74C45.15 78.01 59.95 83.94 67.24 79.05L68.1 78.46C60.86 83.57 45.91 77.66 31.75 63.25Z" fill="black"/>
<path d="M34.11 61.33C17.56 44.49 8.34 22.45 13.53 12.1C14.19 10.78 15.06 9.71001 16.1 8.89001L15.47 9.40001L15.28 9.56001C14.31 10.36 13.5 11.39 12.88 12.64C7.69 22.99 16.91 45.03 33.46 61.87C47.96 76.62 63.28 82.49 70.34 76.76L70.53 76.6L71.15 76.08C64.16 82.04 48.72 76.2 34.11 61.33Z" fill="black"/>
<path d="M36.51 59.31C20.03 42.55 10.86 20.6 16.02 10.3C16.81 8.72001 17.89 7.51001 19.22 6.64001L18.35 7.22001C16.86 8.44001 14.38 10.47 13.94 16.17C12.06 40.7 55.02 88.94 73.21 74.21L73.95 73.48C67.29 80.25 51.46 74.53 36.51 59.31Z" fill="black"/>
<path d="M65.42 73.76C40.71 69.56 3.12 17.3 22.48 4.71002L21.58 5.21002C20.04 6.08002 18.8 7.38002 17.92 9.14002C12.79 19.37 21.9 41.16 38.27 57.81C53.4 73.21 69.45 78.82 75.82 71.46L76.48 70.68C74.02 73.55 70.3 74.58 65.42 73.76Z" fill="black"/>
<path d="M41.31 55.08C25.27 38.76 16.34 17.4 21.37 7.37003C22.4 5.32003 23.92 3.91003 25.84 3.09003L24.91 3.50003C23.28 4.41003 18.31 7.17003 19.34 17.18C22.15 44.41 63.61 85.33 78.16 68.52L78.76 67.68C72.99 76.05 56.67 70.71 41.31 55.08Z" fill="black"/>
<path d="M63.01 66.89C37.56 56.07 9.77 9.98001 29.33 1.76001L28.34 2.10001C26.45 2.96001 20.69 5.56001 22.32 16.94C26.26 44.45 67.31 83.39 80.24 65.37L80.76 64.49C76.62 71.39 67.86 68.96 63.01 66.89Z" fill="black"/>
<path d="M82.31 61.48C77.6 70.48 65.11 64.61 61.4 62.6C36.61 49.16 13.66 6.70998 32.98 0.72998L31.98 0.97998C25.81 2.57998 23.53 9.30998 25.88 18.96C32.55 46.32 71.14 80.07 81.97 62.19L82.02 62.08L82.47 61.13L82.31 61.48Z" fill="black"/>
<path d="M83.38 58.84C77.68 68.53 63.86 60.54 59.76 57.87C36.06 42.39 17.77 4.03003 36.66 0.0300293L35.66 0.190029C32.82 0.650029 30.6 2.16003 29.28 4.80003C24.62 14.1 32.9 33.9 47.76 49.02C62.63 64.15 78.46 68.87 83.12 59.58C83.28 59.25 83.43 58.91 83.56 58.56L83.92 57.59L83.38 58.84Z" fill="black"/>
<path d="M58.22 52.81C36.18 36 21.99 1.94002 40.33 -0.349976L39.33 -0.279976C36.17 -0.0199759 33.7 1.45002 32.3 4.26002C27.82 13.19 35.77 32.21 50.06 46.74C64.34 61.27 79.55 65.81 84.03 56.88C84.33 56.28 84.57 55.64 84.76 54.96L85.03 53.98C84.84 54.64 84.5 55.5 84.24 56.14C79.53 64.74 67.28 59.73 58.22 52.81Z" fill="black"/>
<path d="M52.91 43.83C39.48 30.17 32.01 12.29 36.22 3.89C37.69 0.959996 40.39 -0.430004 43.85 -0.410004L43.21 -0.420004C39.65 -0.460004 36.88 0.939995 35.38 3.94C31.11 12.46 38.69 30.6 52.31 44.45C65.93 58.3 80.43 62.64 84.7 54.12C84.75 53.87 84.8 53.61 84.85 53.36C80.64 61.76 66.34 57.49 52.91 43.83Z" fill="black"/>
<path d="M84.7 54.12C85.12 53.28 85.42 52.35 85.62 51.34L85.66 51.14L85.82 50.27C85.63 51.4 85.31 52.43 84.85 53.35C84.8 53.61 84.75 53.87 84.7 54.12Z" fill="black"/>
<path d="M55.09 41.54C42.42 28.65 35.36 11.77 39.33 3.83997C40.88 0.749974 43.88 -0.520026 47.72 -0.160026L47.1 -0.230026C43.16 -0.630026 40.07 0.659974 38.48 3.82997C34.44 11.89 41.61 29.05 54.5 42.16C67.39 55.27 81.11 59.37 85.14 51.31C85.71 50.17 86.06 48.85 86.2 47.38L86.29 46.3C86.18 47.89 85.83 49.32 85.22 50.53C81.26 58.46 67.76 54.43 55.09 41.54Z" fill="black"/>
<path d="M41.61 3.93998C37.82 11.5 44.55 27.59 56.63 39.88C68.71 52.17 81.58 56.01 85.36 48.46C86.06 47.06 86.4 45.37 86.41 43.46V42.81C86.39 44.66 86.06 46.31 85.38 47.67C81.67 55.08 69.05 51.31 57.2 39.26C45.35 27.2 38.75 11.42 42.46 4.00998C44.09 0.769983 47.42 -0.340017 51.65 0.459983L51.02 0.329983C46.69 -0.500017 43.27 0.619982 41.61 3.93998Z" fill="black"/>
<path d="M44.74 4.25997C41.23 11.27 47.47 26.2 58.68 37.61C69.89 49.02 81.83 52.58 85.35 45.57C86.2 43.87 86.48 41.71 86.25 39.24L86.17 38.49C86.49 41.88 85.86 43.42 85.3 44.78C80.12 54.59 60 42.93 49.42 24C41.82 10.41 42.74 -2.12003 56.19 1.63997L55.11 1.30997C50.33 -0.100029 46.49 0.769971 44.74 4.25997Z" fill="black"/>
<path d="M47.87 4.79C44.65 11.22 50.37 24.91 60.65 35.37C70.93 45.83 81.88 49.1 85.1 42.67C86.1 40.68 86.24 38 85.65 34.93L85.53 34.33C86.1 37.32 85.97 39.94 84.99 41.88C81.85 48.14 71.18 44.96 61.17 34.77C51.15 24.58 45.57 11.24 48.71 4.97C50.5 1.41 54.72 0.900001 59.87 3.01L59.35 2.79C54.06 0.61 49.71 1.13 47.87 4.79Z" fill="black"/>
<path d="M59.88 3.01001L60.53 3.29001C60.32 3.19001 60.1 3.10001 59.88 3.01001Z" fill="black"/>
<path d="M85.54 34.34C85.49 34.1 85.44 33.85 85.39 33.6L85.54 34.34Z" fill="black"/>
<path d="M64.32 5.19L65.14 5.66C64.86 5.49 64.59 5.34 64.32 5.19Z" fill="black"/>
<path d="M50.97 5.54C48.06 11.35 53.23 23.73 62.53 33.19C71.82 42.65 81.72 45.6 84.63 39.79C85.81 37.44 85.66 34.02 84.46 30.16L84.31 29.69C85.46 33.42 85.6 36.73 84.46 39C81.63 44.64 72.04 41.77 63.02 32.6C54 23.43 48.99 11.42 51.81 5.78C53.69 2.02 58.59 2.05 64.31 5.19L63.84 4.92C57.95 1.68 52.91 1.67 50.97 5.54Z" fill="black"/>
<path d="M84.31 29.68C84.2 29.32 84.08 28.96 83.95 28.6L84.31 29.68Z" fill="black"/>
<path d="M54.04 6.48998C51.45 11.65 56.05 22.64 64.3 31.04C72.55 39.44 81.34 42.06 83.92 36.9C85.37 34.02 84.57 29.31 82.14 24.25L81.93 23.83C84.3 28.74 85.09 33.31 83.69 36.11C81.2 41.09 72.72 38.56 64.76 30.46C56.8 22.36 52.37 11.76 54.86 6.78998C56.91 2.68998 63.02 3.67998 69.56 8.67998C69.48 8.61998 69.4 8.54998 69.32 8.48998L68.97 8.22998C62.32 3.23998 56.14 2.29998 54.04 6.48998Z" fill="black"/>
<path d="M69.57 8.66998C69.87 8.90998 70.2 9.16998 70.51 9.40998C70.19 9.15998 69.88 8.90998 69.57 8.66998Z" fill="black"/>
<path d="M81.43 22.82C81.47 22.89 81.5 22.96 81.54 23.03L81.48 22.91L81.43 22.82Z" fill="black"/>
<path d="M81.94 23.83C81.81 23.56 81.68 23.3 81.54 23.03L81.94 23.83Z" fill="black"/>
<path d="M57.06 7.64C54.82 12.12 58.8 21.65 65.96 28.94C73.12 36.23 80.74 38.5 82.99 34.02C85.23 29.54 81.25 20.01 74.09 12.72C66.93 5.44 59.31 3.17 57.06 7.64ZM74.18 12.86C81.03 19.83 84.85 28.96 82.7 33.25C80.55 37.54 73.26 35.36 66.4 28.38C59.55 21.41 55.73 12.28 57.88 7.99C60.02 3.71 67.32 5.89 74.18 12.86Z" fill="black"/>
<path d="M81.83 31.19C83.72 27.42 80.37 19.41 74.34 13.28C68.32 7.15001 61.91 5.24001 60.02 9.00001C58.13 12.76 61.48 20.78 67.51 26.91C73.53 33.04 79.94 34.96 81.83 31.19ZM60.81 9.41001C62.6 5.84001 68.67 7.66001 74.37 13.46C80.07 19.26 83.25 26.86 81.46 30.42C79.67 33.99 73.6 32.17 67.9 26.37C62.2 20.58 59.03 12.98 60.81 9.41001Z" fill="black"/>
<path d="M80.43 28.41C81.95 25.38 79.25 18.94 74.41 14.01C69.57 9.08998 64.42 7.54998 62.9 10.57C61.38 13.6 64.08 20.04 68.92 24.97C73.76 29.9 78.91 31.44 80.43 28.41ZM63.67 11.04C65.08 8.21998 69.89 9.64998 74.4 14.24C78.91 18.83 81.42 24.84 80.01 27.66C78.6 30.48 73.79 29.05 69.28 24.46C64.77 19.87 62.26 13.86 63.67 11.04Z" fill="black"/>
<path d="M78.8 25.69C79.93 23.43 77.92 18.6 74.3 14.92C70.68 11.24 66.82 10.09 65.69 12.35C64.56 14.61 66.57 19.44 70.19 23.12C73.81 26.8 77.67 27.95 78.8 25.69ZM66.43 12.86C67.46 10.81 70.95 11.85 74.24 15.19C77.52 18.53 79.35 22.9 78.32 24.95C77.29 27 73.8 25.96 70.51 22.62C67.23 19.29 65.4 14.92 66.43 12.86Z" fill="black"/>
<path d="M76.94 23.04C77.68 21.56 76.36 18.41 74 16C71.63 13.59 69.11 12.84 68.37 14.32C67.63 15.8 68.95 18.95 71.31 21.36C73.68 23.76 76.2 24.52 76.94 23.04ZM69.09 14.89C69.72 13.63 71.87 14.27 73.89 16.32C75.91 18.37 77.03 21.06 76.4 22.32C75.77 23.58 73.62 22.94 71.6 20.89C69.58 18.84 68.45 16.15 69.09 14.89Z" fill="black"/>
<path d="M74.85 20.47C75.19 19.79 74.59 18.35 73.51 17.26C72.43 16.16 71.28 15.82 70.94 16.49C70.6 17.17 71.2 18.61 72.28 19.7C73.36 20.8 74.52 21.15 74.85 20.47ZM71.62 17.12C71.85 16.67 72.62 16.9 73.35 17.64C74.08 18.38 74.48 19.34 74.25 19.8C74.02 20.25 73.25 20.02 72.52 19.28C71.79 18.54 71.39 17.57 71.62 17.12Z" fill="black"/>
</g>
<defs>
<clipPath id="clip0_1_71">
<rect width="86" height="86" fill="white"/>
</clipPath>
</defs>
</svg>
