<svg width="110" height="135" viewBox="0 0 110 135" fill="none" xmlns="http://www.w3.org/2000/svg">
<path d="M87.812 35.262L59.687 19.024C56.7964 17.3521 53.2026 17.356 50.312 19.024L22.187 35.262C19.2964 36.93 17.4995 40.0432 17.4995 43.3792V75.8562C17.4995 79.196 19.2964 82.3054 22.187 83.9734L50.312 100.211C51.7573 101.047 53.3784 101.461 54.9995 101.461C56.6206 101.461 58.2417 101.043 59.687 100.211L87.812 83.9734C90.7026 82.3054 92.4995 79.1922 92.4995 75.8562V43.3792C92.4995 40.0394 90.7026 36.93 87.812 35.262ZM55 78.75C44.66 78.75 36.25 70.3398 36.25 60C36.25 49.6602 44.6602 41.25 55 41.25C65.3398 41.25 73.75 49.6602 73.75 60C73.75 70.3398 65.3398 78.75 55 78.75Z" fill="black"/>
</svg>
