<svg xmlns="http://www.w3.org/2000/svg" viewBox="0 0 1200 800" role="img" aria-label="Assorted shopping products arranged for an e-commerce hero">
  <defs>
    <linearGradient id="g" x1="0" y1="0" x2="1" y2="1">
      <stop offset="0" stop-color="#f4f8ff"/>
      <stop offset="1" stop-color="#e8fff6"/>
    </linearGradient>
  </defs>
  <rect width="1200" height="800" rx="64" fill="url(#g)"/>
  <circle cx="220" cy="190" r="96" fill="#ffd7df"/>
  <rect x="346" y="148" width="250" height="180" rx="40" fill="#ffffff"/>
  <rect x="652" y="128" width="300" height="220" rx="46" fill="#d9ecff"/>
  <rect x="164" y="434" width="230" height="210" rx="48" fill="#fff1c7"/>
  <rect x="474" y="408" width="250" height="240" rx="52" fill="#ffffff"/>
  <rect x="796" y="432" width="250" height="210" rx="48" fill="#dff7e9"/>
  <path d="M398 238h146M704 214h196M528 528h142M850 536h142" stroke="#18324a" stroke-width="22" stroke-linecap="round" opacity=".72"/>
  <path d="M222 160c54 42 54 88 0 138c-52-50-52-96 0-138Z" fill="#18324a" opacity=".82"/>
</svg>
