<svg xmlns="http://www.w3.org/2000/svg" viewBox="0 0 900 700" role="img" aria-label="Sneakers product image">
  <rect width="900" height="700" rx="56" fill="#fff7e8"/>
  <path d="M214 412c98-8 166-44 238-122c32 64 92 98 184 104c54 4 86 36 96 96H202c-16-34-12-62 12-78Z" fill="#ffffff"/>
  <path d="M214 412c98-8 166-44 238-122c32 64 92 98 184 104c54 4 86 36 96 96H202c-16-34-12-62 12-78Z" fill="none" stroke="#2a241f" stroke-width="28" stroke-linejoin="round"/>
  <path d="M370 350l96 42M430 312l92 58" stroke="#ff8a3d" stroke-width="22" stroke-linecap="round"/>
  <path d="M236 490h486" stroke="#2a241f" stroke-width="34" stroke-linecap="round"/>
</svg>
