<svg width="24" height="24" viewBox="0 0 24 24" fill="none" xmlns="http://www.w3.org/2000/svg">
<path d="M14.2262 2.93663C13.108 1.46188 10.8909 1.46188 9.77269 2.93663C9.69642 3.03722 9.61411 3.13168 9.5265 3.21971C8.91328 3.83594 8.04066 4.13702 7.16528 4.01666C5.33176 3.76456 3.76407 5.33225 4.01617 7.16577C4.15372 8.16621 3.74083 9.16303 2.93615 9.77318C1.46139 10.8914 1.46139 13.1085 2.93615 14.2267C3.74083 14.8368 4.15372 15.8337 4.01617 16.8341C3.76407 18.6676 5.33176 20.2353 7.16528 19.9832C8.16572 19.8457 9.16254 20.2586 9.77269 21.0632C10.8909 22.538 13.108 22.538 14.2262 21.0632C14.8364 20.2586 15.8332 19.8457 16.8336 19.9832C18.6671 20.2353 20.2348 18.6676 19.9827 16.8341C19.8452 15.8337 20.2581 14.8368 21.0627 14.2267C22.5375 13.1085 22.5375 10.8914 21.0627 9.77318C20.9622 9.69691 20.8677 9.6146 20.7797 9.52699C20.1634 8.91376 19.8624 8.04115 19.9827 7.16577C20.0142 6.93658 20.0173 6.71154 19.995 6.49369C19.8387 4.96876 18.4379 3.79607 16.8336 4.01666C15.8332 4.15421 14.8364 3.74131 14.2262 2.93663Z" fill="#211A1E"/>
<path d="M16.9237 8.5759C17.158 8.81022 17.158 9.19012 16.9237 9.42442L11.1002 15.2476C10.7097 15.6381 10.0765 15.6381 9.68601 15.2476L7.07519 12.6368C6.84087 12.4025 6.84086 12.0226 7.07517 11.7883C7.30948 11.554 7.68938 11.554 7.9237 11.7883L10.3931 14.2576L16.0752 8.57587C16.3095 8.34156 16.6894 8.34157 16.9237 8.5759Z" fill="white"/>
</svg>
