<svg width="24" height="24" viewBox="0 0 24 24" fill="none" xmlns="http://www.w3.org/2000/svg">
<path d="M6.00024 4C4.89567 4 4.00024 4.89543 4.00024 6V18C4.00024 19.1046 4.89567 20 6.00024 20H18C19.1046 20 20 19.1046 20 18V6C20 4.89543 19.1046 4 18 4H6.00024Z" fill="#211A1E"/>
<path d="M8.51067 2.61416C8.51067 2.28279 8.24204 2.01416 7.91067 2.01416C7.5793 2.01416 7.31067 2.28279 7.31067 2.61416V4.54333C7.31067 4.8747 7.5793 5.14333 7.91067 5.14333C8.24204 5.14333 8.51067 4.8747 8.51067 4.54333V2.61416Z" fill="#211A1E"/>
<path d="M16.7773 2.61416C16.7773 2.28279 16.5086 2.01416 16.1773 2.01416C15.8459 2.01416 15.5773 2.28279 15.5773 2.61416V4.54333C15.5773 4.8747 15.8459 5.14333 16.1773 5.14333C16.5086 5.14333 16.7773 4.8747 16.7773 4.54333V2.61416Z" fill="#211A1E"/>
<path d="M16.7766 4.96409V3.99951H15.5766V4.96409C15.5766 5.29547 15.8452 5.56409 16.1766 5.56409C16.508 5.56409 16.7766 5.29547 16.7766 4.96409Z" fill="white"/>
<path d="M8.51067 4V4.96458C8.51067 5.29595 8.24204 5.56458 7.91067 5.56458C7.5793 5.56458 7.31067 5.29595 7.31067 4.96458V4H8.51067Z" fill="white"/>
<path d="M4 8.70752H20V9.90752H4V8.70752Z" fill="white"/>
<path d="M8.75 12.3203C8.75 12.7345 8.41421 13.0703 8 13.0703C7.58579 13.0703 7.25 12.7345 7.25 12.3203C7.25 11.9061 7.58579 11.5703 8 11.5703C8.41421 11.5703 8.75 11.9061 8.75 12.3203Z" fill="white"/>
<path d="M8 17C8.41421 17 8.75 16.6642 8.75 16.25C8.75 15.8358 8.41421 15.5 8 15.5C7.58579 15.5 7.25 15.8358 7.25 16.25C7.25 16.6642 7.58579 17 8 17Z" fill="white"/>
<path d="M12.75 12.3203C12.75 12.7345 12.4142 13.0703 12 13.0703C11.5858 13.0703 11.25 12.7345 11.25 12.3203C11.25 11.9061 11.5858 11.5703 12 11.5703C12.4142 11.5703 12.75 11.9061 12.75 12.3203Z" fill="white"/>
<path d="M12 17C12.4142 17 12.75 16.6642 12.75 16.25C12.75 15.8358 12.4142 15.5 12 15.5C11.5858 15.5 11.25 15.8358 11.25 16.25C11.25 16.6642 11.5858 17 12 17Z" fill="white"/>
<path d="M16.75 12.3203C16.75 12.7345 16.4142 13.0703 16 13.0703C15.5858 13.0703 15.25 12.7345 15.25 12.3203C15.25 11.9061 15.5858 11.5703 16 11.5703C16.4142 11.5703 16.75 11.9061 16.75 12.3203Z" fill="white"/>
<path d="M16 17C16.4142 17 16.75 16.6642 16.75 16.25C16.75 15.8358 16.4142 15.5 16 15.5C15.5858 15.5 15.25 15.8358 15.25 16.25C15.25 16.6642 15.5858 17 16 17Z" fill="white"/>
</svg>
