<svg width="24" height="24" viewBox="0 0 24 24" fill="none" xmlns="http://www.w3.org/2000/svg">
<path d="M11.9998 21C16.9704 21 20.9998 16.9706 20.9998 12C20.9998 7.02944 16.9704 3 11.9998 3C7.02924 3 2.9998 7.02944 2.9998 12C2.9998 13.8401 3.99964 16 3.99964 16L2.96016 19.8117C2.75659 20.5582 3.44156 21.2431 4.18806 21.0395L7.99964 20C7.99964 20 10.1497 21 11.9998 21Z" fill="#211A1E"/>
<path d="M7.99976 13C8.55204 13 8.99976 12.5523 8.99976 12C8.99976 11.4477 8.55204 11 7.99976 11C7.44747 11 6.99976 11.4477 6.99976 12C6.99976 12.5523 7.44747 13 7.99976 13Z" fill="white"/>
<path d="M12.9998 12C12.9998 12.5523 12.552 13 11.9998 13C11.4475 13 10.9998 12.5523 10.9998 12C10.9998 11.4477 11.4475 11 11.9998 11C12.552 11 12.9998 11.4477 12.9998 12Z" fill="white"/>
<path d="M16.9998 12C16.9998 12.5523 16.552 13 15.9998 13C15.4475 13 14.9998 12.5523 14.9998 12C14.9998 11.4477 15.4475 11 15.9998 11C16.552 11 16.9998 11.4477 16.9998 12Z" fill="white"/>
</svg>
