<svg width="24" height="24" viewBox="0 0 24 24" fill="none" xmlns="http://www.w3.org/2000/svg">
<path d="M6.00061 4C4.89604 4 4.00061 4.89543 4.00061 6V18C4.00061 19.1046 4.89604 20 6.00061 20H18.0004C19.1049 20 20.0004 19.1046 20.0004 18V6C20.0004 4.89543 19.1049 4 18.0004 4H6.00061Z" fill="#211A1E"/>
<path d="M8.26666 7.14429C8.26666 7.5585 7.93088 7.89429 7.51666 7.89429C7.10245 7.89429 6.76666 7.5585 6.76666 7.14429C6.76666 6.73007 7.10245 6.39429 7.51666 6.39429C7.93088 6.39429 8.26666 6.73007 8.26666 7.14429Z" fill="white"/>
<path d="M3.90039 8.70752H20.1004V9.90752H3.90039V8.70752Z" fill="white"/>
<path d="M6.91675 12.7899C6.91675 12.4586 7.18538 12.1899 7.51675 12.1899L16.6681 12.1899C16.9995 12.1899 17.2681 12.4586 17.2681 12.7899C17.2681 13.1213 16.9995 13.3899 16.6681 13.3899L7.51675 13.3899C7.18538 13.3899 6.91675 13.1213 6.91675 12.7899Z" fill="white"/>
<path d="M7.51675 15.2378C7.18538 15.2378 6.91675 15.5064 6.91675 15.8378C6.91675 16.1692 7.18538 16.4378 7.51675 16.4378H16.6681C16.9995 16.4378 17.2681 16.1692 17.2681 15.8378C17.2681 15.5064 16.9995 15.2378 16.6681 15.2378L7.51675 15.2378Z" fill="white"/>
<path d="M10.7667 7.14429C10.7667 7.5585 10.4309 7.89429 10.0167 7.89429C9.60245 7.89429 9.26666 7.5585 9.26666 7.14429C9.26666 6.73007 9.60245 6.39429 10.0167 6.39429C10.4309 6.39429 10.7667 6.73007 10.7667 7.14429Z" fill="white"/>
<path d="M13.2667 7.14429C13.2667 7.5585 12.9309 7.89429 12.5167 7.89429C12.1024 7.89429 11.7667 7.5585 11.7667 7.14429C11.7667 6.73007 12.1024 6.39429 12.5167 6.39429C12.9309 6.39429 13.2667 6.73007 13.2667 7.14429Z" fill="white"/>
</svg>
