<svg width="24" height="24" viewBox="0 0 24 24" fill="none" xmlns="http://www.w3.org/2000/svg">
<path d="M12 21C16.9706 21 21 16.9706 21 12C21 7.02944 16.9706 3 12 3C7.02944 3 3 7.02944 3 12C3 16.9706 7.02944 21 12 21Z" fill="#211A1E"/>
<path d="M16.9243 8.5759C17.1586 8.81022 17.1586 9.19012 16.9243 9.42442L11.1008 15.2476C10.7102 15.6381 10.0771 15.6381 9.68659 15.2476L7.07577 12.6368C6.84145 12.4025 6.84144 12.0226 7.07575 11.7883C7.31006 11.554 7.68996 11.554 7.92428 11.7883L10.3937 14.2576L16.0758 8.57587C16.3101 8.34156 16.69 8.34157 16.9243 8.5759Z" fill="white"/>
</svg>
