<svg width="24" height="24" viewBox="0 0 24 24" fill="none" xmlns="http://www.w3.org/2000/svg">
<path d="M12.1502 6.90588C8.26284 5.9035 5.28924 6.46146 3.68274 6.7629C3.52249 6.79297 3.37585 6.82048 3.24325 6.84364C2.76847 6.92658 2.40039 7.33724 2.40039 7.84049V15.9833C2.40039 16.6287 2.99953 17.1007 3.62398 16.9586C5.16055 16.6088 7.9396 16.1003 11.8562 17.0702C16.1869 18.1427 19.2389 17.5146 20.8282 17.1445C21.2828 17.0386 21.6004 16.6333 21.6004 16.1706V8.0526C21.6004 7.35529 20.9258 6.90482 20.3023 7.07823C18.8542 7.48098 15.9991 7.89835 12.1502 6.90588Z" fill="#211A1E"/>
<path fill-rule="evenodd" clip-rule="evenodd" d="M12.0004 14.8129C13.5537 14.8129 14.8129 13.5537 14.8129 12.0004C14.8129 10.4471 13.5537 9.18787 12.0004 9.18787C10.4471 9.18787 9.18787 10.4471 9.18787 12.0004C9.18787 13.5537 10.4471 14.8129 12.0004 14.8129ZM12.0004 13.6129C12.8909 13.6129 13.6129 12.8909 13.6129 12.0004C13.6129 11.1098 12.8909 10.3879 12.0004 10.3879C11.1098 10.3879 10.3879 11.1098 10.3879 12.0004C10.3879 12.8909 11.1098 13.6129 12.0004 13.6129Z" fill="white"/>
<path d="M18.1048 12.9004C18.1048 13.3974 17.7019 13.8004 17.2048 13.8004C16.7078 13.8004 16.3048 13.3974 16.3048 12.9004C16.3048 12.4033 16.7078 12.0004 17.2048 12.0004C17.7019 12.0004 18.1048 12.4033 18.1048 12.9004Z" fill="white"/>
<path d="M7.69618 11.1001C7.69618 11.5971 7.29324 12.0001 6.79618 12.0001C6.29912 12.0001 5.89618 11.5971 5.89618 11.1001C5.89618 10.603 6.29912 10.2001 6.79618 10.2001C7.29324 10.2001 7.69618 10.603 7.69618 11.1001Z" fill="white"/>
</svg>
