<svg width="24" height="24" viewBox="0 0 24 24" fill="none" xmlns="http://www.w3.org/2000/svg">
<path fill-rule="evenodd" clip-rule="evenodd" d="M7.824 5.82713L7.81865 5.82715H4.6918C4.36043 5.82715 4.0918 6.09578 4.0918 6.42715C4.0918 6.75852 4.36043 7.02715 4.6918 7.02715H5.90087C5.90138 7.0383 5.90221 7.04949 5.90336 7.06073L7.04406 18.2633C7.17919 19.5904 8.29673 20.5999 9.63068 20.5999H14.3698C15.7038 20.5999 16.8213 19.5904 16.9565 18.2633L18.0972 7.06073C18.0983 7.04949 18.0992 7.0383 18.0997 7.02715H19.3087C19.6401 7.02715 19.9087 6.75852 19.9087 6.42715C19.9087 6.09578 19.6401 5.82715 19.3087 5.82715H16.1819L16.1765 5.82713H15.1373C14.9164 5.82713 14.7373 5.64804 14.7373 5.42713V4.3999C14.7373 3.84762 14.2896 3.3999 13.7373 3.3999H10.2831C9.73078 3.3999 9.28306 3.84762 9.28306 4.3999V5.42712C9.28306 5.64804 9.10398 5.82713 8.88306 5.82713H7.824ZM10.4831 4.5999V5.42712C10.4831 5.56525 10.4656 5.69929 10.4327 5.82715H13.5877C13.5548 5.69929 13.5373 5.56525 13.5373 5.42713V4.5999H10.4831Z" fill="#211A1E"/>
</svg>
