<svg width="24" height="24" viewBox="0 0 24 24" fill="none" xmlns="http://www.w3.org/2000/svg">
<path fill-rule="evenodd" clip-rule="evenodd" d="M9.68576 9.77393C9.6858 9.16024 9.92961 8.5717 10.3636 8.13775C10.7975 7.70377 11.3861 7.45996 11.9999 7.45996C12.6136 7.45996 13.2022 7.70377 13.6362 8.13775C14.0702 8.5717 14.314 9.16024 14.314 9.77393H14.8532C15.8726 9.77393 16.7289 10.5406 16.841 11.5539L17.641 18.7799C17.7722 19.9644 16.8449 21 15.6532 21H8.36673C7.16786 21 6.23834 19.9525 6.38092 18.7621L7.24644 11.5361C7.36686 10.5307 8.21968 9.77393 9.23225 9.77393H9.68576ZM11.2121 8.98628C11.421 8.77734 11.7044 8.65996 11.9999 8.65996C12.2954 8.65996 12.5788 8.77734 12.7877 8.98628C12.9966 9.19518 13.114 9.4785 13.114 9.77393H10.8858C10.8858 9.4785 11.0032 9.19518 11.2121 8.98628Z" fill="#211A1E"/>
<path d="M12.0747 1.85205C12.4061 1.85205 12.6747 2.12068 12.6747 2.45205V5.66746C12.6747 5.99883 12.4061 6.26746 12.0747 6.26746C11.7433 6.26746 11.4747 5.99883 11.4747 5.66746V2.45205C11.4747 2.12068 11.7433 1.85205 12.0747 1.85205Z" fill="#211A1E"/>
<path d="M19.5818 5.54439C19.8162 5.7787 19.8162 6.1586 19.5818 6.39292L17.3082 8.66655C17.0739 8.90087 16.694 8.90087 16.4597 8.66655C16.2254 8.43224 16.2254 8.05234 16.4597 7.81803L18.7333 5.54439C18.9676 5.31007 19.3475 5.31007 19.5818 5.54439Z" fill="#211A1E"/>
<path d="M4.41792 5.54468C4.65224 5.31036 5.03214 5.31036 5.26645 5.54468L7.54009 7.81831C7.7744 8.05263 7.7744 8.43253 7.54009 8.66684C7.30578 8.90116 6.92588 8.90116 6.69156 8.66684L4.41792 6.3932C4.18361 6.15889 4.18361 5.77899 4.41792 5.54468Z" fill="#211A1E"/>
<path d="M14.7381 13.8416C14.9725 13.6073 14.9725 13.2274 14.7381 12.9931C14.5038 12.7588 14.1239 12.7588 13.8896 12.9931L9.40285 17.4799C9.16853 17.7142 9.16853 18.0941 9.40285 18.3284C9.63716 18.5627 10.0171 18.5627 10.2514 18.3284L14.7381 13.8416Z" fill="white"/>
<path d="M11.0236 14.0158C11.0236 14.3462 10.7557 14.6141 10.4253 14.6141C10.0949 14.6141 9.827 14.3462 9.827 14.0158C9.827 13.6853 10.0949 13.4175 10.4253 13.4175C10.7557 13.4175 11.0236 13.6853 11.0236 14.0158Z" fill="white"/>
<path d="M14.3141 17.3063C14.3141 17.6367 14.0462 17.9045 13.7158 17.9045C13.3854 17.9045 13.1175 17.6367 13.1175 17.3063C13.1175 16.9759 13.3854 16.708 13.7158 16.708C14.0462 16.708 14.3141 16.9759 14.3141 17.3063Z" fill="white"/>
</svg>
