<svg width="24" height="24" viewBox="0 0 24 24" fill="none" xmlns="http://www.w3.org/2000/svg">
<path fill-rule="evenodd" clip-rule="evenodd" d="M14.3735 2.03549C13.9423 1.96431 13.5003 2.00056 13.0865 2.14102C12.6727 2.28149 12.2999 2.52183 12.0012 2.84078C11.7025 3.15972 11.487 3.54741 11.3739 3.96951L11.368 3.99153C11.2382 4.02979 11.1143 4.07869 10.9963 4.13563C9.40917 4.57471 8.2439 6.02939 8.2439 7.75622V10.2186C8.2439 12.2931 9.92561 13.9749 12.0001 13.9749C14.0746 13.9749 15.7563 12.2931 15.7563 10.2186V7.75622C15.7563 7.40272 15.7075 7.06062 15.6162 6.73631L15.6152 6.72044C15.8438 6.53493 16.0407 6.3121 16.1972 6.06047C16.4279 5.68938 16.5636 5.2671 16.5922 4.83105C16.6208 4.395 16.5414 3.95863 16.361 3.56059C16.1807 3.16255 15.9049 2.81514 15.5583 2.54911C15.2116 2.28309 14.8046 2.10668 14.3735 2.03549ZM9.4439 8.90102V10.2186C9.4439 11.6304 10.5884 12.7749 12.0001 12.7749C13.4119 12.7749 14.5563 11.6304 14.5563 10.2186V9.21676C14.4135 9.21556 14.2706 9.20466 14.1308 9.18695C13.7276 9.13586 13.306 9.02234 12.9068 8.87089C12.3341 8.65363 11.7421 8.33264 11.3022 7.94577C11.0184 8.20911 10.6939 8.4046 10.4041 8.54642C10.0407 8.72422 9.68884 8.83846 9.4439 8.90102Z" fill="#211A1E"/>
<path d="M19.2116 20.9998C19.4325 20.9998 19.6116 20.8207 19.6116 20.5998V17.9746C19.6116 15.7655 17.8208 13.9746 15.6116 13.9746H14.4335C14.3161 13.9746 14.2046 14.0262 14.1286 14.1157L12.1784 16.413C12.0988 16.5067 11.9543 16.5071 11.8742 16.4138L9.90057 14.1141C9.82458 14.0256 9.71371 13.9746 9.59703 13.9746H8.38867C6.17953 13.9746 4.38867 15.7655 4.38867 17.9746V20.5998C4.38867 20.8207 4.56776 20.9998 4.78867 20.9998H19.2116Z" fill="#211A1E"/>
<path d="M8.67491 18.2909C8.67491 17.9595 8.40629 17.6909 8.07491 17.6909C7.74354 17.6909 7.47491 17.9595 7.47491 18.2909V20.9999H8.67491V18.2909Z" fill="white"/>
<path d="M16.6001 18.2909C16.6001 17.9595 16.3315 17.6909 16.0001 17.6909C15.6687 17.6909 15.4001 17.9595 15.4001 18.2909V20.9999H16.6001V18.2909Z" fill="white"/>
</svg>
