<svg width="24" height="24" viewBox="0 0 24 24" fill="none" xmlns="http://www.w3.org/2000/svg">
<path d="M1.90547 6.49948C1.90651 5.06428 3.07027 3.90137 4.50547 3.90137H11.4995C12.9359 3.90137 14.1001 5.06613 14.0995 6.50253L14.0956 15.2994H3.70369C2.70967 15.2994 1.9031 14.4951 1.90039 13.501L1.90039 13.499L1.90547 6.49948Z" fill="#211A1E"/>
<path d="M16.9508 6.54682L14.115 6.52905L14.115 16.496L21.2925 16.4957C21.403 16.4956 21.4925 16.4061 21.4925 16.2957V11.5245L18.5714 7.39228C18.1991 6.86565 17.5957 6.55086 16.9508 6.54682Z" fill="#211A1E"/>
<path d="M8.90818 16.8984C9.23955 16.8984 9.50818 17.1671 9.50818 17.4984C9.50818 18.0289 9.29747 18.5376 8.92239 18.9127C8.54732 19.2877 8.03861 19.4984 7.50818 19.4984C6.97775 19.4984 6.46904 19.2877 6.09397 18.9127C5.71889 18.5376 5.50818 18.0289 5.50818 17.4984C5.50818 17.1671 5.77681 16.8984 6.10818 16.8984C6.43955 16.8984 6.70818 17.1671 6.70818 17.4984C6.70818 17.7106 6.79246 17.9141 6.94249 18.0641C7.09252 18.2142 7.29601 18.2984 7.50818 18.2984C7.72035 18.2984 7.92383 18.2142 8.07386 18.0641C8.22389 17.9141 8.30818 17.7106 8.30818 17.4984C8.30818 17.1671 8.57681 16.8984 8.90818 16.8984Z" fill="#211A1E"/>
<path d="M17.5082 17.4984C17.5082 17.1671 17.2395 16.8984 16.9082 16.8984C16.5768 16.8984 16.3082 17.1671 16.3082 17.4984C16.3082 17.7106 16.2239 17.9141 16.0739 18.0641C15.9238 18.2142 15.7204 18.2984 15.5082 18.2984C15.296 18.2984 15.0925 18.2142 14.9425 18.0641C14.7925 17.9141 14.7082 17.7106 14.7082 17.4984C14.7082 17.1671 14.4395 16.8984 14.1082 16.8984C13.7768 16.8984 13.5082 17.1671 13.5082 17.4984C13.5082 18.0289 13.7189 18.5376 14.094 18.9127C14.469 19.2877 14.9777 19.4984 15.5082 19.4984C16.0386 19.4984 16.5473 19.2877 16.9224 18.9127C17.2975 18.5376 17.5082 18.0289 17.5082 17.4984Z" fill="#211A1E"/>
<path fill-rule="evenodd" clip-rule="evenodd" d="M18.5714 7.39228L21.4925 11.5245V16.2957C21.4925 16.4061 21.403 16.4956 21.2925 16.4957L14.115 16.496L14.115 6.52905L16.9508 6.54682C17.5957 6.55086 18.1991 6.86565 18.5714 7.39228ZM20.2925 15.2957L15.315 15.296L15.315 12.1042L20.2925 12.1205V15.2957ZM19.5944 10.9182L15.315 10.9042V7.7366L16.9433 7.7468C17.2012 7.74842 17.4426 7.87433 17.5915 8.08498L19.5944 10.9182Z" fill="white"/>
<path d="M8.50039 8.09941H2.00039C1.66902 8.09941 1.40039 7.83079 1.40039 7.49941C1.40039 7.16804 1.66902 6.89941 2.00039 6.89941H8.50039C8.83176 6.89941 9.10039 7.16804 9.10039 7.49941C9.10039 7.83079 8.83176 8.09941 8.50039 8.09941Z" fill="white"/>
<path d="M6.50039 11.0994H2.00039C1.66902 11.0994 1.40039 10.8308 1.40039 10.4994C1.40039 10.168 1.66902 9.89941 2.00039 9.89941L6.50039 9.89941C6.83176 9.89941 7.10039 10.168 7.10039 10.4994C7.10039 10.8308 6.83176 11.0994 6.50039 11.0994Z" fill="white"/>
</svg>
