<svg width="24" height="24" viewBox="0 0 24 24" fill="none" xmlns="http://www.w3.org/2000/svg">
<path fill-rule="evenodd" clip-rule="evenodd" d="M17.7972 7.5C17.8452 7.43231 17.8901 7.36226 17.9318 7.29003C18.1669 6.88287 18.2907 6.421 18.2907 5.95084C18.2907 5.48069 18.1669 5.01882 17.9318 4.61165C17.6968 4.20449 17.3587 3.86637 16.9515 3.6313C16.5443 3.39622 16.0825 3.27246 15.6123 3.27246C15.1421 3.27246 14.6803 3.39622 14.2731 3.6313C13.8965 3.84872 13.579 4.15428 13.3474 4.52109C13.3257 4.54722 13.3058 4.57557 13.2882 4.60604L11.7447 7.27943L10.7484 4.60604C10.7308 4.5756 10.711 4.54728 10.6892 4.52117C10.4576 4.15432 10.1401 3.84873 9.7635 3.6313C9.35633 3.39622 8.89446 3.27246 8.42431 3.27246C7.95415 3.27246 7.49228 3.39622 7.08512 3.6313C6.67795 3.86637 6.33984 4.20449 6.10476 4.61165C5.86968 5.01882 5.74593 5.48069 5.74593 5.95084C5.74593 6.421 5.86968 6.88287 6.10476 7.29003C6.14646 7.36226 6.1914 7.43231 6.23939 7.5H3.9C3.40294 7.5 3 7.90294 3 8.4V12C3 12.4971 3.40294 12.9 3.9 12.9H4.79991V20.1C4.79991 20.5971 5.20286 21 5.69991 21H18.2999C18.797 21 19.1999 20.5971 19.1999 20.1V12.9H20.1C20.5971 12.9 21 12.4971 21 12V8.4C21 7.90294 20.5971 7.5 20.1 7.5H17.7972ZM7.68512 4.67053C7.90986 4.54077 8.1648 4.47246 8.42431 4.47246C8.68382 4.47246 8.93876 4.54077 9.1635 4.67053C9.38824 4.80028 9.57487 4.98691 9.70462 5.21165L9.71046 5.20828L10.9974 7.43726H8.42431V7.42922C8.1648 7.42922 7.90986 7.36091 7.68512 7.23116C7.46037 7.1014 7.27375 6.91478 7.14399 6.69003C7.01424 6.46529 6.94593 6.21035 6.94593 5.95084C6.94593 5.69133 7.01424 5.43639 7.14399 5.21165C7.27375 4.98691 7.46037 4.80028 7.68512 4.67053ZM13.0394 7.43701L14.3261 5.20828L14.332 5.21165C14.4617 4.98691 14.6484 4.80028 14.8731 4.67053C15.0979 4.54077 15.3528 4.47246 15.6123 4.47246C15.8718 4.47246 16.1267 4.54077 16.3515 4.67053C16.5762 4.80028 16.7629 4.98691 16.8926 5.21165C17.0224 5.43639 17.0907 5.69133 17.0907 5.95084C17.0907 6.21035 17.0224 6.46529 16.8926 6.69003C16.7629 6.91478 16.5762 7.1014 16.3515 7.23116C16.1267 7.36091 15.8718 7.42922 15.6123 7.42922V7.43701H13.0394Z" fill="#211A1E"/>
<path d="M12.6366 8C12.6366 7.66863 12.3679 7.4 12.0366 7.4C11.7052 7.4 11.4366 7.66863 11.4366 8V11.7293L3.00003 11.7291L3 12.9291L11.4366 12.9293V20.0999C11.4366 20.4313 11.7052 20.6999 12.0366 20.6999C12.3679 20.6999 12.6366 20.4313 12.6366 20.0999V12.9293L21 12.9295L21 11.7295L12.6366 11.7293V8Z" fill="white"/>
</svg>
