<svg width="24" height="24" viewBox="0 0 24 24" fill="none" xmlns="http://www.w3.org/2000/svg">
<path fill-rule="evenodd" clip-rule="evenodd" d="M2.61704 11.7854C1.83599 12.5664 1.83599 13.8328 2.61704 14.6138L9.38584 21.3826C10.1669 22.1637 11.4332 22.1637 12.2143 21.3826L21.3824 12.2145C22.1634 11.4335 22.1634 10.1671 21.3824 9.38608L14.6136 2.61728C13.8325 1.83623 12.5662 1.83623 11.7851 2.61728L2.61704 11.7854Z" fill="#211A1E"/>
<path fill-rule="evenodd" clip-rule="evenodd" d="M11.5552 12.2929L17.9241 5.92396L17.0756 5.07543L12.1183 10.0327C12.1271 9.47881 11.9201 8.92217 11.4975 8.49954C10.6693 7.67135 9.32652 7.67135 8.49833 8.49954C8.0763 8.92157 7.86932 9.47723 7.87741 10.0303L6.10695 8.25986L5.25842 9.10839L7.02778 10.8777C6.4754 10.8702 5.92065 11.0772 5.49918 11.4987C4.67099 12.3269 4.67099 13.6696 5.49918 14.4978C5.92181 14.9205 6.47845 15.1274 7.03233 15.1187L5.0756 17.0754L5.92413 17.924L9.29271 14.5554L9.09928 17.4569C9.07724 17.7875 9.3274 18.0734 9.65804 18.0955C9.98867 18.1175 10.2746 17.8673 10.2966 17.5367L10.5085 14.3585L14.8912 18.7412L15.7398 17.8927L11.3559 13.5089L14.5365 13.2968C14.8671 13.2748 15.1173 12.9889 15.0953 12.6582C15.0732 12.3276 14.7873 12.0774 14.4567 12.0995L11.5552 12.2929ZM8.30082 12.9983L7.64978 12.3472C7.29022 11.9877 6.70726 11.9877 6.3477 12.3472C5.98815 12.7068 5.98814 13.2897 6.3477 13.6493C6.70726 14.0089 7.29022 14.0089 7.64978 13.6493L8.30082 12.9983ZM9.9979 11.3012L9.34686 10.6501C8.9873 10.2906 8.9873 9.70762 9.34686 9.34806C9.70642 8.9885 10.2894 8.98851 10.6489 9.34806C11.0085 9.70762 11.0085 10.2906 10.6489 10.6501L9.9979 11.3012Z" fill="white"/>
</svg>
