<svg width="24" height="24" viewBox="0 0 24 24" fill="none" xmlns="http://www.w3.org/2000/svg">
<path d="M5.00039 3.5999C4.22719 3.5999 3.60039 4.2267 3.60039 4.9999V7.73161C3.60039 8.06298 3.33176 8.33161 3.00039 8.33161C2.66902 8.33161 2.40039 8.06298 2.40039 7.73161V4.9999C2.40039 3.56396 3.56445 2.3999 5.00039 2.3999H7.7321C8.06347 2.3999 8.3321 2.66853 8.3321 2.9999C8.3321 3.33127 8.06347 3.5999 7.7321 3.5999H5.00039Z" fill="#211A1E"/>
<path d="M15.6687 2.9999C15.6687 2.66853 15.9373 2.3999 16.2687 2.3999H19.0004C20.4363 2.3999 21.6004 3.56396 21.6004 4.9999V7.73161C21.6004 8.06298 21.3318 8.33161 21.0004 8.33161C20.669 8.33161 20.4004 8.06298 20.4004 7.73161V4.9999C20.4004 4.2267 19.7736 3.5999 19.0004 3.5999H16.2687C15.9373 3.5999 15.6687 3.33127 15.6687 2.9999Z" fill="#211A1E"/>
<path d="M3.60039 16.2682C3.60039 15.9368 3.33176 15.6682 3.00039 15.6682C2.66902 15.6682 2.40039 15.9368 2.40039 16.2682V18.9999C2.40039 20.4358 3.56445 21.5999 5.00039 21.5999H7.7321C8.06347 21.5999 8.3321 21.3313 8.3321 20.9999C8.3321 20.6685 8.06347 20.3999 7.7321 20.3999H5.00039C4.22719 20.3999 3.60039 19.7731 3.60039 18.9999V16.2682Z" fill="#211A1E"/>
<path d="M21.0004 15.6682C21.3318 15.6682 21.6004 15.9368 21.6004 16.2682V18.9999C21.6004 20.4358 20.4363 21.5999 19.0004 21.5999H16.2687C15.9373 21.5999 15.6687 21.3313 15.6687 20.9999C15.6687 20.6685 15.9373 20.3999 16.2687 20.3999H19.0004C19.7736 20.3999 20.4004 19.7731 20.4004 18.9999V16.2682C20.4004 15.9368 20.669 15.6682 21.0004 15.6682Z" fill="#211A1E"/>
<path d="M13.2003 12.6001C12.869 12.6001 12.6003 12.8687 12.6003 13.2001V14.4001C12.6003 14.7315 12.869 15.0001 13.2003 15.0001H14.4003C14.7317 15.0001 15.0003 14.7315 15.0003 14.4001V13.2001C15.0003 12.8687 14.7317 12.6001 14.4003 12.6001H13.2003Z" fill="#211A1E"/>
<path d="M13.2003 16.2C12.869 16.2 12.6003 16.4686 12.6003 16.8V18C12.6003 18.3313 12.869 18.6 13.2003 18.6H14.4003C14.7317 18.6 15.0003 18.3313 15.0003 18V16.8C15.0003 16.4686 14.7317 16.2 14.4003 16.2H13.2003Z" fill="#211A1E"/>
<path d="M16.8004 16.2C16.469 16.2 16.2004 16.4686 16.2004 16.8V18C16.2004 18.3313 16.469 18.6 16.8004 18.6H18.0004C18.3317 18.6 18.6004 18.3313 18.6004 18V16.8C18.6004 16.4686 18.3317 16.2 18.0004 16.2H16.8004Z" fill="#211A1E"/>
<path d="M16.8004 12.6001C16.469 12.6001 16.2004 12.8687 16.2004 13.2001V14.4001C16.2004 14.7315 16.469 15.0001 16.8004 15.0001H18.0004C18.3317 15.0001 18.6004 14.7315 18.6004 14.4001V13.2001C18.6004 12.8687 18.3317 12.6001 18.0004 12.6001H16.8004Z" fill="#211A1E"/>
<path d="M6.00039 5.3999C5.66902 5.3999 5.40039 5.66853 5.40039 5.9999V10.7999C5.40039 11.1313 5.66902 11.3999 6.00039 11.3999H10.8004C11.1318 11.3999 11.4004 11.1313 11.4004 10.7999V5.9999C11.4004 5.66853 11.1318 5.3999 10.8004 5.3999H6.00039Z" fill="#211A1E"/>
<path d="M13.2003 5.3999C12.869 5.3999 12.6003 5.66853 12.6003 5.9999V10.7999C12.6003 11.1313 12.869 11.3999 13.2003 11.3999H18.0003C18.3317 11.3999 18.6003 11.1313 18.6003 10.7999V5.9999C18.6003 5.66853 18.3317 5.3999 18.0003 5.3999H13.2003Z" fill="#211A1E"/>
<path d="M5.40039 13.2001C5.40039 12.8687 5.66902 12.6001 6.00039 12.6001H10.8004C11.1318 12.6001 11.4004 12.8687 11.4004 13.2001V18.0001C11.4004 18.3315 11.1318 18.6001 10.8004 18.6001H6.00039C5.66902 18.6001 5.40039 18.3315 5.40039 18.0001V13.2001Z" fill="#211A1E"/>
</svg>
