<svg width="24" height="24" viewBox="0 0 24 24" fill="none" xmlns="http://www.w3.org/2000/svg">
<path fill-rule="evenodd" clip-rule="evenodd" d="M12.1675 6.00207C13.9444 5.99017 17.7149 6.8946 20.8261 10.4416C21.6032 11.3276 21.6249 12.6348 20.8483 13.5213C19.1435 15.4671 16.1695 17.8054 12.4135 17.9878C12.2796 17.9968 12.1445 18.0013 12.0084 18.0013C11.9437 18.0013 11.8793 18.0003 11.8152 17.9983C7.87069 17.9416 4.72913 15.3867 3.00703 13.3511L3.92317 12.5761C4.68739 13.4795 5.71986 14.4548 6.95652 15.2403C6.35605 14.3058 6.00775 13.1939 6.00775 12.0006C6.00775 10.6861 6.43045 9.47027 7.14735 8.48168C5.71089 9.28863 4.6125 10.357 3.86949 11.3182C3.59226 11.6769 3.59514 12.1884 3.92317 12.5761L3.00703 13.3511C2.33117 12.5522 2.28009 11.4123 2.92006 10.5844C4.45026 8.60473 7.39017 6.15824 11.6276 6.01189C11.7535 6.004 11.8805 6 12.0084 6M18.0091 12.0006C18.0091 13.1768 17.6706 14.274 17.0859 15.2001C18.2384 14.466 19.2076 13.573 19.9457 12.7305C20.3121 12.3123 20.3178 11.682 19.924 11.2329C19.01 10.191 18.039 9.40287 17.0933 8.81292C17.6735 9.73653 18.0091 10.8294 18.0091 12.0006Z" fill="#211A1E"/>
<path fill-rule="evenodd" clip-rule="evenodd" d="M12.0084 9.00098C13.6653 9.00098 15.0084 10.3441 15.0084 12.001C15.0084 13.6578 13.6653 15.001 12.0084 15.001C10.3516 15.001 9.00842 13.6578 9.00842 12.001C9.00842 10.3441 10.3516 9.00098 12.0084 9.00098ZM12.0084 10.201C13.0025 10.201 13.8084 11.0069 13.8084 12.001C13.8084 12.9951 13.0025 13.801 12.0084 13.801C11.0143 13.801 10.2084 12.9951 10.2084 12.001C10.2084 11.0069 11.0143 10.201 12.0084 10.201Z" fill="white"/>
</svg>
