<svg width="24" height="24" viewBox="0 0 24 24" fill="none" xmlns="http://www.w3.org/2000/svg">
<path d="M2 7C2 5.89543 2.89543 5 4 5H20C21.1046 5 22 5.89543 22 7V10.0757C22 10.3244 21.7488 10.5 21.5 10.5C20.6716 10.5 20 11.1716 20 12C20 12.8284 20.6716 13.5 21.5 13.5C21.7488 13.5 22 13.6756 22 13.9243V17C22 18.1046 21.1046 19 20 19H4C2.89543 19 2 18.1046 2 17V13.9243C2 13.6756 2.25125 13.5 2.5 13.5C3.32843 13.5 4 12.8284 4 12C4 11.1716 3.32843 10.5 2.5 10.5C2.25125 10.5 2 10.3244 2 10.0757V7Z" fill="#211A1E"/>
<path fill-rule="evenodd" clip-rule="evenodd" d="M12.3419 8.87342C12.1863 8.61641 11.8134 8.61641 11.6577 8.87342L10.8676 10.1778C10.8118 10.2698 10.7215 10.3354 10.6168 10.36L9.13207 10.7084C8.83954 10.777 8.72431 11.1317 8.92063 11.3592L9.91702 12.5137C9.98726 12.5951 10.0218 12.7013 10.0128 12.8085L9.88533 14.3282C9.86021 14.6276 10.1619 14.8468 10.4389 14.7304L11.8448 14.1395C11.944 14.0979 12.0557 14.0979 12.1548 14.1395L13.5607 14.7304C13.8378 14.8468 14.1394 14.6276 14.1143 14.3282L13.9868 12.8085C13.9778 12.7013 14.0124 12.5951 14.0826 12.5137L15.079 11.3592C15.2753 11.1317 15.1601 10.777 14.8676 10.7084L13.3828 10.36C13.2782 10.3354 13.1878 10.2698 13.1321 10.1778L12.3419 8.87342ZM11.9998 10.2387L11.7229 10.6959C11.5279 11.0178 11.2116 11.2476 10.8452 11.3336L10.3248 11.4557L10.6741 11.8604C10.9199 12.1452 11.0408 12.5171 11.0093 12.8921L10.9646 13.4247L11.4574 13.2176C11.8043 13.0718 12.1953 13.0718 12.5422 13.2176L13.035 13.4247L12.9903 12.8921C12.9589 12.5171 13.0797 12.1452 13.3256 11.8604L13.6748 11.4557L13.1544 11.3336C12.788 11.2476 12.4717 11.0178 12.2768 10.6959L11.9998 10.2387Z" fill="white"/>
</svg>
