<svg width="24" height="24" viewBox="0 0 24 24" fill="none" xmlns="http://www.w3.org/2000/svg">
<path d="M13.5902 3.28781C13.122 3.01744 12.5443 2.8999 12.0002 2.8999C11.4561 2.8999 10.8783 3.01748 10.4101 3.28781L5.68023 6.01775C5.66812 6.02473 5.65626 6.03214 5.64467 6.03996L5.62503 6.0532C5.21172 6.33194 4.87326 6.5602 4.61327 6.76611C4.34513 6.97847 4.1174 7.19947 3.9555 7.47997C3.79022 7.76633 3.72156 8.06562 3.6899 8.38853C3.66013 8.69206 3.66014 9.05826 3.66016 9.48951V14.5153C3.66014 14.9465 3.66013 15.3127 3.6899 15.6163C3.72156 15.9392 3.79022 16.2385 3.9555 16.5248C4.1174 16.8053 4.34513 17.0263 4.61327 17.2387C4.87327 17.4446 5.21173 17.6729 5.62506 17.9516L5.64467 17.9648C5.65626 17.9727 5.66812 17.9801 5.68023 17.9871L10.4102 20.7171C10.8784 20.9874 11.4561 21.1049 12.0002 21.1049C12.5443 21.1049 13.122 20.9874 13.5902 20.717L18.3201 17.9871C18.3322 17.9801 18.3441 17.9727 18.3556 17.9648L18.3752 17.9516C18.7886 17.6729 19.127 17.4446 19.387 17.2387C19.6552 17.0263 19.8829 16.8053 20.0448 16.5248C20.2101 16.2385 20.2788 15.9392 20.3104 15.6163C20.3402 15.3127 20.3402 14.9465 20.3402 14.5152V9.48958C20.3402 9.0583 20.3402 8.69208 20.3104 8.38853C20.2788 8.06562 20.2101 7.76633 20.0448 7.47997C19.8829 7.19947 19.6552 6.97847 19.387 6.76611C19.1271 6.5602 18.7886 6.33194 18.3753 6.0532L18.3556 6.03996C18.3441 6.03214 18.3322 6.02473 18.3201 6.01775L13.5902 3.28781Z" fill="#211A1E"/>
<path fill-rule="evenodd" clip-rule="evenodd" d="M12.8073 8.1041C12.4079 7.55775 11.5924 7.55775 11.1929 8.1041L10.3678 9.23255C10.2444 9.40135 10.0711 9.52721 9.87244 9.59243L8.54426 10.0284C7.90119 10.2395 7.64919 11.0151 8.04536 11.5639L8.86361 12.6973C8.986 12.8669 9.05217 13.0705 9.05281 13.2796L9.05704 14.6775C9.05909 15.3543 9.71884 15.8337 10.3632 15.6265L11.694 15.1985C11.893 15.1345 12.1072 15.1345 12.3062 15.1985L13.637 15.6265C14.2814 15.8337 14.9411 15.3543 14.9432 14.6775L14.9474 13.2796C14.948 13.0705 15.0142 12.8669 15.1366 12.6973L15.9549 11.5639C16.351 11.0151 16.099 10.2395 15.456 10.0284L14.1278 9.59243C13.9291 9.52721 13.7559 9.40135 13.6324 9.23255L12.8073 8.1041ZM12.0001 9.03319L11.3365 9.94083C11.0649 10.3122 10.6838 10.5891 10.2467 10.7326L9.17842 11.0833L9.83656 11.9949C10.1058 12.3679 10.2514 12.8159 10.2528 13.276L10.2562 14.4004L11.3266 14.0561C11.7646 13.9153 12.2357 13.9153 12.6736 14.0561L13.744 14.4004L13.7474 13.276C13.7488 12.8159 13.8944 12.3679 14.1637 11.9949L14.8218 11.0833L13.7535 10.7326C13.3164 10.5891 12.9353 10.3122 12.6638 9.94083L12.0001 9.03319Z" fill="white"/>
</svg>
