<svg width="24" height="24" viewBox="0 0 24 24" fill="none" xmlns="http://www.w3.org/2000/svg">
<path d="M15.0004 4C15.0004 2.89543 14.105 2 13.0004 2H11.0004C9.89583 2 9.0004 2.89543 9.0004 4V5.19575C9.0004 5.98119 8.13645 6.46003 7.4704 6.04375L6.64725 5.52928C5.72999 4.95599 4.52315 5.21587 3.92315 6.11588L3.04988 7.42578C2.46108 8.30898 2.6648 9.4983 3.51398 10.1352L4.83367 11.125C5.39561 11.5464 5.35933 12.4007 4.76367 12.773L3.62777 13.4829C2.71833 14.0513 2.41909 15.2358 2.94947 16.168L3.77685 17.6221C4.31737 18.5721 5.52039 18.9122 6.47828 18.3858L7.51884 17.8141C8.18528 17.4479 9.0004 17.9301 9.0004 18.6905V20C9.0004 21.1046 9.89583 22 11.0004 22H13.0004C14.105 22 15.0004 21.1046 15.0004 20V18.8042C15.0004 18.0188 15.8643 17.54 16.5304 17.9562L17.2733 18.4206C18.222 19.0135 19.4727 18.7129 20.0483 17.7535L20.9899 16.1841C21.551 15.2491 21.2596 14.037 20.335 13.4591L19.3572 12.848C18.7305 12.4563 18.7305 11.5437 19.3572 11.152L20.335 10.5409C21.2596 9.96299 21.5509 8.75092 20.9899 7.81591L20.0483 6.24645C19.4727 5.28709 18.222 4.98649 17.2733 5.57945L16.5304 6.04375C15.8643 6.46003 15.0004 5.98119 15.0004 5.19575V4Z" fill="#211A1E"/>
<path fill-rule="evenodd" clip-rule="evenodd" d="M12.0004 14.3C13.2707 14.3 14.3004 13.2703 14.3004 12C14.3004 10.7297 13.2707 9.7 12.0004 9.7C10.7301 9.7 9.7004 10.7297 9.7004 12C9.7004 13.2703 10.7301 14.3 12.0004 14.3ZM12.0004 15.5C13.9334 15.5 15.5004 13.933 15.5004 12C15.5004 10.067 13.9334 8.5 12.0004 8.5C10.0674 8.5 8.5004 10.067 8.5004 12C8.5004 13.933 10.0674 15.5 12.0004 15.5Z" fill="white"/>
</svg>
