<svg width="24" height="24" viewBox="0 0 24 24" fill="none" xmlns="http://www.w3.org/2000/svg">
<path d="M18 9C19.933 9 21.5 7.433 21.5 5.5C21.5 3.567 19.933 2 18 2C16.067 2 14.5 3.567 14.5 5.5C14.5 5.89413 14.5651 6.27304 14.6853 6.62656L8.75293 9.83842C8.11211 9.02343 7.11718 8.5 6 8.5C4.067 8.5 2.5 10.067 2.5 12C2.5 13.933 4.067 15.5 6 15.5C7.07245 15.5 8.03224 15.0177 8.67426 14.2581L14.6545 17.4685C14.5541 17.7946 14.5 18.141 14.5 18.5C14.5 20.433 16.067 22 18 22C19.933 22 21.5 20.433 21.5 18.5C21.5 16.567 19.933 15 18 15C16.8552 15 15.8387 15.5497 15.2001 16.3995L9.28086 13.2217C9.42255 12.8414 9.5 12.4297 9.5 12C9.5 11.6138 9.43746 11.2423 9.32196 10.8949L15.2611 7.67936C15.9024 8.48418 16.891 9 18 9Z" fill="#211A1E"/>
</svg>
