<svg width="24" height="24" viewBox="0 0 24 24" fill="none" xmlns="http://www.w3.org/2000/svg">
<path fill-rule="evenodd" clip-rule="evenodd" d="M9.50015 1.3999C8.40766 1.3999 7.47809 1.67343 6.82588 2.32564C6.17368 2.97785 5.90015 3.90742 5.90015 4.9999V7.39326L5.68023 7.52019C5.66812 7.52717 5.65626 7.53458 5.64467 7.5424L5.62504 7.55564C5.21172 7.83439 4.87326 8.06264 4.61327 8.26855C4.34513 8.48091 4.11741 8.70191 3.95551 8.98241C3.79022 9.26878 3.72156 9.56806 3.6899 9.89098C3.66013 10.1945 3.66014 10.5607 3.66016 10.9919V16.0177C3.66014 16.4489 3.66013 16.8152 3.6899 17.1187C3.72156 17.4416 3.79022 17.7409 3.95551 18.0273C4.11741 18.3078 4.34513 18.5288 4.61327 18.7411C4.87327 18.9471 5.21173 19.1753 5.62506 19.4541L5.64467 19.4673C5.65626 19.4751 5.66812 19.4825 5.68023 19.4895L10.4102 22.2195C10.8784 22.4898 11.4561 22.6073 12.0002 22.6073C12.5443 22.6073 13.122 22.4898 13.5902 22.2194L18.3201 19.4895C18.3322 19.4825 18.3441 19.4751 18.3556 19.4673L18.3753 19.4541C18.7886 19.1753 19.1271 18.9471 19.387 18.7411C19.6552 18.5288 19.8829 18.3078 20.0448 18.0273C20.2101 17.7409 20.2788 17.4416 20.3104 17.1187C20.3402 16.8152 20.3402 16.4489 20.3402 16.0177V10.992C20.3402 10.5607 20.3402 10.1945 20.3104 9.89098C20.2788 9.56806 20.2101 9.26878 20.0448 8.98241C19.8829 8.70191 19.6552 8.48091 19.387 8.26855C19.1271 8.06264 18.7886 7.83438 18.3753 7.55564L18.3556 7.5424C18.3441 7.53458 18.3322 7.52717 18.3201 7.52019L18.1001 7.39325V4.9999C18.1001 3.90742 17.8266 2.97785 17.1744 2.32564C16.5222 1.67343 15.5926 1.3999 14.5001 1.3999H9.50015ZM16.9001 6.70064V4.9999C16.9001 4.09239 16.6737 3.52196 16.3259 3.17417C15.9781 2.82637 15.4077 2.5999 14.5001 2.5999H9.50015C8.59263 2.5999 8.0222 2.82637 7.67441 3.17417C7.32662 3.52196 7.10015 4.09239 7.10015 4.9999V6.70066L10.4101 4.79025C10.8783 4.51993 11.4561 4.40234 12.0002 4.40234C12.5443 4.40234 13.122 4.51988 13.5902 4.79025L16.9001 6.70064Z" fill="#211A1E"/>
<path fill-rule="evenodd" clip-rule="evenodd" d="M12.8073 10.1041C12.4079 9.55775 11.5924 9.55775 11.1929 10.1041L10.3678 11.2325C10.2444 11.4014 10.0711 11.5272 9.87244 11.5924L8.54426 12.0284C7.90119 12.2395 7.64919 13.0151 8.04536 13.5639L8.86361 14.6973C8.986 14.8669 9.05217 15.0705 9.05281 15.2796L9.05704 16.6775C9.05909 17.3543 9.71884 17.8337 10.3632 17.6265L11.694 17.1985C11.893 17.1345 12.1072 17.1345 12.3062 17.1985L13.637 17.6265C14.2814 17.8337 14.9411 17.3543 14.9432 16.6775L14.9474 15.2796C14.948 15.0705 15.0142 14.8669 15.1366 14.6973L15.9549 13.5639C16.351 13.0151 16.099 12.2395 15.456 12.0284L14.1278 11.5924C13.9291 11.5272 13.7559 11.4013 13.6324 11.2325L12.8073 10.1041ZM12.0001 11.0332L11.3365 11.9408C11.0649 12.3122 10.6838 12.5891 10.2467 12.7326L9.17842 13.0833L9.83656 13.9949C10.1058 14.3679 10.2514 14.8159 10.2528 15.276L10.2562 16.4004L11.3266 16.0561C11.7646 15.9153 12.2357 15.9153 12.6736 16.0561L13.744 16.4004L13.7474 15.276C13.7488 14.8159 13.8944 14.3679 14.1637 13.9949L14.8218 13.0833L13.7535 12.7326C13.3164 12.5891 12.9353 12.3122 12.6638 11.9408L12.0001 11.0332Z" fill="white"/>
</svg>
