<svg width="24" height="24" viewBox="0 0 24 24" fill="none" xmlns="http://www.w3.org/2000/svg">
<path d="M3.56914 4.60928C3.56914 3.83608 4.19594 3.20928 4.96914 3.20928H7.96914C8.30051 3.20928 8.56914 2.94065 8.56914 2.60928C8.56914 2.27791 8.30051 2.00928 7.96914 2.00928H4.96914C3.5332 2.00928 2.36914 3.17334 2.36914 4.60928V7.60928C2.36914 7.94065 2.63777 8.20928 2.96914 8.20928C3.30051 8.20928 3.56914 7.94065 3.56914 7.60928V4.60928Z" fill="#211A1E"/>
<path d="M19.7321 3.20928C20.5053 3.20928 21.1321 3.83608 21.1321 4.60928V7.60928C21.1321 7.94065 21.4007 8.20928 21.7321 8.20928C22.0634 8.20928 22.3321 7.94065 22.3321 7.60928V4.60928C22.3321 3.17334 21.168 2.00928 19.7321 2.00928H16.7321C16.4007 2.00928 16.1321 2.27791 16.1321 2.60928C16.1321 2.94065 16.4007 3.20928 16.7321 3.20928L19.7321 3.20928Z" fill="#211A1E"/>
<path d="M21.1321 19.3976C21.1321 20.1708 20.5053 20.7976 19.7321 20.7976H16.7321C16.4007 20.7976 16.1321 21.0662 16.1321 21.3976C16.1321 21.7289 16.4007 21.9976 16.7321 21.9976H19.7321C21.168 21.9976 22.3321 20.8335 22.3321 19.3976V16.3976C22.3321 16.0662 22.0634 15.7976 21.7321 15.7976C21.4007 15.7976 21.1321 16.0662 21.1321 16.3976L21.1321 19.3976Z" fill="#211A1E"/>
<path d="M4.96914 20.7976C4.19594 20.7976 3.56914 20.1708 3.56914 19.3976L3.56914 16.3976C3.56914 16.0662 3.30051 15.7976 2.96914 15.7976C2.63777 15.7976 2.36914 16.0662 2.36914 16.3976V19.3976C2.36914 20.8335 3.5332 21.9976 4.96914 21.9976H7.96914C8.30051 21.9976 8.56914 21.7289 8.56914 21.3976C8.56914 21.0662 8.30051 20.7976 7.96914 20.7976H4.96914Z" fill="#211A1E"/>
<path d="M10.803 15.634C10.5343 15.4401 10.1593 15.5007 9.96533 15.7694C9.77141 16.0381 9.83203 16.4132 10.1007 16.6071C10.7089 17.046 11.3987 17.277 12.1007 17.277C12.8028 17.277 13.4926 17.046 14.1007 16.6071C14.3694 16.4132 14.4301 16.0381 14.2361 15.7694C14.0422 15.5007 13.6672 15.4401 13.3985 15.634C12.9802 15.9359 12.5333 16.077 12.1007 16.077C11.6682 16.077 11.2213 15.9359 10.803 15.634Z" fill="#211A1E"/>
<path fill-rule="evenodd" clip-rule="evenodd" d="M10.5858 4.56884C11.0401 4.36762 11.5322 4.2657 12.029 4.2699C12.5259 4.2741 13.0161 4.38433 13.4669 4.59322C13.9178 4.8021 14.3188 5.10483 14.6432 5.48115C14.9677 5.85748 15.208 6.29873 15.3482 6.77541C15.4885 7.25209 15.5253 7.75321 15.4563 8.24527L15.4483 8.30232C16.3648 9.19821 16.9338 10.4483 16.9338 11.8312V15.0659C16.9338 17.791 14.7246 20.0001 11.9995 20.0001C9.27444 20.0001 7.0653 17.791 7.0653 15.0659V11.8312C7.0653 10.449 7.63365 9.1995 8.54939 8.30371L8.535 8.18672C8.47431 7.69357 8.51961 7.19314 8.66786 6.7189C8.81611 6.24466 9.0639 5.80753 9.39466 5.43675C9.72542 5.06597 10.1315 4.77007 10.5858 4.56884ZM15.7338 15.0659V12.493C14.381 12.4572 12.7525 12.2398 11.1595 10.9204C11.1096 10.8791 11.0333 10.8936 10.9992 10.9486C10.5125 11.7351 9.16333 12.4525 8.2653 12.7926V15.0659C8.2653 17.1282 9.93718 18.8001 11.9995 18.8001C14.0619 18.8001 15.7338 17.1282 15.7338 15.0659Z" fill="#211A1E"/>
</svg>
