<svg width="24" height="24" viewBox="0 0 24 24" fill="none" xmlns="http://www.w3.org/2000/svg">
<path d="M4 6C4 4.89543 4.89543 4 6 4H15.9998C18.2089 4 19.9998 5.79086 19.9998 8V15.9998C19.9998 18.2089 18.2089 19.9998 15.9998 19.9998H6C4.89543 19.9998 4 19.1043 4 17.9998V6Z" fill="#211A1E"/>
<path d="M15.3791 12.5999C15.7104 12.5999 15.9791 12.3313 15.9791 11.9999C15.9791 11.6685 15.7104 11.3999 15.3791 11.3999C15.0477 11.3999 14.7791 11.6685 14.7791 11.9999C14.7791 12.3313 15.0477 12.5999 15.3791 12.5999Z" fill="white"/>
<path fill-rule="evenodd" clip-rule="evenodd" d="M12.3808 11.5C12.3808 10.3954 13.2762 9.5 14.3808 9.5H19.9998V14.5H14.3808C13.2762 14.5 12.3808 13.6046 12.3808 12.5V11.5ZM14.3808 10.7H18.7998V13.3H14.3808C13.9389 13.3 13.5808 12.9418 13.5808 12.5V11.5C13.5808 11.0582 13.9389 10.7 14.3808 10.7Z" fill="white"/>
</svg>
