<svg width="24" height="24" viewBox="0 0 24 24" fill="none" xmlns="http://www.w3.org/2000/svg">
<path fill-rule="evenodd" clip-rule="evenodd" d="M7.94059 5.72754C7.95998 5.72565 7.97963 5.72468 7.99952 5.72468H8.97168C9.19259 5.72468 9.37168 5.5456 9.37168 5.32468V4.3999C9.37168 3.84762 9.81939 3.3999 10.3717 3.3999H13.6464C14.1987 3.3999 14.6464 3.84762 14.6464 4.3999V5.32468C14.6464 5.5456 14.8255 5.72468 15.0464 5.72468H15.9995C16.0194 5.72468 16.0391 5.72565 16.0584 5.72754H17.5905C19.7996 5.72754 21.5905 7.5184 21.5905 9.72754V10.8954C21.5964 10.9293 21.5995 10.9642 21.5995 10.9998V15.9998C21.5995 18.5403 19.54 20.5998 16.9995 20.5998H6.99952C4.45901 20.5998 2.39952 18.5403 2.39952 15.9998V10.9998C2.39952 10.9639 2.40267 10.9288 2.4087 10.8947L2.4086 10.8804L2.4086 9.72754C2.4086 7.5184 4.19946 5.72754 6.4086 5.72754H7.94059ZM10.5717 5.32468V4.5999H13.4464V5.32468C13.4464 5.46383 13.4642 5.59883 13.4975 5.72754H10.5205C10.5539 5.59883 10.5717 5.46383 10.5717 5.32468Z" fill="#211A1E"/>
<path d="M21.1715 10.9037C19.7316 12.3082 17.066 14.0114 13.8025 14.5065C13.4226 14.5642 13.0341 14.6055 12.638 14.6281C12.5795 14.3581 12.3392 14.1558 12.0516 14.1558C11.7604 14.1558 11.5176 14.3633 11.463 14.6385C8.7787 14.5319 5.80446 13.5159 2.80443 10.8823C2.5554 10.6637 2.1763 10.6884 1.95769 10.9374C1.73908 11.1865 1.76374 11.5656 2.01278 11.7842C5.23759 14.615 8.48849 15.7293 11.4516 15.8388V17.4342C11.4516 17.7656 11.7202 18.0342 12.0516 18.0342C12.383 18.0342 12.6516 17.7656 12.6516 17.4342V15.8291C13.1038 15.8052 13.5478 15.7589 13.9825 15.693C17.5336 15.1542 20.4206 13.3124 22.0094 11.7627C22.2466 11.5314 22.2514 11.1515 22.02 10.9143C21.7886 10.6771 21.4087 10.6723 21.1715 10.9037Z" fill="white"/>
</svg>
